<svg width="277" height="104" viewBox="0 0 277 104" fill="none" xmlns="http://www.w3.org/2000/svg">
<rect y="0" width="277" height="104" fill="#263238"/>
<path d="M277 39.007C269.371 32.7501 245.673 23 211.039 23C185.96 23 153.805 40.1761 142.014 44.4195C122.259 51.5293 91.7781 50.5641 81.115 49.1246C71.0997 47.7726 50.6388 39.9405 44.2117 36.9297C25.8719 28.3384 14.8934 23 0 23V90H277V39.007Z" fill="url(#paint0_linear)"/>
<path d="M0 65.5622C7.62936 61.0427 31.3269 54 65.961 54C91.0401 54 123.195 66.4067 134.986 69.4717C154.741 74.6072 185.222 73.9101 195.885 72.8703C205.9 71.8937 226.361 66.2365 232.788 64.0617C251.128 57.856 262.107 54 277 54V109.5H0L0 65.5622Z" fill="url(#paint1_linear)"/>
<path d="M256.455 52.9063C254.922 46.4454 251.601 40.5468 246.871 35.8864C242.141 31.226 236.194 27.9923 229.711 26.5558C223.228 25.1192 216.472 25.538 210.216 27.7641C203.96 29.9902 198.458 33.9335 194.34 39.1423C190.222 44.3511 187.654 50.6147 186.931 57.2153C186.208 63.816 187.36 70.4868 190.253 76.4633C193.146 82.4399 197.665 87.4805 203.291 91.0077C208.917 94.5348 215.422 96.4058 222.063 96.4063V107.281C224.395 106.9 226.675 106.252 228.859 105.351" stroke="#15232B" stroke-width="2" stroke-linejoin="round"/>
<path d="M224.781 78.843C224.781 74.5413 226.057 70.3361 228.447 66.7594C230.837 63.1826 234.234 60.3949 238.208 58.7486C242.182 57.1024 246.555 56.6717 250.774 57.5109C254.994 58.3502 258.869 60.4217 261.911 63.4635C264.953 66.5052 267.024 70.3807 267.863 74.5998C268.703 78.8189 268.272 83.1921 266.626 87.1664C264.979 91.1407 262.192 94.5376 258.615 96.9275C255.038 99.3174 250.833 100.593 246.531 100.593V107.281C246.531 107.281 235.656 105.813 234.134 96.7052C231.249 94.7039 228.891 92.0339 227.263 88.9233C225.634 85.8128 224.783 82.3542 224.781 78.843V78.843Z" stroke="#15232B" stroke-width="2" stroke-linejoin="round"/>
<path d="M205.75 44.75H238.375" stroke="#15232B" stroke-width="2" stroke-linejoin="round"/>
<path d="M205.75 58.3438H224.781" stroke="#15232B" stroke-width="2" stroke-linejoin="round"/>
<path d="M205.75 71.9375H219.344" stroke="#15232B" stroke-width="2" stroke-linejoin="round"/>
<path d="M235.656 74.6562H257.406" stroke="#15232B" stroke-width="2" stroke-linejoin="round"/>
<path d="M235.656 85.5312H257.406" stroke="#15232B" stroke-width="2" stroke-linejoin="round"/>
<defs>
<linearGradient id="paint0_linear" x1="138.5" y1="23" x2="138.5" y2="87.6897" gradientUnits="userSpaceOnUse">
<stop stop-color="#2E3F47"/>
<stop offset="1" stop-color="#2E3F47" stop-opacity="0"/>
</linearGradient>
<linearGradient id="paint1_linear" x1="147.252" y1="54" x2="147.252" y2="130" gradientUnits="userSpaceOnUse">
<stop stop-color="#2E3F47"/>
<stop offset="1" stop-color="#2E3F47" stop-opacity="0"/>
</linearGradient>
</defs>
</svg>
