<svg width="33" height="32" viewBox="0 0 33 32" fill="none" xmlns="http://www.w3.org/2000/svg">
<g clip-path="url(#clip0)">
<path d="M32.1539 15.3844C32.0711 15.3844 31.9891 15.4003 31.9126 15.4312C31.8361 15.4621 31.7666 15.5074 31.7081 15.5646C31.6495 15.6217 31.6031 15.6896 31.5714 15.7642C31.5397 15.8389 31.5234 15.9189 31.5234 15.9998C31.5236 19.3494 30.3573 22.5997 28.2158 25.2171C26.0743 27.8346 23.0849 29.6638 19.7381 30.4047C16.3913 31.1455 12.8859 30.7539 9.79715 29.2941C6.7084 27.8344 4.21973 25.3932 2.73952 22.3711C1.25931 19.349 0.87549 15.9256 1.65104 12.6626C2.42658 9.3996 4.31543 6.49081 7.00764 4.41355C9.69984 2.3363 13.0355 1.21397 16.4672 1.23073C19.8989 1.24749 23.2229 2.40234 25.8937 4.50578H23.235C23.0678 4.50578 22.9074 4.57062 22.7892 4.68602C22.671 4.80143 22.6045 4.95795 22.6045 5.12116C22.6045 5.28437 22.671 5.4409 22.7892 5.55631C22.9074 5.67171 23.0678 5.73655 23.235 5.73655H27.5375C27.7045 5.73592 27.8645 5.67088 27.9826 5.55561C28.1007 5.44034 28.1673 5.28418 28.1679 5.12116V0.92165C28.1679 0.75844 28.1015 0.601915 27.9833 0.486508C27.865 0.371101 27.7047 0.306266 27.5375 0.306266C27.3703 0.306266 27.2099 0.371101 27.0917 0.486508C26.9734 0.601915 26.907 0.75844 26.907 0.92165V3.72753C23.669 1.08424 19.5111 -0.23786 15.2993 0.036626C11.0875 0.311112 7.14654 2.16102 4.29731 5.20103C1.44809 8.24103 -0.0897515 12.2368 0.00411889 16.3559C0.0979892 20.4751 1.81633 24.4001 4.80123 27.3135C7.09371 29.5511 10.0145 31.0749 13.1943 31.6923C16.374 32.3097 19.67 31.9928 22.6652 30.7818C25.6605 29.5708 28.2206 27.5201 30.0218 24.8889C31.823 22.2577 32.7844 19.1643 32.7844 15.9998C32.7844 15.9189 32.7681 15.8389 32.7364 15.7642C32.7048 15.6896 32.6583 15.6217 32.5998 15.5646C32.5412 15.5074 32.4717 15.4621 32.3952 15.4312C32.3187 15.4003 32.2367 15.3844 32.1539 15.3844Z" fill="white"/>
<path d="M19.8748 11.5836L16.6622 20.1989C16.6336 20.2749 16.6207 20.3556 16.6242 20.4365C16.6276 20.5173 16.6474 20.5967 16.6824 20.6701C16.7173 20.7435 16.7668 20.8094 16.8279 20.8641C16.889 20.9188 16.9605 20.9612 17.0384 20.9889C17.1163 21.0166 17.1991 21.0289 17.2819 21.0254C17.3647 21.0218 17.446 21.0023 17.5211 20.968C17.5962 20.9337 17.6636 20.8852 17.7195 20.8255C17.7753 20.7657 17.8186 20.6957 17.8467 20.6196L21.0594 12.0043C21.1166 11.8509 21.109 11.6817 21.0383 11.5339C20.9677 11.386 20.8397 11.2716 20.6826 11.2158C20.5255 11.16 20.3522 11.1674 20.2007 11.2364C20.0492 11.3054 19.932 11.4302 19.8748 11.5836Z" fill="white"/>
<path d="M11.0715 14.887C11.0723 14.5885 11.0124 14.2927 10.8954 14.0169C10.7784 13.7411 10.6064 13.4906 10.3896 13.2801C9.50977 12.4207 7.97669 12.4207 7.09687 13.2801C6.87992 13.4906 6.70792 13.741 6.59082 14.0168C6.47372 14.2927 6.41385 14.5885 6.41468 14.887C6.41468 15.0503 6.48111 15.2068 6.59934 15.3222C6.71758 15.4376 6.87794 15.5024 7.04515 15.5024C7.21236 15.5024 7.37272 15.4376 7.49096 15.3222C7.60919 15.2068 7.67562 15.0503 7.67562 14.887C7.67529 14.7502 7.70276 14.6146 7.75645 14.4881C7.81013 14.3616 7.88897 14.2468 7.98839 14.1503C8.19161 13.9605 8.46199 13.8546 8.74323 13.8546C9.02446 13.8546 9.29485 13.9605 9.49806 14.1503C9.69813 14.3456 9.81053 14.6105 9.81053 14.8867C9.81053 15.163 9.69813 15.4279 9.49806 15.6232L6.59939 18.4526C6.51121 18.5386 6.45116 18.6483 6.42682 18.7676C6.40249 18.887 6.41496 19.0107 6.46268 19.1232C6.51039 19.2356 6.5912 19.3317 6.69488 19.3993C6.79856 19.467 6.92046 19.503 7.04515 19.503H10.441C10.6082 19.503 10.7686 19.4382 10.8868 19.3228C11.005 19.2074 11.0715 19.0509 11.0715 18.8877C11.0715 18.7244 11.005 18.5679 10.8868 18.4525C10.7686 18.3371 10.6082 18.2723 10.441 18.2723H8.56714L10.3896 16.4934C10.6064 16.283 10.7783 16.0326 10.8954 15.7569C11.0124 15.4812 11.0723 15.1855 11.0715 14.887Z" fill="white"/>
<path d="M14.6656 19.503C14.7484 19.503 14.8303 19.4871 14.9068 19.4562C14.9834 19.4252 15.0529 19.3799 15.1114 19.3228C15.17 19.2656 15.2164 19.1978 15.2481 19.1231C15.2797 19.0484 15.296 18.9684 15.296 18.8876V17.9699H15.6214C15.7886 17.9699 15.949 17.9051 16.0672 17.7896C16.1855 17.6742 16.2519 17.5177 16.2519 17.3545C16.2519 17.1913 16.1855 17.0348 16.0672 16.9194C15.949 16.804 15.7886 16.7391 15.6214 16.7391H15.296V13.2295C15.296 13.0971 15.2521 12.9682 15.1711 12.8619C15.09 12.7557 14.9759 12.6779 14.8459 12.64C14.7159 12.602 14.5768 12.6061 14.4493 12.6514C14.3218 12.6968 14.2127 12.7811 14.1382 12.8918L11.367 17.0168C11.3046 17.1096 11.2691 17.2172 11.2642 17.3281C11.2594 17.439 11.2854 17.5492 11.3394 17.6469C11.3935 17.7445 11.4736 17.8261 11.5713 17.883C11.669 17.9399 11.7806 17.9699 11.8943 17.9699H14.0351V18.8876C14.0351 18.9684 14.0514 19.0484 14.083 19.1231C14.1147 19.1978 14.1612 19.2656 14.2197 19.3228C14.2782 19.3799 14.3478 19.4252 14.4243 19.4562C14.5008 19.4871 14.5828 19.503 14.6656 19.503ZM13.0617 16.7391L14.0351 15.2902V16.7391H13.0617Z" fill="white"/>
<path d="M23.2448 18.8877C23.2448 19.0509 23.3112 19.2074 23.4294 19.3228C23.5477 19.4382 23.708 19.503 23.8753 19.503C24.0425 19.503 24.2028 19.4382 24.3211 19.3228C24.4393 19.2074 24.5057 19.0509 24.5057 18.8877V17.6208C24.5038 16.8858 24.6511 16.1577 24.9393 15.4786C25.2275 14.7995 25.6508 14.183 26.1847 13.6646C26.2729 13.5786 26.3329 13.469 26.3573 13.3496C26.3816 13.2302 26.3691 13.1065 26.3214 12.994C26.2737 12.8816 26.1929 12.7855 26.0892 12.7179C25.9855 12.6503 25.8636 12.6142 25.739 12.6142H22.0119C21.8447 12.6142 21.6843 12.679 21.5661 12.7944C21.4478 12.9098 21.3814 13.0663 21.3814 13.2296C21.3814 13.3928 21.4478 13.5493 21.5661 13.6647C21.6843 13.7801 21.8447 13.8449 22.0119 13.8449H24.4097C23.6465 14.963 23.2411 16.2773 23.2448 17.6208V18.8877Z" fill="white"/>
</g>
<defs>
<clipPath id="clip0">
<rect width="32.7844" height="32" fill="white"/>
</clipPath>
</defs>
</svg>
