<svg width="33" height="32" viewBox="0 0 33 32" fill="none" xmlns="http://www.w3.org/2000/svg">
<path d="M27.713 11.8H19.312V10.6H24.537C24.6907 10.6 24.7931 10.55 24.8956 10.45L28.0715 7.6C28.174 7.5 28.2764 7.35 28.2764 7.2C28.2764 7.05 28.2252 6.9 28.0715 6.8L24.8956 3.95C24.7931 3.85 24.6394 3.8 24.537 3.8H19.312V0.55C19.312 0.25 19.0559 0 18.7485 0H14.2407C13.9333 0 13.6772 0.25 13.6772 0.55V3.75H9.22056C8.9132 3.75 8.65708 4 8.65708 4.3V10C8.65708 10.3 8.9132 10.55 9.22056 10.55H13.6772V11.75H8.24727C8.0936 11.75 7.99115 11.8 7.88869 11.9L4.71271 14.75C4.61026 14.85 4.50781 15 4.50781 15.15C4.50781 15.3 4.55904 15.45 4.71271 15.55L7.88869 18.4C7.99115 18.5 8.14482 18.55 8.24727 18.55H13.6259V31.4C13.6259 31.7 13.8821 31.95 14.1894 31.95H18.6973C19.0046 31.95 19.2608 31.7 19.2608 31.4V18.6H27.6617C27.9691 18.6 28.2252 18.35 28.2252 18.05V12.35C28.2764 12.05 28.0203 11.8 27.713 11.8ZM14.8041 1.1H18.185V3.75H14.8041V1.1ZM9.78404 4.85H14.2407H18.7485H24.2809L26.8421 7.15L24.2809 9.45H18.7485H14.2407H9.78404V4.85ZM14.8041 10.6H18.185V11.8H14.8041V10.6ZM18.185 30.9H14.8041V18.6H18.185V30.9ZM27.1495 17.5H18.7485H14.2407H8.5034L5.94213 15.2L8.5034 12.9H14.2407H18.7485H27.1495V17.5Z" fill="white"/>
<path d="M15.8286 15.2C15.8286 15.5 16.0848 15.75 16.3921 15.75H25.459C25.7664 15.75 26.0225 15.5 26.0225 15.2C26.0225 14.9 25.7664 14.65 25.459 14.65H16.3921C16.0848 14.65 15.8286 14.9 15.8286 15.2Z" fill="white"/>
<path d="M13.0625 14.65H11.9355C11.6281 14.65 11.372 14.9 11.372 15.2C11.372 15.5 11.6281 15.75 11.9355 15.75H13.0625C13.3698 15.75 13.6259 15.5 13.6259 15.2C13.6259 14.9 13.3698 14.65 13.0625 14.65Z" fill="white"/>
<path d="M16.9556 7.14999C16.9556 6.84999 16.6995 6.59999 16.3921 6.59999H10.8086C10.5012 6.59999 10.2451 6.84999 10.2451 7.14999C10.2451 7.44999 10.5012 7.69999 10.8086 7.69999H16.3921C16.6995 7.69999 16.9556 7.44999 16.9556 7.14999Z" fill="white"/>
<path d="M21.6171 7.69999H22.7441C23.0514 7.69999 23.3075 7.44999 23.3075 7.14999C23.3075 6.84999 23.0514 6.59999 22.7441 6.59999H21.6171C21.3097 6.59999 21.0536 6.84999 21.0536 7.14999C21.0536 7.44999 21.3097 7.69999 21.6171 7.69999Z" fill="white"/>
</svg>
