<svg width="32" height="32" viewBox="0 0 32 32" fill="none" xmlns="http://www.w3.org/2000/svg">
<path d="M16 31.9333C7.20001 31.9333 0.0666809 24.8 0.0666809 16C0.0666809 7.19999 7.20001 0.0666656 16 0.0666656C24.8 0.0666656 31.9333 7.19999 31.9333 16C31.9333 24.8 24.8 31.9333 16 31.9333ZM16 1.8C8.20001 1.8 1.80002 8.19999 1.80002 16C1.80002 23.8 8.20001 30.2 16 30.2C23.8 30.2 30.2 23.8 30.2 16C30.2 8.19999 23.8 1.8 16 1.8Z" fill="#000000"/>
<path d="M6.66668 27.5333L5.06668 26.8C5.53335 25.6667 7.00001 25.0667 8.66668 24.3333C10.2667 23.6 12.2667 22.7333 12.2667 21.6667V20.2C11.6667 19.7333 10.7333 18.6667 10.6 17.1333C10.1333 16.6667 9.40001 15.8 9.40001 14.7333C9.40001 14.0667 9.66668 13.5333 9.86668 13.2C9.73335 12.4667 9.46667 11 9.46667 9.86666C9.46667 6.2 12 3.8 16 3.8C17.1333 3.8 18.5333 4.13332 19.2667 4.93332C21.0667 5.26666 22.5333 7.4 22.5333 9.86666C22.5333 11.4667 22.2667 12.8 22.0667 13.4C22.2667 13.7333 22.4667 14.2 22.4667 14.7333C22.4667 16 21.8667 16.8 21.2667 17.2C21.1333 18.7333 20.2667 19.7333 19.7333 20.2V21.6667C19.7333 22.6 21.4 23.2 22.9333 23.8C24.7333 24.4667 26.6 25.1333 27.2 26.6667L25.5333 27.2667C25.2667 26.4667 23.6667 25.9333 22.3333 25.4C20.2667 24.6667 17.9333 23.8 17.9333 21.6667V19.2667L18.3333 19C18.4 19 19.5333 18.2 19.5333 16.6667V16.0667L20.0667 15.8667C20.1333 15.8 20.6667 15.5333 20.6667 14.7333C20.6667 14.4667 20.4667 14.2 20.4 14.1333L20.0667 13.7333L20.2 13.2667C20.2 13.2667 20.6667 11.8 20.6667 9.79999C20.6667 8.13333 19.7333 6.59999 18.7333 6.59999H18.2L17.9333 6.13334C17.7333 5.8 16.9333 5.46667 15.8667 5.46667C12.8667 5.46667 11.0667 7.06666 11.0667 9.79999C11.0667 11.0667 11.5333 13.1333 11.5333 13.1333L11.6667 13.6L11.3333 13.9333C11.3333 13.9333 11.0667 14.2667 11.0667 14.6C11.0667 15.0667 11.6667 15.6667 11.9333 15.9333L12.2667 16.2V16.6667C12.2667 18.1333 13.5333 18.9333 13.5333 18.9333L13.9333 19.2V21.6C13.9333 23.8 11.4667 24.9333 9.26667 25.8667C8.33334 26.4 6.93334 27.0667 6.66668 27.5333Z" fill="#000000"/>
</svg>
