<svg width="16" height="16" viewBox="0 0 16 16" fill="none" xmlns="http://www.w3.org/2000/svg">
<g clip-path="url(#clip0)">
<path d="M4.21847 9.28128L3.80087 10.6783C3.75847 10.8202 3.78559 10.9737 3.87406 11.0925C3.96253 11.2113 4.10191 11.2812 4.25 11.2812H4.71875V12.0246C4.71875 12.5773 4.93397 13.0969 5.32481 13.4877C5.52925 13.6922 5.65625 14.0108 5.65625 14.3192V15.5312C5.65625 15.7901 5.86613 16 6.125 16C6.38387 16 6.59375 15.7901 6.59375 15.5312V14.3192C6.59375 13.7629 6.36719 13.2043 5.98769 12.8248C5.77394 12.611 5.65625 12.3269 5.65625 12.0246V11.2812H6.125C6.27309 11.2812 6.41247 11.2112 6.50094 11.0925C6.58941 10.9737 6.61653 10.8201 6.57412 10.6783L6.15653 9.28128C6.65628 9.15025 7.12203 8.92031 7.53594 8.61097C8.12775 9.42394 8.93728 9.98512 9.84313 10.22L9.42587 11.6158C9.38347 11.7577 9.41059 11.9112 9.49906 12.03C9.58753 12.1488 9.72691 12.2188 9.875 12.2188H10.3438V12.9621C10.3438 13.5183 10.5703 14.077 10.9498 14.4565C11.1636 14.6702 11.2812 14.9544 11.2812 15.2567V15.5312C11.2812 15.7901 11.4911 16 11.75 16C12.0089 16 12.2188 15.7901 12.2188 15.5312V15.2567C12.2188 14.7039 12.0035 14.1843 11.6127 13.7935C11.4082 13.5891 11.2812 13.2705 11.2812 12.9621V12.2188H11.75C11.8981 12.2188 12.0375 12.1487 12.1259 12.03C12.2144 11.9112 12.2415 11.7576 12.1991 11.6158L11.7815 10.2188C13.6422 9.73097 15.0312 7.87053 15.0312 5.65625C15.0312 3.05431 13.1387 0.9375 10.8125 0.9375C9.96737 0.9375 9.1475 1.21841 8.45478 1.73706C7.6805 0.677594 6.50347 0 5.1875 0C2.86128 0 0.96875 2.11681 0.96875 4.71875C0.96875 6.93303 2.35778 8.79347 4.21847 9.28128ZM4.87937 10.3438L5.15972 9.40584C5.169 9.40594 5.17822 9.40625 5.1875 9.40625C5.19678 9.40625 5.206 9.40594 5.21528 9.40584L5.49563 10.3438H4.87937ZM10.5044 11.2812L10.7847 10.3433C10.794 10.3433 10.8032 10.3438 10.8125 10.3438C10.8218 10.3438 10.831 10.3434 10.8403 10.3433L11.1206 11.2812H10.5044ZM10.8125 1.875C12.6218 1.875 14.0938 3.57125 14.0938 5.65625C14.0938 7.724 12.6218 9.40625 10.8125 9.40625C9.79372 9.40625 8.84828 8.87347 8.22762 7.96528C8.95709 7.12228 9.40625 5.97775 9.40625 4.71875C9.40625 3.93784 9.23563 3.20078 8.93412 2.55137C9.48266 2.11322 10.1388 1.875 10.8125 1.875ZM5.1875 0.9375C6.99678 0.9375 8.46875 2.63375 8.46875 4.71875C8.46875 6.7865 6.99678 8.46875 5.1875 8.46875C3.37822 8.46875 1.90625 6.7865 1.90625 4.71875C1.90625 2.63375 3.37822 0.9375 5.1875 0.9375Z" fill="black"/>
</g>
<defs>
<clipPath id="clip0">
<rect width="16" height="16" fill="white"/>
</clipPath>
</defs>
</svg>
