<svg width="62" height="62" viewBox="0 0 62 62" fill="none" xmlns="http://www.w3.org/2000/svg">
<g filter="url(#filter0_d)">
<path d="M31 43C39.8366 43 47 35.8366 47 27C47 18.1634 39.8366 11 31 11C22.1634 11 15 18.1634 15 27C15 35.8366 22.1634 43 31 43Z" fill="#FF1F3D"/>
<path d="M47 26.9999C47 26.2363 46.9453 25.4857 46.8419 24.7506L38.9236 16.8376C38.4892 16.3492 37.8573 16.04 37.1562 16.04H24.8438C23.5418 16.04 22.4766 17.1053 22.4766 18.4072V35.5926C22.4766 36.2543 22.7521 36.8545 23.1936 37.285L28.7688 42.8443C29.4981 42.946 30.2427 42.9999 31 42.9999C39.8366 42.9999 47 35.8365 47 26.9999Z" fill="#D70032"/>
<path d="M37.1562 37.9598H24.8438C23.5418 37.9598 22.4766 36.8945 22.4766 35.5926V18.4072C22.4766 17.1053 23.5418 16.04 24.8438 16.04H37.1562C38.4582 16.04 39.5234 17.1053 39.5234 18.4072V35.5926C39.5234 36.8945 38.4582 37.9598 37.1562 37.9598Z" fill="#9CFDFF"/>
<path d="M39.5238 18.4074V35.5924C39.5238 36.8942 38.4581 37.9599 37.1562 37.9599H31V16.0399H37.1562C38.4581 16.0399 39.5238 17.1055 39.5238 18.4074Z" fill="#00E8F2"/>
<path d="M37.5264 18.4363H24.472V22.5006H37.5264V18.4363Z" fill="#7985EB"/>
<path d="M29.3675 29.3258H26.2138C25.5666 29.3258 25.0419 28.8011 25.0419 28.154V25.2508C25.0419 24.6037 25.5666 24.079 26.2138 24.079H29.3675C30.0147 24.079 30.5394 24.6037 30.5394 25.2508V28.154C30.5394 28.8012 30.0147 29.3258 29.3675 29.3258Z" fill="#00ACEA"/>
<path d="M29.2567 26.338H26.324V27.0656H29.2567V26.338Z" fill="white"/>
<path d="M35.7861 35.5635H32.6324C31.9853 35.5635 31.4606 35.0388 31.4606 34.3916V31.4884C31.4606 30.8412 31.9853 30.3165 32.6324 30.3165H35.7861C36.4333 30.3165 36.958 30.8412 36.958 31.4884V34.3916C36.958 35.0388 36.4334 35.5635 35.7861 35.5635Z" fill="#E67500"/>
<path d="M35.676 32.5765H32.7434V33.3041H35.676V32.5765Z" fill="#FFF5CB"/>
<path d="M34.209 32.2256C34.4833 32.2256 34.7057 32.0032 34.7057 31.7289C34.7057 31.4546 34.4833 31.2322 34.209 31.2322C33.9347 31.2322 33.7123 31.4546 33.7123 31.7289C33.7123 32.0032 33.9347 32.2256 34.209 32.2256Z" fill="#FFF5CB"/>
<path d="M34.209 34.6483C34.4833 34.6483 34.7057 34.4259 34.7057 34.1516C34.7057 33.8773 34.4833 33.6549 34.209 33.6549C33.9347 33.6549 33.7123 33.8773 33.7123 34.1516C33.7123 34.4259 33.9347 34.6483 34.209 34.6483Z" fill="#FFF5CB"/>
<path d="M35.7861 29.3258H32.6324C31.9853 29.3258 31.4606 28.8011 31.4606 28.154V25.2508C31.4606 24.6037 31.9853 24.079 32.6324 24.079H35.7861C36.4333 24.079 36.958 24.6037 36.958 25.2508V28.154C36.958 28.8012 36.4334 29.3258 35.7861 29.3258Z" fill="#0070B4"/>
<path d="M35.677 26.3385H34.5745V25.2359H33.8469V26.3385H32.7444V27.0661H33.8469V28.1686H34.5745V27.0661H35.677V26.3385Z" fill="#FFF5CB"/>
<path d="M29.3675 35.5635H26.2138C25.5666 35.5635 25.0419 35.0388 25.0419 34.3916V31.4884C25.0419 30.8412 25.5666 30.3165 26.2138 30.3165H29.3675C30.0147 30.3165 30.5394 30.8412 30.5394 31.4884V34.3916C30.5394 35.0388 30.0147 35.5635 29.3675 35.5635Z" fill="#00ACEA"/>
<path d="M29.0843 33.7196L28.3047 32.94L29.0843 32.1604L28.5698 31.6459L27.7902 32.4255L27.0107 31.6459L26.4961 32.1604L27.2757 32.94L26.4961 33.7196L27.0107 34.2341L27.7902 33.4545L28.5698 34.2341L29.0843 33.7196Z" fill="white"/>
<path d="M37.5275 18.4363H31V22.5013H37.5275V18.4363Z" fill="#1C2EDE"/>
</g>
<defs>
<filter id="filter0_d" x="0" y="0" width="62" height="62" filterUnits="userSpaceOnUse" color-interpolation-filters="sRGB">
<feFlood flood-opacity="0" result="BackgroundImageFix"/>
<feColorMatrix in="SourceAlpha" type="matrix" values="0 0 0 0 0 0 0 0 0 0 0 0 0 0 0 0 0 0 127 0"/>
<feOffset dy="4"/>
<feGaussianBlur stdDeviation="7.5"/>
<feColorMatrix type="matrix" values="0 0 0 0 0 0 0 0 0 0 0 0 0 0 0 0 0 0 0.15 0"/>
<feBlend mode="normal" in2="BackgroundImageFix" result="effect1_dropShadow"/>
<feBlend mode="normal" in="SourceGraphic" in2="effect1_dropShadow" result="shape"/>
</filter>
</defs>
</svg>
