<svg width="16" height="16" viewBox="0 0 16 16" fill="none" xmlns="http://www.w3.org/2000/svg">
<path d="M8 0C3.58172 0 0 3.58172 0 8C0 12.4183 3.58172 16 8 16C12.4183 16 16 12.4183 16 8C16 3.58172 12.4183 0 8 0ZM8.5 14.975V13.5H7.5V14.975C4.0335 14.7234 1.27656 11.9665 1.025 8.5H2.5V7.5H1.025C1.27656 4.0335 4.0335 1.27656 7.5 1.025V2.5H8.5V1.025C11.9665 1.27656 14.7234 4.0335 14.975 7.5H13.5V8.5H14.975C14.7234 11.9665 11.9665 14.7234 8.5 14.975Z" fill="black"/>
<path d="M8.50019 7.795V4.5H7.50019V8C7.49941 8.13291 7.5516 8.26062 7.64519 8.355L10.1452 10.855L10.8502 10.15L8.50019 7.795Z" fill="black"/>
</svg>
