<svg width="16" height="16" viewBox="0 0 16 16" fill="none" xmlns="http://www.w3.org/2000/svg">
<path d="M14.9993 8.7874C14.9993 7.42607 12.6126 6.69466 10.3763 6.67367V5.80227C11.4472 5.45232 12.2066 4.87839 12.2066 4.10849V2.09974C12.2066 0.727909 9.79191 0 7.52069 0C5.24948 0 2.83478 0.741907 2.83478 2.09974V3.93351C1.67292 4.32546 1.00101 4.93088 1.00101 5.6273V7.63604C1.00101 8.99737 3.37021 9.73578 5.62043 9.73578V10.7857C5.62319 10.9797 5.67494 11.1699 5.77091 11.3386C5.67437 11.507 5.62257 11.6974 5.62043 11.8915V13.9003C5.62043 15.2721 8.03513 16 10.3063 16C12.5776 16 14.9993 15.2791 14.9993 13.9073V11.8985C14.9969 11.7044 14.9451 11.5141 14.8488 11.3456C14.943 11.18 14.9948 10.9936 14.9993 10.8031V8.7874ZM14.2818 8.7734C14.2818 9.34733 12.7805 10.2012 10.3098 10.2012C9.2493 10.2293 8.19458 10.0362 7.21273 9.6343C8.92402 9.37883 10.3623 8.69991 10.3623 7.63255V7.37358C12.791 7.37358 14.2818 8.19947 14.2818 8.7734ZM12.77 10.6002V11.888C12.5352 11.9556 12.2969 12.0105 12.0561 12.0525L12.0701 12.049V10.7507C12.3081 10.7087 12.5426 10.6597 12.77 10.6002ZM11.3702 10.8486V12.154C11.1497 12.175 10.9013 12.203 10.6598 12.203L10.6703 12.196V10.8941C10.9013 10.8941 11.1357 10.8696 11.3702 10.8486ZM9.97039 10.8941V12.203C9.71842 12.203 9.48745 12.175 9.26697 12.154L9.27047 12.1505V10.8486C9.49794 10.8696 9.72892 10.8871 9.97039 10.8941ZM8.57056 10.7577V12.056C8.33447 12.0122 8.10088 11.9562 7.87065 11.888V11.8845V10.6072C8.09112 10.6667 8.32209 10.7157 8.57056 10.7577ZM7.4297 8.89589V7.59405C7.67467 7.55206 7.90564 7.50306 8.12962 7.44357V8.72791C7.89939 8.79606 7.66579 8.85214 7.4297 8.89589ZM9.68692 6.77865V7.63954C9.68692 7.90201 9.38596 8.20997 8.84003 8.46894V7.2196C9.13605 7.10643 9.41697 6.95717 9.67642 6.77515L9.68692 6.77865ZM9.27047 5.37183V4.06649C9.50494 4.0245 9.74991 3.9755 9.95989 3.91601H9.97039V5.20385C9.74016 5.272 9.50656 5.32808 9.27047 5.37183ZM11.4997 4.10849C11.4997 4.37095 11.2022 4.67892 10.6528 4.93788V3.69204C10.9525 3.57966 11.237 3.43036 11.4997 3.24759V4.10849ZM7.52069 0.685914C9.98788 0.685914 11.5067 1.50831 11.5067 2.08574C11.5067 2.66317 9.99138 3.48556 7.52069 3.48556C5.05 3.48556 3.53469 2.66317 3.53469 2.08574C3.53469 1.50831 5.0535 0.685914 7.52069 0.685914ZM8.57056 4.15748V5.46282C8.35009 5.48731 8.11912 5.50131 7.87065 5.50831V4.20647C8.10162 4.19948 8.35009 4.18198 8.56706 4.15398L8.57056 4.15748ZM7.17074 4.20647V5.50831C6.92927 5.50831 6.69829 5.48381 6.47082 5.46282V4.15398C6.70411 4.17966 6.93745 4.19716 7.17074 4.20647ZM5.77091 4.06584V5.36483C5.53487 5.32104 5.30123 5.26496 5.071 5.19685V3.91601C5.30429 3.9752 5.54786 4.02397 5.77091 4.06584ZM3.53119 3.24409C3.79392 3.42686 4.07839 3.57616 4.37809 3.68854V4.93438C3.83215 4.67192 3.53119 4.36745 3.53119 4.10499V3.24409ZM1.70092 7.63255V6.77515C1.96365 6.95792 2.24812 7.10722 2.54781 7.2196L2.55131 8.46544C2.00538 8.20297 1.70092 7.89501 1.70092 7.63255ZM3.95114 8.89589C3.71505 8.85214 3.48145 8.79606 3.25123 8.72791V7.44357C3.4752 7.50306 3.70617 7.55206 3.95114 7.59405V8.89589ZM5.35096 9.04287C5.10949 9.04287 4.87852 9.01837 4.65105 8.99737V7.68504C4.88202 7.70954 5.11299 7.72353 5.35096 7.73053V9.04287ZM5.70092 7.04462C3.23373 7.04462 1.71492 6.22222 1.71492 5.64479C1.71492 5.29484 2.20136 4.91689 2.97476 4.64392C3.4962 5.69379 5.56794 6.23972 7.52419 6.23972C8.17485 6.23959 8.82406 6.17747 9.46295 6.05424C8.96251 6.53718 7.61868 7.04112 5.69042 7.04112L5.70092 7.04462ZM6.02988 9.03937V7.73403C6.26435 7.73403 6.49532 7.70954 6.72979 7.68854V8.99388C6.50932 9.01837 6.27835 9.03237 6.02988 9.03937ZM7.17074 10.3797H7.16024V11.6255C6.6143 11.3631 6.31334 11.0586 6.31334 10.7962V9.93176C6.57918 10.1165 6.86724 10.267 7.17074 10.3797ZM7.16024 14.7367C6.6143 14.4742 6.31334 14.1697 6.31334 13.9073V13.0464C6.57607 13.2291 6.86054 13.3784 7.16024 13.4908V14.7367ZM8.56006 15.1671C8.32397 15.1234 8.09038 15.0673 7.86015 14.9991V13.7148C8.08412 13.7743 8.31509 13.8233 8.56006 13.8653V15.1671ZM9.95989 15.3141C9.71842 15.3141 9.48745 15.2896 9.25997 15.2686V13.9528C9.49094 13.9773 9.72192 13.9913 9.95989 13.9983V15.3141ZM6.33084 11.944C7.21273 12.5739 8.78053 12.9064 10.3098 12.9064C11.8392 12.9064 13.407 12.5564 14.2888 11.944C14.2154 12.5284 12.7175 13.3123 10.3098 13.3123C7.90214 13.3123 6.40783 12.5319 6.33084 11.944ZM11.3702 15.2616C11.1497 15.2826 10.9188 15.3001 10.6703 15.3071V14.0052C10.9013 14.0052 11.1357 13.9808 11.3702 13.9598V15.2616ZM12.77 14.9956C12.5399 15.0639 12.3062 15.1199 12.0701 15.1636V13.8653C12.3081 13.8233 12.5426 13.7743 12.77 13.7148V14.9956ZM14.2993 13.9073C14.2993 14.1697 13.9984 14.4777 13.4524 14.7367V13.4908C13.7521 13.3784 14.0366 13.2291 14.2993 13.0464V13.9073ZM14.2993 10.8031C14.2993 11.0656 13.9984 11.3736 13.4524 11.6325V10.3797C13.7523 10.2662 14.0368 10.1157 14.2993 9.93176V10.8031Z" fill="black"/>
</svg>
