<svg width="14" height="16" viewBox="0 0 14 16" fill="none" xmlns="http://www.w3.org/2000/svg">
<path d="M13.9992 8.7874C13.9992 7.42607 11.6125 6.69466 9.3763 6.67367V5.80227C10.4472 5.45232 11.2066 4.87839 11.2066 4.10849V2.09974C11.2066 0.727909 8.79188 0 6.52066 0C4.24944 0 1.83475 0.741907 1.83475 2.09974V3.93351C0.672893 4.32546 0.000976562 4.93088 0.000976562 5.6273V7.63604C0.000976562 8.99737 2.37018 9.73578 4.6204 9.73578V10.7857C4.62315 10.9797 4.6749 11.1699 4.77088 11.3386C4.67434 11.507 4.62254 11.6974 4.6204 11.8915V13.9003C4.6204 15.2721 7.0351 16 9.30631 16C11.5775 16 13.9992 15.2791 13.9992 13.9073V11.8985C13.9969 11.7044 13.9451 11.5141 13.8487 11.3456C13.943 11.18 13.9947 10.9936 13.9992 10.8031V8.7874ZM13.2818 8.7734C13.2818 9.34733 11.7805 10.2012 9.30981 10.2012C8.24927 10.2293 7.19455 10.0362 6.2127 9.6343C7.92399 9.37883 9.36231 8.69991 9.36231 7.63255V7.37358C11.791 7.37358 13.2818 8.19947 13.2818 8.7734ZM11.77 10.6002V11.888C11.5351 11.9556 11.2968 12.0105 11.0561 12.0525L11.0701 12.049V10.7507C11.3081 10.7087 11.5425 10.6597 11.77 10.6002ZM10.3702 10.8486V12.154C10.1497 12.175 9.90124 12.203 9.65977 12.203L9.67027 12.196V10.8941C9.90124 10.8941 10.1357 10.8696 10.3702 10.8486ZM8.97036 10.8941V12.203C8.71839 12.203 8.48742 12.175 8.26694 12.154L8.27044 12.1505V10.8486C8.49791 10.8696 8.72888 10.8871 8.97036 10.8941ZM7.57053 10.7577V12.056C7.33444 12.0122 7.10084 11.9562 6.87062 11.888V11.8845V10.6072C7.09109 10.6667 7.32206 10.7157 7.57053 10.7577ZM6.42967 8.89589V7.59405C6.67464 7.55206 6.90561 7.50306 7.12958 7.44357V8.72791C6.89936 8.79606 6.66576 8.85214 6.42967 8.89589ZM8.68689 6.77865V7.63954C8.68689 7.90201 8.38593 8.20997 7.84 8.46894V7.2196C8.13602 7.10643 8.41694 6.95717 8.67639 6.77515L8.68689 6.77865ZM8.27044 5.37183V4.06649C8.50491 4.0245 8.74988 3.9755 8.95986 3.91601H8.97036V5.20385C8.74013 5.272 8.50653 5.32808 8.27044 5.37183ZM10.4997 4.10849C10.4997 4.37095 10.2022 4.67892 9.65277 4.93788V3.69204C9.95246 3.57966 10.2369 3.43036 10.4997 3.24759V4.10849ZM6.52066 0.685914C8.98785 0.685914 10.5067 1.50831 10.5067 2.08574C10.5067 2.66317 8.99135 3.48556 6.52066 3.48556C4.04997 3.48556 2.53466 2.66317 2.53466 2.08574C2.53466 1.50831 4.05347 0.685914 6.52066 0.685914ZM7.57053 4.15748V5.46282C7.35006 5.48731 7.11909 5.50131 6.87062 5.50831V4.20647C7.10159 4.19948 7.35006 4.18198 7.56703 4.15398L7.57053 4.15748ZM6.1707 4.20647V5.50831C5.92923 5.50831 5.69826 5.48381 5.47079 5.46282V4.15398C5.70408 4.17966 5.93742 4.19716 6.1707 4.20647ZM4.77088 4.06584V5.36483C4.53483 5.32104 4.3012 5.26496 4.07097 5.19685V3.91601C4.30426 3.9752 4.54783 4.02397 4.77088 4.06584ZM2.53116 3.24409C2.79389 3.42686 3.07836 3.57616 3.37805 3.68854V4.93438C2.83212 4.67192 2.53116 4.36745 2.53116 4.10499V3.24409ZM0.700889 7.63255V6.77515C0.963619 6.95792 1.24809 7.10722 1.54778 7.2196L1.55128 8.46544C1.00535 8.20297 0.700889 7.89501 0.700889 7.63255ZM2.95111 8.89589C2.71502 8.85214 2.48142 8.79606 2.2512 8.72791V7.44357C2.47517 7.50306 2.70614 7.55206 2.95111 7.59405V8.89589ZM4.35093 9.04287C4.10946 9.04287 3.87849 9.01837 3.65102 8.99737V7.68504C3.88199 7.70954 4.11296 7.72353 4.35093 7.73053V9.04287ZM4.70089 7.04462C2.2337 7.04462 0.714887 6.22222 0.714887 5.64479C0.714887 5.29484 1.20133 4.91689 1.97473 4.64392C2.49616 5.69379 4.56791 6.23972 6.52416 6.23972C7.17482 6.23959 7.82403 6.17747 8.46292 6.05424C7.96248 6.53718 6.61865 7.04112 4.69039 7.04112L4.70089 7.04462ZM5.02985 9.03937V7.73403C5.26432 7.73403 5.49529 7.70954 5.72976 7.68854V8.99388C5.50929 9.01837 5.27832 9.03237 5.02985 9.03937ZM6.1707 10.3797H6.16021V11.6255C5.61427 11.3631 5.31331 11.0586 5.31331 10.7962V9.93176C5.57915 10.1165 5.86721 10.267 6.1707 10.3797ZM6.16021 14.7367C5.61427 14.4742 5.31331 14.1697 5.31331 13.9073V13.0464C5.57604 13.2291 5.86051 13.3784 6.16021 13.4908V14.7367ZM7.56003 15.1671C7.32394 15.1234 7.09035 15.0673 6.86012 14.9991V13.7148C7.08409 13.7743 7.31506 13.8233 7.56003 13.8653V15.1671ZM8.95986 15.3141C8.71839 15.3141 8.48742 15.2896 8.25994 15.2686V13.9528C8.49091 13.9773 8.72189 13.9913 8.95986 13.9983V15.3141ZM5.33081 11.944C6.2127 12.5739 7.7805 12.9064 9.30981 12.9064C10.8391 12.9064 12.4069 12.5564 13.2888 11.944C13.2153 12.5284 11.7175 13.3123 9.30981 13.3123C6.90211 13.3123 5.4078 12.5319 5.33081 11.944ZM10.3702 15.2616C10.1497 15.2826 9.91874 15.3001 9.67027 15.3071V14.0052C9.90124 14.0052 10.1357 13.9808 10.3702 13.9598V15.2616ZM11.77 14.9956C11.5398 15.0639 11.3062 15.1199 11.0701 15.1636V13.8653C11.3081 13.8233 11.5425 13.7743 11.77 13.7148V14.9956ZM13.2993 13.9073C13.2993 14.1697 12.9984 14.4777 12.4524 14.7367V13.4908C12.7521 13.3784 13.0366 13.2291 13.2993 13.0464V13.9073ZM13.2993 10.8031C13.2993 11.0656 12.9984 11.3736 12.4524 11.6325V10.3797C12.7523 10.2662 13.0368 10.1157 13.2993 9.93176V10.8031Z" fill="#519A26"/>
</svg>
