<svg width="48" height="48" viewBox="0 0 48 48" fill="none" xmlns="http://www.w3.org/2000/svg">
<path d="M5 2H35C35.7957 2 36.5587 2.31607 37.1213 2.87868C37.6839 3.44129 38 4.20435 38 5V6H40V5C40 3.67392 39.4732 2.40215 38.5355 1.46447C37.5979 0.526784 36.3261 0 35 0L5 0C3.67392 0 2.40215 0.526784 1.46447 1.46447C0.526784 2.40215 0 3.67392 0 5L0 27C0 28.3261 0.526784 29.5979 1.46447 30.5355C2.40215 31.4732 3.67392 32 5 32V30C4.20435 30 3.44129 29.6839 2.87868 29.1213C2.31607 28.5587 2 27.7956 2 27V5C2 4.20435 2.31607 3.44129 2.87868 2.87868C3.44129 2.31607 4.20435 2 5 2Z" fill="black"/>
<path d="M43 9H13C11.6739 9 10.4021 9.52678 9.46447 10.4645C8.52678 11.4021 8 12.6739 8 14V36C8 36.6566 8.12933 37.3068 8.3806 37.9134C8.63188 38.52 9.00017 39.0712 9.46447 39.5355C9.92876 39.9998 10.48 40.3681 11.0866 40.6194C11.6932 40.8707 12.3434 41 13 41H29.59L36.3 47.71C36.4404 47.8476 36.6182 47.9408 36.8113 47.9779C37.0043 48.015 37.204 47.9944 37.3854 47.9186C37.5668 47.8429 37.7218 47.7153 37.8311 47.5519C37.9405 47.3886 37.9992 47.1966 38 47V41H43C43.6566 41 44.3068 40.8707 44.9134 40.6194C45.52 40.3681 46.0712 39.9998 46.5355 39.5355C46.9998 39.0712 47.3681 38.52 47.6194 37.9134C47.8707 37.3068 48 36.6566 48 36V14C48 13.3434 47.8707 12.6932 47.6194 12.0866C47.3681 11.48 46.9998 10.9288 46.5355 10.4645C46.0712 10.0002 45.52 9.63188 44.9134 9.3806C44.3068 9.12933 43.6566 9 43 9ZM46 36C46 36.7956 45.6839 37.5587 45.1213 38.1213C44.5587 38.6839 43.7957 39 43 39H37C36.7348 39 36.4804 39.1054 36.2929 39.2929C36.1054 39.4804 36 39.7348 36 40V44.59L30.71 39.3C30.6174 39.2055 30.5069 39.1303 30.3851 39.0788C30.2632 39.0273 30.1323 39.0005 30 39H13C12.2044 39 11.4413 38.6839 10.8787 38.1213C10.3161 37.5587 10 36.7956 10 36V14C10 13.2044 10.3161 12.4413 10.8787 11.8787C11.4413 11.3161 12.2044 11 13 11H43C43.7957 11 44.5587 11.3161 45.1213 11.8787C45.6839 12.4413 46 13.2044 46 14V36Z" fill="black"/>
<path d="M30 17H16V19H30V17Z" fill="black"/>
<path d="M40 24H16V26H40V24Z" fill="black"/>
<path d="M40 31H16V33H40V31Z" fill="black"/>
<path d="M34 17H32V19H34V17Z" fill="black"/>
</svg>
