<svg width="33" height="32" viewBox="0 0 33 32" fill="none" xmlns="http://www.w3.org/2000/svg">
<path d="M28.7039 4.56795L27.3174 4.33328V4.16261C27.3174 3.73827 27.1087 3.3313 26.7373 3.03124C26.3658 2.73118 25.862 2.56261 25.3367 2.56261H17.9288L10.7124 1.20795C10.4574 1.15903 10.193 1.15147 9.93433 1.18571C9.67571 1.21995 9.42807 1.29531 9.20576 1.40742C8.98345 1.51954 8.7909 1.66617 8.63925 1.83883C8.48761 2.01149 8.37989 2.20675 8.32233 2.41328L8.28272 2.55728H6.85C6.32468 2.55728 5.82088 2.72585 5.44942 3.02591C5.07796 3.32597 4.86928 3.73293 4.86928 4.15728V14.4986L1.99064 24.5999C1.93106 24.8055 1.92245 25.0186 1.96531 25.2269C2.00817 25.4352 2.10165 25.6346 2.24036 25.8136C2.37907 25.9926 2.56027 26.1476 2.77351 26.2698C2.98674 26.3919 3.2278 26.4788 3.48278 26.5253L4.86928 26.7866V26.9306C4.86928 27.355 5.07796 27.7619 5.44942 28.062C5.82088 28.362 6.32468 28.5306 6.85 28.5306H14.3239L14.3965 28.5573L21.4743 29.8799C21.7293 29.9289 21.9938 29.9364 22.2524 29.9022C22.511 29.8679 22.7586 29.7926 22.9809 29.6805C23.2033 29.5684 23.3958 29.4217 23.5475 29.2491C23.6991 29.0764 23.8068 28.8811 23.8644 28.6746L23.904 28.5306H25.3367C25.862 28.5306 26.3658 28.362 26.7373 28.062C27.1087 27.7619 27.3174 27.355 27.3174 26.9306V16.5679L30.1961 6.49328C30.2556 6.28768 30.2643 6.07458 30.2214 5.86628C30.1785 5.65798 30.0851 5.45859 29.9463 5.27961C29.8076 5.10063 29.6264 4.9456 29.4132 4.82346C29.2 4.70131 28.9589 4.61447 28.7039 4.56795ZM4.86928 25.6666L3.77989 25.4586C3.69403 25.4435 3.61276 25.4148 3.54085 25.374C3.46894 25.3332 3.40783 25.2812 3.36109 25.2211C3.31436 25.161 3.28295 25.094 3.2687 25.024C3.25445 24.9539 3.25765 24.8823 3.2781 24.8133L4.86928 19.2666V25.6666ZM10.4153 2.24795L12.0593 2.55728H9.66262C9.72358 2.44281 9.83224 2.3492 9.96973 2.2927C10.1072 2.23619 10.2649 2.22036 10.4153 2.24795ZM21.7714 28.8186L20.134 28.5093H22.5241C22.4631 28.6237 22.3545 28.7174 22.217 28.7739C22.0795 28.8304 21.9218 28.8462 21.7714 28.8186ZM25.9969 26.9039C25.9969 27.0454 25.9274 27.1811 25.8036 27.2811C25.6797 27.3811 25.5118 27.4373 25.3367 27.4373H6.85C6.67489 27.4373 6.50696 27.3811 6.38314 27.2811C6.25932 27.1811 6.18976 27.0454 6.18976 26.9039V4.16261C6.18976 4.02116 6.25932 3.88551 6.38314 3.78549C6.50696 3.68547 6.67489 3.62928 6.85 3.62928H25.3367C25.5118 3.62928 25.6797 3.68547 25.8036 3.78549C25.9274 3.88551 25.9969 4.02116 25.9969 4.16261V26.9039ZM28.9086 6.25328L27.3174 11.8266V5.39995L28.4068 5.60261C28.4934 5.61765 28.5753 5.64659 28.6477 5.68772C28.7202 5.72885 28.7816 5.78133 28.8284 5.84203C28.8753 5.90274 28.9065 5.97043 28.9202 6.04108C28.934 6.11173 28.9301 6.18389 28.9086 6.25328Z" fill="#333333"/>
<path d="M22.6957 24.5093H10.1512V20.1733C10.1512 20.0319 10.0816 19.8962 9.95779 19.7962C9.83397 19.6962 9.66603 19.64 9.49093 19.64C9.31582 19.64 9.14789 19.6962 9.02407 19.7962C8.90025 19.8962 8.83069 20.0319 8.83069 20.1733V25.0427C8.83069 25.1841 8.90025 25.3198 9.02407 25.4198C9.14789 25.5198 9.31582 25.576 9.49093 25.576H22.6957C22.8708 25.576 23.0388 25.5198 23.1626 25.4198C23.2864 25.3198 23.356 25.1841 23.356 25.0427C23.356 24.9012 23.2864 24.7656 23.1626 24.6655C23.0388 24.5655 22.8708 24.5093 22.6957 24.5093Z" fill="#333333"/>
<path d="M11.6896 10.8506C12.4484 10.8506 13.1762 10.6074 13.7134 10.1745C14.2506 9.74156 14.5532 9.15418 14.555 8.54122C14.551 8.11214 14.3977 7.69262 14.1126 7.33055L15.3143 6.36522C15.4386 6.26479 15.5084 6.12858 15.5084 5.98655C15.5084 5.84452 15.4386 5.70831 15.3143 5.60788C15.1899 5.50746 15.0213 5.45103 14.8455 5.45103C14.6697 5.45103 14.5011 5.50746 14.3767 5.60788L11.683 7.78388L10.1842 6.57322C10.0605 6.47388 9.89317 6.41813 9.71874 6.41813C9.54432 6.41813 9.37698 6.47388 9.25327 6.57322C9.1303 6.67314 9.06128 6.80832 9.06128 6.94922C9.06128 7.09012 9.1303 7.22529 9.25327 7.32522C8.97364 7.69038 8.82719 8.11185 8.83072 8.54122C8.83072 9.15369 9.13192 9.74108 9.66805 10.1742C10.2042 10.6072 10.9313 10.8506 11.6896 10.8506ZM10.2436 8.12522L11.2274 8.91988C11.3504 9.01841 11.5163 9.07396 11.6896 9.07455C11.8559 9.06987 12.0139 9.01463 12.1319 8.91988L13.1157 8.12522C13.173 8.25917 13.2042 8.39952 13.2081 8.54122C13.1825 8.85741 13.0089 9.1539 12.7226 9.37052C12.4363 9.58714 12.0587 9.70768 11.6664 9.70768C11.2742 9.70768 10.8966 9.58714 10.6103 9.37052C10.324 9.1539 10.1504 8.85741 10.1248 8.54122C10.1339 8.39799 10.1741 8.25717 10.2436 8.12522Z" fill="#333333"/>
<path d="M11.6895 16.6962C12.2565 16.6973 12.8112 16.5624 13.2833 16.3087C13.7554 16.055 14.1237 15.6939 14.3415 15.271C14.5594 14.8482 14.6171 14.3826 14.5073 13.9332C14.3975 13.4839 14.1251 13.071 13.7246 12.7467C13.3242 12.4225 12.8136 12.2015 12.2576 12.1117C11.7016 12.022 11.1251 12.0675 10.6011 12.2426C10.0771 12.4176 9.62922 12.7143 9.31406 13.095C8.99891 13.4758 8.83069 13.9235 8.83069 14.3815C8.83242 14.9941 9.13397 15.5812 9.66954 16.0148C10.2051 16.4485 10.9312 16.6934 11.6895 16.6962ZM11.6895 13.1389C11.9956 13.1378 12.2953 13.2103 12.5503 13.347C12.8054 13.4837 13.0045 13.6786 13.1222 13.9068C13.24 14.1351 13.2711 14.3864 13.2117 14.629C13.1523 14.8716 13.005 15.0945 12.7886 15.2693C12.5721 15.4442 12.2962 15.5632 11.9959 15.6111C11.6956 15.6591 11.3844 15.634 11.1018 15.5388C10.8193 15.4437 10.578 15.2829 10.4088 15.0769C10.2395 14.8708 10.1499 14.6288 10.1512 14.3815C10.1529 14.0524 10.3155 13.7371 10.6037 13.5044C10.8918 13.2717 11.2821 13.1403 11.6895 13.1389Z" fill="#333333"/>
<path d="M22.6957 17.8696H20.1076C19.9325 17.8696 19.7646 17.9258 19.6407 18.0258C19.5169 18.1258 19.4474 18.2615 19.4474 18.4029C19.4474 18.5444 19.5169 18.6801 19.6407 18.7801C19.7646 18.8801 19.9325 18.9363 20.1076 18.9363H21.1046L17.4138 21.9336L14.8191 19.8003C14.6954 19.7009 14.528 19.6452 14.3536 19.6452C14.1792 19.6452 14.0118 19.7009 13.8881 19.8003L11.5245 21.7149C11.4554 21.7628 11.3992 21.8216 11.3596 21.8878C11.32 21.9539 11.2977 22.026 11.2942 22.0995C11.2907 22.1729 11.306 22.2461 11.3392 22.3146C11.3724 22.383 11.4227 22.4452 11.4871 22.4972C11.5514 22.5491 11.6284 22.5898 11.7131 22.6166C11.7978 22.6434 11.8885 22.6558 11.9794 22.653C12.0704 22.6501 12.1596 22.6321 12.2415 22.6001C12.3234 22.5681 12.3962 22.5228 12.4554 22.4669L14.3569 20.9309L16.9451 23.0269C17.0064 23.0769 17.0795 23.1166 17.1599 23.1437C17.2404 23.1708 17.3267 23.1847 17.4138 23.1847C17.501 23.1847 17.5873 23.1708 17.6677 23.1437C17.7482 23.1166 17.8212 23.0769 17.8826 23.0269L22.0355 19.6936V20.4936C22.0355 20.6351 22.1051 20.7707 22.2289 20.8707C22.3527 20.9708 22.5206 21.0269 22.6957 21.0269C22.8708 21.0269 23.0388 20.9708 23.1626 20.8707C23.2864 20.7707 23.356 20.6351 23.356 20.4936V18.4029C23.356 18.2615 23.2864 18.1258 23.1626 18.0258C23.0388 17.9258 22.8708 17.8696 22.6957 17.8696Z" fill="#333333"/>
<path d="M16.9715 13.8481H19.8039C19.979 13.8481 20.147 13.7919 20.2708 13.6919C20.3946 13.5919 20.4642 13.4562 20.4642 13.3148C20.4642 13.1733 20.3946 13.0376 20.2708 12.9376C20.147 12.8376 19.979 12.7814 19.8039 12.7814H16.9715C16.7964 12.7814 16.6284 12.8376 16.5046 12.9376C16.3808 13.0376 16.3112 13.1733 16.3112 13.3148C16.3112 13.4562 16.3808 13.5919 16.5046 13.6919C16.6284 13.7919 16.7964 13.8481 16.9715 13.8481Z" fill="#333333"/>
<path d="M16.9715 15.9864H22.4053C22.5804 15.9864 22.7483 15.9302 22.8721 15.8302C22.9959 15.7302 23.0655 15.5946 23.0655 15.4531C23.0655 15.3117 22.9959 15.176 22.8721 15.076C22.7483 14.976 22.5804 14.9198 22.4053 14.9198H16.9715C16.7964 14.9198 16.6284 14.976 16.5046 15.076C16.3808 15.176 16.3112 15.3117 16.3112 15.4531C16.3112 15.5946 16.3808 15.7302 16.5046 15.8302C16.6284 15.9302 16.7964 15.9864 16.9715 15.9864Z" fill="#333333"/>
<path d="M16.9715 8.00783H19.8039C19.979 8.00783 20.147 7.95164 20.2708 7.85162C20.3946 7.7516 20.4642 7.61595 20.4642 7.4745C20.4642 7.33305 20.3946 7.19739 20.2708 7.09737C20.147 6.99735 19.979 6.94116 19.8039 6.94116H16.9715C16.7964 6.94116 16.6284 6.99735 16.5046 7.09737C16.3808 7.19739 16.3112 7.33305 16.3112 7.4745C16.3112 7.61595 16.3808 7.7516 16.5046 7.85162C16.6284 7.95164 16.7964 8.00783 16.9715 8.00783Z" fill="#333333"/>
<path d="M16.9715 10.1416H22.4053C22.5804 10.1416 22.7483 10.0854 22.8721 9.98535C22.9959 9.88533 23.0655 9.74967 23.0655 9.60822C23.0655 9.46677 22.9959 9.33112 22.8721 9.2311C22.7483 9.13108 22.5804 9.07489 22.4053 9.07489H16.9715C16.7964 9.07489 16.6284 9.13108 16.5046 9.2311C16.3808 9.33112 16.3112 9.46677 16.3112 9.60822C16.3112 9.74967 16.3808 9.88533 16.5046 9.98535C16.6284 10.0854 16.7964 10.1416 16.9715 10.1416Z" fill="#333333"/>
</svg>
