<svg width="25" height="24" viewBox="0 0 25 24" fill="none" xmlns="http://www.w3.org/2000/svg">
<path d="M9.22058 10.2857H7.90335V14.5714H9.22058C9.94801 14.5714 10.5378 13.9957 10.5378 13.2857V11.5714C10.5378 10.8614 9.94801 10.2857 9.22058 10.2857Z" fill="#fff"/>
<path d="M6.14705 3.85715V0.550365L2.00134 4.28572H5.70797C5.95045 4.28572 6.14705 4.09382 6.14705 3.85715Z" fill="#fff"/>
<path d="M13.6113 10.2857H15.3677C15.6101 10.2857 15.8067 10.4776 15.8067 10.7143V14.1429C15.8067 14.3795 15.6101 14.5714 15.3677 14.5714H13.6113C13.3689 14.5714 13.1723 14.3795 13.1723 14.1429V10.7143C13.1723 10.4776 13.3689 10.2857 13.6113 10.2857Z" fill="#fff"/>
<path d="M1.31723 23.5714C1.31723 23.8081 1.51383 24 1.75631 24H20.1975C20.44 24 20.6366 23.8081 20.6366 23.5714V17.5714H6.14706C5.41963 17.5714 4.82983 16.9957 4.82983 16.2857V8.57143C4.82983 7.8614 5.41963 7.28571 6.14706 7.28571H20.6366V0.428571C20.6366 0.191895 20.44 0 20.1975 0H7.02521V3.85714C7.02521 4.56717 6.43542 5.14286 5.70799 5.14286H1.31723V23.5714Z" fill="#fff"/>
<path d="M23.271 16.2857V8.57143C23.271 8.33475 23.0744 8.14286 22.8319 8.14286H6.14705C5.90458 8.14286 5.70798 8.33475 5.70798 8.57143V16.2857C5.70798 16.5224 5.90458 16.7143 6.14705 16.7143H22.8319C23.0744 16.7143 23.271 16.5224 23.271 16.2857ZM11.416 13.2857C11.4145 14.4687 10.4325 15.4271 9.22058 15.4286H7.46428C7.2218 15.4286 7.0252 15.2367 7.0252 15V9.85714C7.0252 9.62047 7.2218 9.42857 7.46428 9.42857H9.22058C10.4325 9.43004 11.4145 10.3885 11.416 11.5714V13.2857ZM16.6849 14.1429C16.6849 14.8529 16.0951 15.4286 15.3676 15.4286H13.6113C12.8839 15.4286 12.2941 14.8529 12.2941 14.1429V10.7143C12.2941 10.0043 12.8839 9.42857 13.6113 9.42857H15.3676C16.0951 9.42857 16.6849 10.0043 16.6849 10.7143V14.1429ZM18.8802 14.5714H20.6366C20.879 14.5714 21.0756 14.3795 21.0756 14.1429C21.0756 13.9062 21.2722 13.7143 21.5147 13.7143C21.7572 13.7143 21.9538 13.9062 21.9538 14.1429C21.9538 14.8529 21.364 15.4286 20.6366 15.4286H18.8802C18.1528 15.4286 17.563 14.8529 17.563 14.1429V10.7143C17.563 10.0043 18.1528 9.42857 18.8802 9.42857H20.6366C21.364 9.42857 21.9538 10.0043 21.9538 10.7143C21.9538 10.951 21.7572 11.1429 21.5147 11.1429C21.2722 11.1429 21.0756 10.951 21.0756 10.7143C21.0756 10.4776 20.879 10.2857 20.6366 10.2857H18.8802C18.6378 10.2857 18.4412 10.4776 18.4412 10.7143V14.1429C18.4412 14.3795 18.6378 14.5714 18.8802 14.5714Z" fill="#fff"/>
</svg>
