<svg width="32" height="32" viewBox="0 0 32 32" fill="none" xmlns="http://www.w3.org/2000/svg">
<path d="M14 1C13.79 0.999891 13.5854 1.06577 13.415 1.18847C13.2447 1.31116 13.1172 1.48436 13.0508 1.68352L12.0352 4.73039C11.6251 4.87477 11.224 5.04029 10.832 5.22844L7.95898 3.79289C7.77124 3.69907 7.55874 3.66674 7.35158 3.70039C7.14441 3.73403 6.95309 3.83202 6.80469 3.98044L3.97656 6.80851C3.82814 6.9569 3.73017 7.14829 3.69651 7.35546C3.66286 7.56263 3.69524 7.77511 3.78906 7.96285L5.22266 10.83C5.03408 11.224 4.8672 11.6269 4.72266 12.039L1.67969 13.0546C1.48053 13.1211 1.30733 13.2485 1.18464 13.4189C1.06195 13.5892 0.995982 13.7938 0.996094 14.0038V18.0038C0.995982 18.2138 1.06195 18.4185 1.18464 18.5889C1.30733 18.7592 1.48053 18.8867 1.67969 18.9531L4.73242 19.9706C4.8763 20.3782 5.04152 20.7762 5.22852 21.1659L3.78906 24.0449C3.69525 24.2326 3.66288 24.4451 3.69653 24.6523C3.73018 24.8594 3.82815 25.0507 3.97656 25.1991L6.80469 28.0292C6.95309 28.1777 7.14441 28.2755 7.35158 28.3092C7.55874 28.3428 7.77124 28.3105 7.95898 28.2167L10.832 26.7792C11.2236 26.9663 11.6237 27.1314 12.0332 27.2753L13.0508 30.3261C13.1172 30.5252 13.2447 30.6984 13.415 30.8211C13.5854 30.9438 13.79 31.0098 14 31.0097H18C18.2099 31.0098 18.4146 30.9438 18.585 30.8211C18.7553 30.6984 18.8828 30.5252 18.9492 30.3261L19.9668 27.2694C20.3733 27.1261 20.7714 26.9614 21.1602 26.7753L24.041 28.2167C24.2288 28.3105 24.4413 28.3428 24.6484 28.3092C24.8556 28.2755 25.0469 28.1777 25.1953 28.0292L28.0234 25.1991C28.1718 25.0507 28.2698 24.8594 28.3035 24.6523C28.3371 24.4451 28.3047 24.2326 28.2109 24.0449L26.7754 21.1738C26.9636 20.7812 27.129 20.3794 27.2734 19.9687L30.3203 18.9531C30.5195 18.8867 30.6927 18.7592 30.8154 18.5889C30.938 18.4185 31.004 18.2138 31.0039 18.0038V14.0039C31.004 13.7939 30.938 13.5892 30.8154 13.4189C30.6927 13.2485 30.5195 13.1211 30.3203 13.0546L27.2715 12.039C27.1271 11.6296 26.9613 11.2292 26.7734 10.8379L28.2109 7.96285C28.3048 7.77511 28.3371 7.56263 28.3035 7.35546C28.2698 7.14829 28.1719 6.9569 28.0234 6.80851L25.1953 3.98044C25.0469 3.83202 24.8556 3.73403 24.6484 3.70039C24.4413 3.66674 24.2288 3.69918 24.041 3.79301L21.1758 5.22463C20.7805 5.03566 20.3764 4.86934 19.9629 4.72462L18.9492 1.68363C18.8828 1.48447 18.7554 1.31117 18.585 1.18847C18.4146 1.06577 18.21 0.999893 18 1H14ZM14.7207 2.99992H17.2793L18.207 5.78508C18.2579 5.93769 18.3448 6.07588 18.4604 6.18774C18.576 6.2996 18.7169 6.38185 18.8711 6.42765C19.5219 6.62116 20.1517 6.87999 20.75 7.20113C20.8909 7.2771 21.048 7.31811 21.2081 7.32074C21.3682 7.32337 21.5266 7.28754 21.6699 7.21624L24.291 5.90573L26.0996 7.71429L24.7832 10.3471C24.7114 10.4906 24.6751 10.6493 24.6775 10.8097C24.6799 10.9702 24.7208 11.1277 24.7969 11.269C25.1173 11.8633 25.3779 12.4876 25.5723 13.1342C25.6182 13.2879 25.7003 13.4282 25.8118 13.5434C25.9233 13.6587 26.0609 13.7455 26.2129 13.7964L29.0039 14.726V17.2846L26.2149 18.2143C26.0628 18.2653 25.9253 18.3519 25.8138 18.4672C25.7023 18.5824 25.6201 18.7228 25.5742 18.8764C25.3801 19.5242 25.1194 20.1501 24.7988 20.7455C24.7228 20.8868 24.6818 21.0444 24.6794 21.2048C24.677 21.3653 24.7133 21.524 24.7852 21.6674L26.0996 24.2963L24.291 26.1068L21.6523 24.7865C21.5087 24.7149 21.35 24.6789 21.1896 24.6816C21.0291 24.6842 20.8716 24.7253 20.7305 24.8016C20.1383 25.1202 19.5171 25.3795 18.873 25.5732C18.7194 25.619 18.5791 25.7012 18.4638 25.8127C18.3486 25.9242 18.2619 26.0617 18.2109 26.2138L17.2793 29.0127H14.7207L13.7891 26.2177C13.7384 26.0653 13.6518 25.9273 13.5365 25.8155C13.4213 25.7036 13.2808 25.6212 13.127 25.5751C12.4805 25.382 11.8542 25.1247 11.2598 24.8056C11.1188 24.7296 10.9617 24.6886 10.8016 24.6859C10.6416 24.6833 10.4832 24.7191 10.3398 24.7904L7.70898 26.1068L5.90039 24.2963L7.21875 21.6596C7.29059 21.5161 7.32686 21.3574 7.32447 21.197C7.32209 21.0365 7.28114 20.8791 7.20507 20.7378C6.88562 20.1451 6.62579 19.5211 6.43163 18.8764C6.38547 18.7231 6.3032 18.5832 6.19173 18.4683C6.08025 18.3534 5.94283 18.2669 5.791 18.2162L2.99608 17.2846V14.726L5.78319 13.7964C5.93559 13.7457 6.07355 13.659 6.1854 13.5438C6.29725 13.4285 6.3797 13.2881 6.42577 13.1342C6.61971 12.4852 6.87838 11.8577 7.19921 11.2612C7.27528 11.1199 7.31624 10.9623 7.31862 10.8019C7.32101 10.6414 7.28474 10.4827 7.21289 10.3392L5.90039 7.71429L7.70898 5.90573L10.3398 7.22016C10.4834 7.29179 10.6422 7.32776 10.8026 7.32513C10.9631 7.32249 11.1205 7.28135 11.2617 7.20505C11.8566 6.88455 12.4817 6.62388 13.1289 6.42961C13.2825 6.38372 13.4229 6.30165 13.5381 6.19016C13.6534 6.07867 13.7401 5.94104 13.791 5.789L14.7207 2.99992Z" fill="black"/>
<path d="M15.9966 8.99805C12.1424 8.99805 8.99854 12.1493 8.99854 16.0035C8.99854 19.8576 12.1424 23.0015 15.9966 23.0015C19.8507 23.0015 23.002 19.8576 23.002 16.0035C23.002 12.1493 19.8507 8.99805 15.9966 8.99805ZM15.9966 10.9985C18.7698 10.9985 21.0015 13.2302 21.0015 16.0035C21.0015 18.7767 18.7698 21.001 15.9966 21.001C13.2233 21.001 10.999 18.7767 10.999 16.0035C10.999 13.2302 13.2233 10.9985 15.9966 10.9985Z" fill="black"/>
</svg>
