<svg width="48" height="48" viewBox="0 0 48 48" fill="none" xmlns="http://www.w3.org/2000/svg">
<path d="M46 19H42.32C41.9001 17.455 41.2851 15.9697 40.49 14.58L43.09 12C43.276 11.8143 43.4235 11.5937 43.5241 11.3509C43.6248 11.1081 43.6766 10.8478 43.6766 10.585C43.6766 10.3222 43.6248 10.0619 43.5241 9.81912C43.4235 9.57632 43.276 9.35575 43.09 9.17L38.85 4.91C38.6643 4.72405 38.4437 4.57653 38.2009 4.47588C37.9581 4.37523 37.6978 4.32343 37.435 4.32343C37.1722 4.32343 36.9119 4.37523 36.6691 4.47588C36.4263 4.57653 36.2057 4.72405 36.02 4.91L33.41 7.51C32.0234 6.71583 30.5415 6.10092 29 5.68V2C29 1.46957 28.7893 0.960859 28.4142 0.585786C28.0391 0.210714 27.5304 0 27 0L21 0C20.4696 0 19.9609 0.210714 19.5858 0.585786C19.2107 0.960859 19 1.46957 19 2V5.68C17.4585 6.10092 15.9766 6.71583 14.59 7.51L12 4.91C11.8143 4.72405 11.5937 4.57653 11.3509 4.47588C11.1081 4.37523 10.8478 4.32343 10.585 4.32343C10.3222 4.32343 10.0619 4.37523 9.81912 4.47588C9.57632 4.57653 9.35575 4.72405 9.17 4.91L4.91 9.15C4.72405 9.33575 4.57653 9.55632 4.47588 9.79912C4.37523 10.0419 4.32343 10.3022 4.32343 10.565C4.32343 10.8278 4.37523 11.0881 4.47588 11.3309C4.57653 11.5737 4.72405 11.7943 4.91 11.98L7.52 14.59C6.72217 15.976 6.10388 17.4579 5.68 19H2C1.46957 19 0.960859 19.2107 0.585786 19.5858C0.210714 19.9609 0 20.4696 0 21L0 27C0 27.5304 0.210714 28.0391 0.585786 28.4142C0.960859 28.7893 1.46957 29 2 29H5.68C6.09991 30.545 6.71486 32.0303 7.51 33.42L4.91 36C4.72405 36.1857 4.57653 36.4063 4.47588 36.6491C4.37523 36.8919 4.32343 37.1522 4.32343 37.415C4.32343 37.6778 4.37523 37.9381 4.47588 38.1809C4.57653 38.4237 4.72405 38.6443 4.91 38.83L9.15 43.07C9.33575 43.256 9.55632 43.4035 9.79912 43.5041C10.0419 43.6048 10.3022 43.6566 10.565 43.6566C10.8278 43.6566 11.0881 43.6048 11.3309 43.5041C11.5737 43.4035 11.7943 43.256 11.98 43.07L14.59 40.46C15.9751 41.2646 17.457 41.8896 19 42.32V46C19 46.5304 19.2107 47.0391 19.5858 47.4142C19.9609 47.7893 20.4696 48 21 48H27C27.5304 48 28.0391 47.7893 28.4142 47.4142C28.7893 47.0391 29 46.5304 29 46V42.32C30.5415 41.8991 32.0234 41.2842 33.41 40.49L36 43.09C36.1857 43.276 36.4063 43.4235 36.6491 43.5241C36.8919 43.6248 37.1522 43.6766 37.415 43.6766C37.6778 43.6766 37.9381 43.6248 38.1809 43.5241C38.4237 43.4235 38.6443 43.276 38.83 43.09L43.07 38.85C43.256 38.6643 43.4035 38.4437 43.5041 38.2009C43.6048 37.9581 43.6566 37.6978 43.6566 37.435C43.6566 37.1722 43.6048 36.9119 43.5041 36.6691C43.4035 36.4263 43.256 36.2057 43.07 36.02L40.46 33.41C41.2648 32.025 41.8898 30.543 42.32 29H46C46.5304 29 47.0391 28.7893 47.4142 28.4142C47.7893 28.0391 48 27.5304 48 27V21C48 20.4696 47.7893 19.9609 47.4142 19.5858C47.0391 19.2107 46.5304 19 46 19ZM46 27H41.54C41.3088 26.9944 41.0829 27.069 40.9005 27.2112C40.7182 27.3534 40.5908 27.5544 40.54 27.78C40.1189 29.6292 39.3886 31.394 38.38 33C38.2593 33.1919 38.2074 33.4192 38.2329 33.6445C38.2583 33.8698 38.3595 34.0798 38.52 34.24L41.68 37.4L37.44 41.64L34.28 38.48C34.1123 38.3158 33.8922 38.2157 33.6582 38.1975C33.4242 38.1792 33.1912 38.2438 33 38.38C31.3833 39.4003 29.6045 40.1375 27.74 40.56C27.5144 40.6108 27.3134 40.7382 27.1712 40.9205C27.029 41.1029 26.9543 41.3288 26.96 41.56V46H21V41.54C21.0056 41.3088 20.931 41.0829 20.7888 40.9005C20.6466 40.7182 20.4456 40.5908 20.22 40.54C18.3707 40.1194 16.6058 39.3891 15 38.38C14.8081 38.2593 14.5808 38.2074 14.3555 38.2329C14.1302 38.2583 13.9202 38.3595 13.76 38.52L10.6 41.68L6.32 37.43L9.48 34.27C9.64784 34.1079 9.75371 33.8922 9.77928 33.6603C9.80484 33.4283 9.7485 33.1948 9.62 33C8.60021 31.383 7.86302 29.6043 7.44 27.74C7.3892 27.5144 7.26179 27.3134 7.07946 27.1712C6.89714 27.029 6.67116 26.9543 6.44 26.96H2V21H6.46C6.69116 21.0056 6.91714 20.931 7.09946 20.7888C7.28179 20.6466 7.4092 20.4456 7.46 20.22C7.88111 18.3708 8.61137 16.606 9.62 15C9.7407 14.8081 9.79259 14.5808 9.76715 14.3555C9.74171 14.1302 9.64046 13.9202 9.48 13.76L6.32 10.56L10.56 6.32L13.72 9.48C13.8827 9.65036 14.1003 9.75782 14.3345 9.78343C14.5686 9.80904 14.8043 9.75116 15 9.62C16.6167 8.59969 18.3955 7.86246 20.26 7.44C20.4856 7.3892 20.6866 7.26179 20.8288 7.07946C20.971 6.89714 21.0457 6.67116 21.04 6.44V2H27.04V6.46C27.0344 6.69116 27.109 6.91714 27.2512 7.09946C27.3934 7.28179 27.5944 7.4092 27.82 7.46C29.6554 7.88482 31.4065 8.61498 33 9.62C33.1919 9.7407 33.4192 9.79259 33.6445 9.76715C33.8698 9.74171 34.0798 9.64046 34.24 9.48L37.4 6.32L41.64 10.56L38.48 13.72C38.3158 13.8877 38.2157 14.1078 38.1975 14.3418C38.1792 14.5758 38.2438 14.8088 38.38 15C39.3998 16.617 40.137 18.3957 40.56 20.26C40.6108 20.4856 40.7382 20.6866 40.9205 20.8288C41.1029 20.971 41.3288 21.0457 41.56 21.04H46V27Z" fill="black"/>
<path d="M24 15C22.22 15 20.4799 15.5278 18.9999 16.5168C17.5198 17.5057 16.3663 18.9113 15.6851 20.5558C15.0039 22.2004 14.8257 24.01 15.1729 25.7558C15.5202 27.5016 16.3774 29.1053 17.636 30.364C18.8947 31.6226 20.4984 32.4798 22.2442 32.8271C23.99 33.1743 25.7996 32.9961 27.4442 32.3149C29.0887 31.6337 30.4943 30.4802 31.4832 29.0001C32.4722 27.5201 33 25.78 33 24C33 21.6131 32.0518 19.3239 30.364 17.636C28.6761 15.9482 26.387 15 24 15ZM24 31C22.6155 31 21.2622 30.5895 20.111 29.8203C18.9599 29.0511 18.0627 27.9579 17.5328 26.6788C17.003 25.3997 16.8644 23.9922 17.1345 22.6344C17.4046 21.2765 18.0713 20.0292 19.0503 19.0503C20.0292 18.0713 21.2765 17.4046 22.6344 17.1345C23.9922 16.8644 25.3997 17.003 26.6788 17.5328C27.9579 18.0627 29.0511 18.9599 29.8203 20.111C30.5895 21.2622 31 22.6155 31 24C31 25.8565 30.2625 27.637 28.9498 28.9497C27.637 30.2625 25.8565 31 24 31Z" fill="black"/>
</svg>
