<svg width="20" height="20" viewBox="0 0 20 20" fill="none" xmlns="http://www.w3.org/2000/svg">
<circle cx="10" cy="10" r="9.25" stroke="#D70032" stroke-width="1.5"/>
<path d="M8.408 12.272C8.408 11.7493 8.49333 11.28 8.664 10.864C8.83467 10.448 9.18667 10.0853 9.72 9.776C9.88 9.68 10.0773 9.57334 10.312 9.456C10.5467 9.328 10.776 9.17867 11 9.008C11.224 8.83734 11.4107 8.64 11.56 8.416C11.72 8.18134 11.8 7.91467 11.8 7.616C11.8 7.392 11.7573 7.19467 11.672 7.024C11.5867 6.85334 11.4747 6.70934 11.336 6.592C11.1973 6.47467 11.032 6.38934 10.84 6.336C10.6587 6.272 10.472 6.24 10.28 6.24C10.0453 6.24 9.832 6.28267 9.64 6.368C9.448 6.44267 9.272 6.544 9.112 6.672C8.96267 6.78934 8.824 6.928 8.696 7.088C8.57867 7.23734 8.47733 7.38134 8.392 7.52L7 6.56C7.13867 6.22934 7.32 5.936 7.544 5.68C7.77867 5.424 8.04 5.21067 8.328 5.04C8.62667 4.85867 8.94667 4.72534 9.288 4.64C9.62933 4.544 9.98133 4.496 10.344 4.496C10.7493 4.496 11.1493 4.55467 11.544 4.672C11.9387 4.78934 12.2907 4.976 12.6 5.232C12.92 5.488 13.176 5.81867 13.368 6.224C13.5707 6.61867 13.672 7.09334 13.672 7.648C13.672 7.98934 13.6293 8.29334 13.544 8.56C13.4693 8.816 13.3573 9.05067 13.208 9.264C13.0587 9.47734 12.8827 9.66934 12.68 9.84C12.4773 10.0107 12.248 10.176 11.992 10.336C11.7787 10.464 11.5653 10.5867 11.352 10.704C11.1387 10.8213 10.9413 10.9547 10.76 11.104C10.5893 11.2427 10.4453 11.408 10.328 11.6C10.2213 11.7813 10.168 12.0053 10.168 12.272H8.408ZM8.44 16V13.792H10.216V16H8.44Z" fill="#D70032"/>
</svg>
