<svg width="32" height="32" viewBox="0 0 32 32" fill="none" xmlns="http://www.w3.org/2000/svg">
<circle cx="16" cy="16" r="15.35" stroke="black" stroke-width="1.3"/>
<path d="M18.2857 5.71428H13.7143C12.805 5.71428 11.9329 6.0755 11.2899 6.71848C10.6469 7.36147 10.2857 8.23354 10.2857 9.14285V11.4286H12.5714V9.14285C12.5714 8.83975 12.6918 8.54906 12.9062 8.33473C13.1205 8.1204 13.4112 7.99999 13.7143 7.99999H18.2857C18.5888 7.99999 18.8795 8.1204 19.0938 8.33473C19.3082 8.54906 19.4286 8.83975 19.4286 9.14285V10.48C19.4294 10.6304 19.4006 10.7795 19.3437 10.9187C19.2869 11.058 19.2031 11.1846 19.0971 11.2914L15.8628 14.5257C15.2197 15.1681 14.8579 16.0396 14.8571 16.9486V20.5714H17.1428V16.9486C17.142 16.7982 17.1708 16.6491 17.2277 16.5098C17.2846 16.3706 17.3684 16.2439 17.4743 16.1371L20.7086 12.9028C21.3517 12.2605 21.7135 11.389 21.7143 10.48V9.14285C21.7143 8.23354 21.3531 7.36147 20.7101 6.71848C20.0671 6.0755 19.195 5.71428 18.2857 5.71428Z" fill="black"/>
<path d="M16 27.4286C17.2624 27.4286 18.2858 26.4052 18.2858 25.1429C18.2858 23.8805 17.2624 22.8571 16 22.8571C14.7377 22.8571 13.7143 23.8805 13.7143 25.1429C13.7143 26.4052 14.7377 27.4286 16 27.4286Z" fill="black"/>
</svg>
