<svg width="66" height="64" viewBox="0 0 66 64" fill="none" xmlns="http://www.w3.org/2000/svg">
<path d="M11.8576 44.9124C11.8576 48.1089 14.522 50.7102 17.7975 50.7102C21.073 50.7102 23.7374 48.1089 23.7374 44.9124C23.7374 41.7159 21.073 39.1146 17.7975 39.1146C14.522 39.1146 11.8576 41.7153 11.8576 44.9124ZM21.785 44.9124C21.785 47.0582 19.996 48.8045 17.7975 48.8045C15.5991 48.8045 13.8101 47.0582 13.8101 44.9124C13.8101 42.7666 15.5991 41.0203 17.7975 41.0203C19.996 41.0203 21.785 42.7666 21.785 44.9124Z" fill="#D70032"/>
<path d="M58.715 23.2611C58.3128 22.9111 57.6964 22.9448 57.3365 23.3374L43.1575 38.839L35.858 31.7142C35.4767 31.342 34.8591 31.342 34.4777 31.7142C34.0963 32.0865 34.0963 32.6893 34.4777 33.0615L42.508 40.8991C42.6915 41.0782 42.9394 41.1779 43.1985 41.1779C43.2076 41.1779 43.2167 41.1779 43.2258 41.1773C43.4939 41.1697 43.7477 41.0553 43.9267 40.8597L58.7937 24.6059C59.1523 24.214 59.1172 23.6111 58.715 23.2611Z" fill="#D70032"/>
<path d="M43.5349 43.5607C42.9954 43.5607 42.5587 43.9875 42.5587 44.5135V53.9957H7.99187V9.52918H42.5587V29.4927C42.5587 30.0187 42.9954 30.4456 43.5349 30.4456C44.0745 30.4456 44.5111 30.0187 44.5111 29.4927V8.57633C44.5111 8.05036 44.0745 7.62348 43.5349 7.62348H7.01567C6.47615 7.62348 6.03946 8.05036 6.03946 8.57633V54.9485C6.03946 55.4745 6.47615 55.9014 7.01567 55.9014H43.5349C44.0745 55.9014 44.5111 55.4745 44.5111 54.9485V44.5135C44.5111 43.9875 44.0745 43.5607 43.5349 43.5607Z" fill="black"/>
<path d="M32.1237 20.4712C32.6632 20.4712 33.0999 20.0443 33.0999 19.5183C33.0999 18.9923 32.6632 18.5654 32.1237 18.5654H12.511C11.9715 18.5654 11.5348 18.9923 11.5348 19.5183C11.5348 20.0443 11.9715 20.4712 12.511 20.4712H32.1237Z" fill="black"/>
<path d="M33.3401 27.9949C33.3401 27.4689 32.9034 27.042 32.3639 27.042H12.7564C12.2169 27.042 11.7802 27.4689 11.7802 27.9949C11.7802 28.5209 12.2169 28.9478 12.7564 28.9478H32.3639C32.9034 28.9478 33.3401 28.5209 33.3401 27.9949Z" fill="black"/>
</svg>
