<svg width="66" height="64" viewBox="0 0 66 64" fill="none" xmlns="http://www.w3.org/2000/svg">
<path d="M51.4346 11.0125H13.361C10.682 11.0125 8.50269 13.1613 8.50269 15.803V43.255C8.50269 45.8936 10.6826 48.0399 13.361 48.0399H18.3135V57.7724C18.3135 58.1535 18.545 58.4982 18.9028 58.6502C19.029 58.7038 19.1618 58.73 19.2945 58.73C19.5378 58.73 19.7779 58.6412 19.963 58.474L31.4573 48.0399H51.4346C54.0894 48.0399 56.2484 45.8936 56.2484 43.255V15.803C56.2484 13.1613 54.0887 11.0125 51.4346 11.0125ZM54.2863 43.255C54.2863 44.8376 53.0069 46.1247 51.4346 46.1247L31.0707 46.1253C30.8228 46.1253 30.5841 46.2172 30.4029 46.3813L20.2756 55.5743V47.0823C20.2756 46.5537 19.8367 46.1247 19.2945 46.1247H13.361C11.7638 46.1247 10.4648 44.837 10.4648 43.255V15.803C10.4648 14.2179 11.7638 12.9277 13.361 12.9277H51.4346C53.0069 12.9277 54.2863 14.2179 54.2863 15.803V43.255Z" fill="black"/>
<path d="M36.6236 21.4664C36.621 21.4664 36.6191 21.4664 36.6164 21.4664C34.8041 21.4664 33.1532 22.3116 32.1146 23.6631C31.0701 22.3257 29.4245 21.4881 27.6265 21.4855C27.6239 21.4855 27.6219 21.4855 27.6193 21.4855C26.1137 21.4855 24.6996 22.0569 23.6368 23.0943C22.574 24.1317 21.9899 25.5107 21.9919 26.9771C21.9932 28.3822 22.5118 29.689 23.4524 30.6562C25.3798 32.6397 31.2114 38.1964 31.4586 38.432C31.6496 38.6133 31.8962 38.7046 32.144 38.7046C32.3926 38.7046 32.6405 38.6126 32.8314 38.43C33.0767 38.1945 38.869 32.6404 40.7939 30.6696C41.7455 29.6929 42.2688 28.3784 42.2674 26.9681C42.2642 23.9389 39.7323 21.4708 36.6236 21.4664ZM39.3733 29.3488C37.8591 30.8994 33.7733 34.8378 32.1427 36.405C30.5037 34.839 26.3917 30.8969 24.8762 29.3379C24.283 28.7269 23.9553 27.8881 23.9547 26.9745C23.9534 26.0201 24.3334 25.1232 25.0247 24.4484C25.7173 23.7723 26.6382 23.4007 27.62 23.4007C27.6213 23.4007 27.6232 23.4007 27.6245 23.4007C29.2839 23.4027 30.745 24.4956 31.1774 26.0591C31.2931 26.4766 31.6816 26.7664 32.1244 26.7664C32.1257 26.7664 32.127 26.7664 32.129 26.7664C32.5738 26.7645 32.9616 26.4708 33.0741 26.0501C33.494 24.4784 34.9506 23.3816 36.6171 23.3816C36.6184 23.3816 36.6197 23.3816 36.6217 23.3816C38.6512 23.3841 40.304 24.9942 40.3066 26.9701C40.3066 27.8862 39.9757 28.7308 39.3733 29.3488Z" fill="#D70032"/>
</svg>
