<svg width="66" height="64" viewBox="0 0 66 64" fill="none" xmlns="http://www.w3.org/2000/svg">
<path d="M47.72 22.4005C48.178 21.7539 48.3557 20.8954 48.2048 20.0396C48.05 19.1563 47.5743 18.4018 46.868 17.9158C45.4011 16.9024 43.2508 17.1996 42.2721 18.5485L15.3029 55.7851C14.9906 56.2169 15.0958 56.8132 15.5374 57.1186L19.429 59.8061C19.5956 59.9216 19.7936 59.9815 19.9948 59.9815C20.0497 59.9815 20.1053 59.9771 20.1602 59.9681C20.4163 59.9254 20.645 59.7845 20.7946 59.5778L47.6952 22.4356C47.7037 22.4254 47.7115 22.4133 47.72 22.4005ZM19.7609 57.6914L17.4695 56.1091L36.5085 29.8208L38.8013 31.4031L19.7609 57.6914ZM46.1029 21.3189C46.0937 21.3317 46.0852 21.3444 46.0767 21.3572L39.9323 29.8406L37.6396 28.2583L43.7977 19.7551L43.8689 19.6582C44.1904 19.2149 45.096 19.0351 45.737 19.479C46.1133 19.7379 46.2342 20.1442 46.2721 20.3629C46.3361 20.7213 46.2708 21.088 46.1029 21.3189Z" fill="black"/>
<path d="M27.7931 12.4414C29.3658 12.1767 30.9516 12.5275 32.2564 13.4267C33.5612 14.3266 34.4282 15.6685 34.6981 17.2035C34.7758 17.6461 35.1561 17.9561 35.5945 17.9867C35.735 18.0619 35.8879 18.1155 36.0552 18.1155C36.1107 18.1155 36.1662 18.1111 36.2224 18.1015C36.7556 18.0116 37.1137 17.5173 37.0228 16.9969C36.4648 13.8253 38.655 10.8011 41.9069 10.2552C41.9226 10.2526 41.937 10.2463 41.952 10.2431C41.9964 10.2361 42.0408 10.2335 42.0853 10.2265C42.6184 10.1372 42.9765 9.64231 42.8857 9.1219C42.7935 8.60213 42.2891 8.25328 41.754 8.34065C40.1813 8.60468 38.5955 8.25455 37.2907 7.35404C35.9859 6.45353 35.1189 5.11169 34.849 3.57598C34.7719 3.13657 34.3995 2.82343 33.963 2.78771C33.7755 2.68695 33.5553 2.64167 33.326 2.67866C32.7928 2.76794 32.4341 3.26284 32.5256 3.78325C32.7961 5.3196 32.4367 6.8668 31.5148 8.14039C30.5929 9.41399 29.2168 10.2603 27.6428 10.523C27.6186 10.5269 27.5964 10.5364 27.5729 10.5422C27.5357 10.5479 27.4984 10.5492 27.4618 10.5556C26.9287 10.6455 26.5706 11.1404 26.6621 11.6608C26.7523 12.1812 27.2606 12.5307 27.7931 12.4414ZM33.1136 9.24498C33.6148 8.55302 33.9833 7.79856 34.2276 7.01093C34.7477 7.73988 35.392 8.3872 36.1571 8.9159C36.753 9.32662 37.3946 9.64613 38.0624 9.88083C36.7595 10.8674 35.8017 12.2335 35.3221 13.7762C34.8007 13.0447 34.1545 12.3942 33.3867 11.8649C32.7935 11.4554 32.1545 11.1391 31.4893 10.9044C32.1041 10.4389 32.6517 9.88274 33.1136 9.24498Z" fill="#D70032"/>
<path d="M57.5046 42.9248C57.4131 42.405 56.9087 42.0574 56.3729 42.1435C53.515 42.6257 50.774 40.7373 50.282 37.9369C50.2069 37.5039 49.8443 37.1952 49.4163 37.1518C49.2327 37.0581 49.019 37.0173 48.7982 37.0536C48.265 37.1435 47.907 37.6378 47.9978 38.1582C48.2363 39.5141 47.9194 40.8795 47.1059 42.0026C46.2924 43.1257 45.0791 43.8725 43.6894 44.1046C43.6698 44.1078 43.6521 44.1155 43.6325 44.1199C43.5979 44.125 43.5639 44.1263 43.5293 44.1321C42.9955 44.2213 42.6374 44.7156 42.7282 45.236C42.8197 45.7571 43.3326 46.1091 43.8592 46.0179C46.7302 45.5358 49.4607 47.4229 49.9521 50.2201C50.0279 50.6544 50.3964 50.9586 50.825 50.9994C50.9615 51.0689 51.1092 51.1187 51.2693 51.1187C51.3242 51.1187 51.3804 51.1142 51.4366 51.1053C51.9697 51.0154 52.3278 50.5211 52.237 50.0007C51.745 47.2035 53.6764 44.537 56.5434 44.0549C56.5565 44.053 56.5676 44.0479 56.58 44.0447C56.6218 44.0383 56.663 44.0364 56.7048 44.0294C57.238 43.9407 57.5954 43.4458 57.5046 42.9248ZM50.5708 46.9082C49.7515 45.8279 48.6322 44.9981 47.3529 44.5141C47.8599 44.1116 48.3173 43.6429 48.7047 43.1078C49.1216 42.5326 49.4431 41.9108 49.6652 41.2609C50.4839 42.3387 51.6012 43.1684 52.8779 43.6518C51.8116 44.5013 51.0073 45.6321 50.5708 46.9082Z" fill="#D70032"/>
<path d="M17.5454 28.5861C17.5585 28.5842 17.5696 28.5785 17.5826 28.5759C17.6153 28.5708 17.6486 28.5689 17.6813 28.5638C18.2151 28.4745 18.5732 27.9796 18.4817 27.4592C18.3896 26.9382 17.8799 26.5887 17.35 26.678C16.2256 26.8668 15.0906 26.6155 14.1582 25.972C13.2259 25.3278 12.6058 24.3687 12.413 23.2705C12.3392 22.8502 11.9949 22.546 11.5845 22.4892C11.4042 22.4012 11.1958 22.3642 10.9815 22.4006C10.4483 22.4905 10.0903 22.9854 10.1824 23.5058C10.3764 24.6046 10.1197 25.7118 9.46104 26.6225C8.80177 27.5332 7.81843 28.1384 6.69199 28.3272C6.67696 28.3298 6.66389 28.3355 6.64952 28.3387C6.61816 28.3432 6.58745 28.3444 6.55674 28.3495C6.02357 28.4388 5.66487 28.9337 5.75634 29.4541C5.84781 29.9752 6.35549 30.3247 6.888 30.2354C9.21406 29.8444 11.4277 31.375 11.827 33.6435C11.9008 34.0632 12.249 34.3585 12.6587 34.4152C12.7914 34.4796 12.9331 34.5256 13.0873 34.5256C13.1422 34.5256 13.1984 34.5211 13.254 34.5122C13.7871 34.4229 14.1458 33.928 14.0543 33.4076C13.8609 32.3087 14.1177 31.2016 14.777 30.2909C15.4363 29.3795 16.4196 28.7743 17.5454 28.5861ZM13.1769 29.1863C12.8737 29.6046 12.6365 30.0536 12.4522 30.5192C11.8198 29.7609 11.0102 29.1614 10.0961 28.7711C10.4529 28.4624 10.7796 28.1161 11.0618 27.7264C11.3644 27.3087 11.6015 26.861 11.7851 26.3961C12.1406 26.8227 12.5542 27.2073 13.0266 27.5338C13.3814 27.7787 13.761 27.9694 14.1504 28.1352C13.7904 28.4452 13.4604 28.7934 13.1769 29.1863Z" fill="#D70032"/>
</svg>
