<svg width="88" height="88" viewBox="0 0 88 88" fill="none" xmlns="http://www.w3.org/2000/svg">
<g clip-path="url(#clip0)">
<path d="M87.4701 30.7329C87.3732 30.2923 87.0516 29.9351 86.6236 29.7924L57.3384 20.0307C56.6671 19.8072 55.9409 20.1699 55.717 20.8413C55.4932 21.5129 55.8562 22.2389 56.5278 22.4626L80.9901 30.6167L49.725 36.0541L8.83902 6.56636L51.0536 20.6379C51.725 20.8613 52.451 20.499 52.6749 19.8274C52.8988 19.1557 52.5358 18.4298 51.8642 18.2061L1.68711 1.48027C1.67002 1.47463 1.65788 1.47343 1.64319 1.46967C1.27952 1.36269 0.876367 1.41601 0.548414 1.64518C0.0447771 1.99655 -0.138767 2.6557 0.110573 3.21676L34.0851 79.6595C34.2541 80.0401 34.5975 80.3145 35.0057 80.396C35.0891 80.4126 35.1731 80.4208 35.2563 80.4208C35.5813 80.4208 35.898 80.2969 36.1385 80.069L50.3151 66.622L62.884 74.5602C62.8898 74.564 62.8963 74.5648 62.9023 74.5674C63.0997 74.6879 63.3278 74.7583 63.5676 74.7583C63.6156 74.7583 63.6638 74.7556 63.7125 74.7501C64.3035 74.6833 64.7709 74.2186 64.8411 73.628L67.6174 50.2751L87.0965 31.9418C87.4251 31.6327 87.567 31.1735 87.4701 30.7329ZM82.2286 33.0031L66.2917 48.0025L52.6315 38.1504L82.2286 33.0031ZM56.0549 57.6446L37.5181 75.2269L44.4694 46.3998L56.0549 57.6446ZM57.3618 59.938L61.1085 70.4069L52.234 64.8018L57.3618 59.938ZM62.939 67.914L59.1128 57.2231C59.1102 57.2159 59.1063 57.2094 59.1036 57.2023C59.0376 57.028 58.9352 56.8677 58.7987 56.7352L39.8305 38.325C39.3228 37.8322 38.5112 37.8443 38.0182 38.352C37.5251 38.8601 37.5373 39.6716 38.0452 40.1644L42.3327 44.3258L34.895 75.1698L5.14472 8.2316L34.3645 36.592C34.8723 37.085 35.6839 37.073 36.1769 36.565C36.6699 36.0569 36.6578 35.2455 36.1499 34.7526L14.7823 14.0136L65.0378 50.2592L62.939 67.914Z" fill="#D70032"/>
<path d="M83.3867 66.2648C83.0588 66.2648 82.7307 66.1397 82.4805 65.8895L71.1555 54.5646C70.655 54.0638 70.655 53.2524 71.1555 52.7518C71.6561 52.2515 72.4677 52.2515 72.9681 52.7518L84.293 64.0768C84.7936 64.5775 84.7936 65.3889 84.293 65.8895C84.0428 66.1397 83.7147 66.2648 83.3867 66.2648Z" fill="#D70032"/>
<path d="M63.5688 86.0833C63.2408 86.0833 62.9127 85.9582 62.6625 85.7081L51.3375 74.3831C50.837 73.8824 50.837 73.071 51.3375 72.5704C51.8381 72.07 52.6497 72.07 53.1501 72.5704L64.475 83.8953C64.9756 84.3961 64.9756 85.2075 64.475 85.7081C64.2247 85.9581 63.8967 86.0833 63.5688 86.0833Z" fill="#D70032"/>
<path d="M83.3867 86.0833C83.0588 86.0833 82.7307 85.9582 82.4805 85.7081L71.1555 74.3831C70.655 73.8824 70.655 73.071 71.1555 72.5704C71.6561 72.07 72.4677 72.07 72.9681 72.5704L84.293 83.8953C84.7936 84.3961 84.7936 85.2075 84.293 85.7081C84.0428 85.9581 83.7147 86.0833 83.3867 86.0833Z" fill="#D70032"/>
</g>
<defs>
<clipPath id="clip0">
<rect width="87.5" height="87.5" fill="white"/>
</clipPath>
</defs>
</svg>
