<svg width="87" height="87" viewBox="0 0 87 87" fill="none" xmlns="http://www.w3.org/2000/svg">
<path d="M70.6535 16.3465L68.2576 18.7424L67.0511 17.553L65.4199 19.1672L62.8371 6.1342L75.8871 8.71701L69.447 15.1401L70.6535 16.3465Z" fill="#D70032"/>
<path d="M19.9486 69.447L21.5799 67.8327L24.1627 80.8657L11.1127 78.2829L17.5527 71.8598L16.3463 70.6534L18.7422 68.2575L19.9486 69.447Z" fill="#D70032"/>
<path d="M85.3008 43.4999C85.3008 32.8967 81.3756 22.9053 74.2389 15.1739L82.7859 6.62682L58.5211 1.80104L63.3299 26.0659L69.4471 19.9487L67.0512 17.5528L65.4199 19.184L62.8371 6.13405L75.8871 8.71686L69.4641 15.1399L70.6705 16.3464C85.6406 31.3165 85.6406 55.6833 70.6705 70.6534C63.7887 77.5352 54.6639 81.5114 44.9443 81.8682L45.0633 85.2667C55.6324 84.8758 65.5729 80.5428 73.0664 73.0493C80.9508 65.1649 85.3008 54.6637 85.3008 43.4999Z" fill="#263238"/>
<path d="M32.6592 80.339L31.7076 83.6015C34.4604 84.4001 37.2981 84.9269 40.1698 85.1647L40.4416 81.7833C37.7908 81.5624 35.174 81.0866 32.6592 80.339Z" fill="#263238"/>
<path d="M17.5529 67.0511L19.9488 69.447L21.5801 67.8157L24.1629 80.8657L11.1129 78.2829L17.5359 71.8598L16.3295 70.6534C1.35938 55.6833 1.35938 31.3165 16.3295 16.3464C23.2113 9.46454 32.3361 5.48837 42.0557 5.13153L41.9367 1.73309C31.3676 2.12391 21.4271 6.45692 13.9506 13.9505C6.04922 21.8349 1.69922 32.336 1.69922 43.4999C1.69922 54.103 5.62441 64.0944 12.7611 71.8259L4.21406 80.3729L28.4789 85.1817L23.6701 60.9169L17.5529 67.0511Z" fill="#263238"/>
<path d="M54.341 6.66085L55.2926 3.39835C52.5398 2.59972 49.7021 2.07296 46.8305 1.83507L46.5586 5.21651C49.2094 5.43741 51.8262 5.91319 54.341 6.66085Z" fill="#263238"/>
</svg>
