<svg width="33" height="32" viewBox="0 0 33 32" fill="none" xmlns="http://www.w3.org/2000/svg">
<g clip-path="url(#clip0)">
<path d="M3.39373 8.12499C2.97112 7.04999 2.63816 5.92499 2.39484 4.78749C2.30519 4.34999 2.21555 3.92499 2.13871 3.48749C2.08748 3.21249 2.04907 2.92499 1.99784 2.63749C1.97223 2.49999 1.95942 2.34999 1.93381 2.21249V2.12499C1.93381 2.09999 1.921 2.06249 1.921 2.03749C1.98503 2.03749 2.04907 2.04999 2.1131 2.06249L2.22835 2.07499C2.5229 2.11249 2.80464 2.14999 3.09919 2.19999C3.67547 2.28749 4.23896 2.38749 4.77682 2.49999C5.90378 2.73749 7.01794 3.04999 8.08087 3.43749C8.40103 3.54999 8.7468 3.39999 8.87486 3.08749C8.99012 2.77499 8.83644 2.43749 8.51628 2.31249C7.40213 1.89999 6.23675 1.57499 5.04576 1.32499C4.49508 1.21249 3.90599 1.09999 3.30409 1.01249C3.00954 0.962492 2.70219 0.924992 2.40764 0.887492L2.27958 0.874992C1.99784 0.837492 1.62645 0.787492 1.22946 0.962492C0.909298 1.11249 0.704396 1.43749 0.678783 1.83749C0.665977 2.01249 0.69159 2.17499 0.704396 2.29999L0.717202 2.37499C0.742815 2.52499 0.755621 2.67499 0.781234 2.82499C0.819653 3.11249 0.870879 3.41249 0.922104 3.69999C0.998943 4.14999 1.08859 4.59999 1.19104 5.04999C1.44717 6.24999 1.80574 7.42499 2.24116 8.57499C2.33081 8.81249 2.56132 8.96249 2.81745 8.96249C2.89429 8.96249 2.95832 8.94999 3.03516 8.92499C3.35532 8.78749 3.50899 8.43749 3.39373 8.12499Z" fill="white"/>
<path d="M31.9264 28.4C31.5934 28.075 31.5165 27.4875 31.4269 26.9C31.2476 25.6875 30.7226 23.45 29.1346 22.0625C28.443 21.4625 27.6362 21.1 26.7398 20.9875C25.3823 20.8125 23.9608 21.2875 22.8594 22.2875C21.7581 23.2875 21.169 24.625 21.2458 25.975C21.3867 28.55 23.884 29.975 25.9842 30.425C26.5733 30.55 27.1752 30.675 27.521 31C27.6362 31.1125 27.8027 31.175 27.9692 31.175C28.0588 31.175 28.1357 31.1625 28.2253 31.125C28.6351 30.9375 28.6095 30.4875 28.5967 30.3C28.5455 29.575 28.0972 29.1125 27.7515 28.75C27.6234 28.6125 27.4954 28.475 27.3929 28.35C27.2776 28.1875 27.2264 28.0125 27.2648 27.875C27.3033 27.75 27.4057 27.65 27.585 27.5625C27.9692 27.3875 28.5071 27.425 28.84 27.6625C29.0449 27.8 29.2114 28.025 29.4035 28.25C29.6852 28.6 30.0054 28.9875 30.4792 29.225C30.7097 29.3375 30.9403 29.4125 31.2348 29.45C31.4269 29.4625 31.8623 29.4875 32.0544 29.0875C32.1569 28.8625 32.1056 28.5875 31.9264 28.4ZM29.5572 26.6875C28.8656 26.2 27.8411 26.1125 27.0599 26.475C26.5605 26.7125 26.2019 27.1 26.0738 27.5625C25.9458 28.0375 26.061 28.575 26.3812 29.025C26.458 29.1375 26.5477 29.2375 26.6373 29.3375C26.4965 29.3 26.3684 29.275 26.2403 29.25C24.5627 28.9 22.5777 27.8125 22.4625 25.9125C22.4112 24.925 22.8594 23.925 23.6919 23.1625C24.409 22.5125 25.3055 22.15 26.1763 22.15C26.3044 22.15 26.4452 22.1625 26.5733 22.175C27.2264 22.2625 27.8155 22.525 28.315 22.9625C29.2626 23.7875 29.9542 25.2875 30.2103 27.1C30.2231 27.1875 30.2359 27.275 30.2487 27.375C30.0566 27.125 29.8389 26.875 29.5572 26.6875Z" fill="white"/>
<path d="M23.7046 18.4125L23.0899 16.7875C22.8338 16.125 22.552 15.4625 22.2447 14.825L27.3928 9.8C27.7898 9.4125 27.9051 8.825 27.6618 8.325C27.4184 7.825 26.9062 7.525 26.3427 7.5625L17.6216 8.1875C15.6622 6.1875 13.4083 4.55 10.8982 3.3375C10.8342 3.3 10.7702 3.275 10.6805 3.2375C10.45 3.125 10.1683 3.175 9.98897 3.35L3.25282 9.9125C3.07353 10.0875 3.0223 10.3625 3.13756 10.6L3.22721 10.775C4.48223 13.2375 6.14706 15.45 8.20888 17.3625L7.56857 25.8875C7.53015 26.4375 7.8375 26.95 8.34975 27.175C8.52904 27.2625 8.72114 27.3 8.91323 27.3C9.25901 27.3 9.60478 27.1625 9.86091 26.9125L15.0091 21.875C15.6622 22.175 16.3409 22.45 17.0069 22.6875L18.6717 23.2875C18.8894 23.3625 19.1455 23.3125 19.312 23.15L23.5509 19.0375C23.7302 18.875 23.7942 18.625 23.7046 18.4125ZM18.7485 22.025L17.4551 21.55C16.6867 21.275 15.9183 20.95 15.1756 20.6C14.945 20.4875 14.6633 20.5375 14.4712 20.7125L9.01569 26.05C9.00288 26.0625 8.95165 26.1125 8.87482 26.075C8.79798 26.0375 8.79798 25.9875 8.81078 25.9625L9.46391 17.15C9.47672 16.9625 9.39988 16.7875 9.27181 16.6625C7.27402 14.875 5.64761 12.775 4.43101 10.45L10.5396 4.4875C12.9344 5.675 15.0859 7.2625 16.93 9.2C17.0581 9.3375 17.2374 9.4 17.4295 9.3875L26.4452 8.7375C26.4708 8.7375 26.522 8.7375 26.5604 8.8C26.5988 8.875 26.5476 8.925 26.5348 8.9375L21.0793 14.2625C20.9 14.4375 20.8488 14.7125 20.964 14.95C21.3226 15.675 21.6556 16.425 21.9501 17.2L22.424 18.4625L18.7485 22.025Z" fill="white"/>
<path d="M10.719 10.6125C10.1555 11.1625 9.83533 11.9 9.83533 12.6875C9.83533 13.475 10.1427 14.2125 10.719 14.7625C11.2824 15.3125 12.038 15.625 12.8448 15.625C13.6516 15.625 14.4072 15.325 14.9707 14.7625C16.1361 13.625 16.1361 11.7625 14.9707 10.6125C13.7925 9.47498 11.8972 9.47498 10.719 10.6125ZM14.0999 13.9125C13.7669 14.2375 13.3187 14.425 12.8448 14.425C12.371 14.425 11.9228 14.25 11.5898 13.9125C11.2568 13.5875 11.0647 13.15 11.0647 12.6875C11.0647 12.225 11.2568 11.7875 11.5898 11.4625C11.9356 11.125 12.3966 10.95 12.8448 10.95C13.3059 10.95 13.7541 11.125 14.0999 11.4625C14.7914 12.1375 14.7914 13.2375 14.0999 13.9125Z" fill="white"/>
</g>
<defs>
<clipPath id="clip0">
<rect width="32.7843" height="32" fill="white"/>
</clipPath>
</defs>
</svg>
