<svg width="20" height="20" viewBox="0 0 20 20" fill="none" xmlns="http://www.w3.org/2000/svg">
<circle cx="10" cy="10" r="3" stroke="#D70032"/>
<path d="M18.8058 9.4903C18.9444 9.68982 19.0549 9.86303 19.1381 10C19.0549 10.137 18.9444 10.3102 18.8058 10.5097C18.4393 11.0375 17.8805 11.7435 17.1163 12.4489C15.5918 13.8561 13.2654 15.25 10 15.25C6.99446 15.25 4.66446 13.8649 3.06077 12.4394C2.26058 11.7282 1.65198 11.0157 1.24444 10.4822C1.0937 10.2849 0.97106 10.1128 0.876964 9.97534C0.958264 9.84247 1.06378 9.67803 1.19415 9.4903C1.56067 8.96251 2.11955 8.25648 2.88371 7.5511C4.40816 6.14392 6.73455 4.75 10 4.75C13.2654 4.75 15.5918 6.14392 17.1163 7.5511C17.8805 8.25648 18.4393 8.96251 18.8058 9.4903Z" stroke="#D70032" stroke-width="1.5"/>
</svg>
