<svg width="24" height="24" viewBox="0 0 24 24" fill="none" xmlns="http://www.w3.org/2000/svg">
<circle cx="12" cy="12" r="9.25" stroke="#D70032" stroke-width="1.5"/>
<path d="M10.408 14.272C10.408 13.7493 10.4933 13.28 10.664 12.864C10.8347 12.448 11.1867 12.0853 11.72 11.776C11.88 11.68 12.0773 11.5733 12.312 11.456C12.5467 11.328 12.776 11.1787 13 11.008C13.224 10.8373 13.4107 10.64 13.56 10.416C13.72 10.1813 13.8 9.91467 13.8 9.616C13.8 9.392 13.7573 9.19467 13.672 9.024C13.5867 8.85334 13.4747 8.70934 13.336 8.592C13.1973 8.47467 13.032 8.38934 12.84 8.336C12.6587 8.272 12.472 8.24 12.28 8.24C12.0453 8.24 11.832 8.28267 11.64 8.368C11.448 8.44267 11.272 8.544 11.112 8.672C10.9627 8.78934 10.824 8.928 10.696 9.088C10.5787 9.23734 10.4773 9.38134 10.392 9.52L9 8.56C9.13867 8.22934 9.32 7.936 9.544 7.68C9.77867 7.424 10.04 7.21067 10.328 7.04C10.6267 6.85867 10.9467 6.72534 11.288 6.64C11.6293 6.544 11.9813 6.496 12.344 6.496C12.7493 6.496 13.1493 6.55467 13.544 6.672C13.9387 6.78934 14.2907 6.976 14.6 7.232C14.92 7.488 15.176 7.81867 15.368 8.224C15.5707 8.61867 15.672 9.09334 15.672 9.648C15.672 9.98934 15.6293 10.2933 15.544 10.56C15.4693 10.816 15.3573 11.0507 15.208 11.264C15.0587 11.4773 14.8827 11.6693 14.68 11.84C14.4773 12.0107 14.248 12.176 13.992 12.336C13.7787 12.464 13.5653 12.5867 13.352 12.704C13.1387 12.8213 12.9413 12.9547 12.76 13.104C12.5893 13.2427 12.4453 13.408 12.328 13.6C12.2213 13.7813 12.168 14.0053 12.168 14.272H10.408ZM10.44 18V15.792H12.216V18H10.44Z" fill="#D70032"/>
</svg>
