<svg width="24" height="24" viewBox="0 0 24 24" fill="none" xmlns="http://www.w3.org/2000/svg">
<path d="M6.00002 3.85716V0.550385L1.95349 4.28574H5.57145C5.80812 4.28574 6.00002 4.09384 6.00002 3.85716Z" fill="#2E670D"/>
<path d="M1.28568 23.5714C1.28568 23.8081 1.47757 24 1.71425 24H19.7142C19.9509 24 20.1428 23.8081 20.1428 23.5714V17.5714H5.99996C5.28993 17.5714 4.71425 16.9957 4.71425 16.2857V8.57143C4.71425 7.8614 5.28993 7.28571 5.99996 7.28571H20.1428V0.428571C20.1428 0.191895 19.9509 0 19.7142 0H6.8571V3.85714C6.8571 4.56717 6.28142 5.14286 5.57139 5.14286H1.28568V23.5714Z" fill="#2E670D"/>
<path d="M22.7142 16.2857V8.57141C22.7142 8.33474 22.5223 8.14284 22.2857 8.14284H5.99995C5.76328 8.14284 5.57138 8.33474 5.57138 8.57141V16.2857C5.57138 16.5224 5.76328 16.7143 5.99995 16.7143H22.2857C22.5223 16.7143 22.7142 16.5224 22.7142 16.2857ZM11.0708 14.7621C11.2022 14.959 11.1491 15.2252 10.9522 15.3566C10.7553 15.488 10.4891 15.4348 10.3577 15.2379L8.99995 13.1999L7.64225 15.2365C7.51083 15.4336 7.24465 15.4867 7.04773 15.3553C6.85082 15.2239 6.79766 14.9577 6.92908 14.7608L8.48558 12.4286L6.92992 10.0951C6.7985 9.89814 6.85165 9.63196 7.04857 9.50054C7.2457 9.36913 7.51167 9.42228 7.64309 9.61919L8.99995 11.6572L10.3577 9.62066C10.4891 9.42353 10.7553 9.37038 10.9522 9.5018C11.1491 9.63322 11.2022 9.8994 11.0708 10.0963L9.51432 12.4286L11.0708 14.7621ZM15.8571 15.4286H12.4285C12.1918 15.4286 12 15.2367 12 15V9.85713C12 9.62045 12.1918 9.42856 12.4285 9.42856C12.6652 9.42856 12.8571 9.62045 12.8571 9.85713V14.5714H15.8571C16.0938 14.5714 16.2857 14.7633 16.2857 15C16.2857 15.2367 16.0938 15.4286 15.8571 15.4286ZM21.4285 14.1428C21.4285 14.8529 20.8528 15.4286 20.1428 15.4286H18.4285C17.726 15.426 17.1545 14.8621 17.1428 14.1596C17.1397 13.9225 17.3276 13.7268 17.5645 13.7203H17.5714C17.8039 13.7174 17.9953 13.9026 18 14.1351C17.9981 14.3739 18.1898 14.5691 18.4285 14.5714H20.1428C20.3795 14.5714 20.5714 14.3795 20.5714 14.1428V13.2857C20.5714 13.049 20.3795 12.8571 20.1428 12.8571H18.4285C17.7185 12.8571 17.1428 12.2814 17.1428 11.5714V10.7143C17.1428 10.0042 17.7185 9.42856 18.4285 9.42856H20.1646C20.505 9.42877 20.8311 9.56604 21.069 9.80962C21.3069 10.0532 21.4365 10.3824 21.4285 10.7229C21.4239 10.9562 21.2333 11.1428 21 11.1428H20.9947C20.7601 11.1401 20.5714 10.9491 20.5714 10.7143C20.5766 10.6006 20.5348 10.4899 20.4557 10.4083C20.3793 10.3296 20.2742 10.2855 20.1646 10.2857H18.4285C18.1918 10.2857 18 10.4776 18 10.7143V11.5714C18 11.8081 18.1918 12 18.4285 12H20.1428C20.8528 12 21.4285 12.5757 21.4285 13.2857V14.1428Z" fill="#2E670D"/>
</svg>
