<svg width="24" height="24" viewBox="0 0 24 24" fill="none" xmlns="http://www.w3.org/2000/svg">
<path d="M5.99965 3.85707V0.550293L1.95312 4.28564H5.57108C5.80776 4.28564 5.99965 4.09375 5.99965 3.85707Z" fill="white"/>
<path d="M1.28613 23.5714C1.28613 23.8081 1.47803 24 1.7147 24H19.7147C19.9514 24 20.1433 23.8081 20.1433 23.5714V17.5714H6.00042C5.29039 17.5714 4.7147 16.9957 4.7147 16.2857V8.57143C4.7147 7.8614 5.29039 7.28571 6.00042 7.28571H20.1433V0.428571C20.1433 0.191895 19.9514 0 19.7147 0H6.85756V3.85714C6.85756 4.56717 6.28188 5.14286 5.57185 5.14286H1.28613V23.5714Z" fill="white"/>
<path d="M22.7141 16.2859V8.57164C22.7141 8.33496 22.5223 8.14307 22.2856 8.14307H5.99986C5.76318 8.14307 5.57129 8.33496 5.57129 8.57164V16.2859C5.57129 16.5226 5.76318 16.7145 5.99986 16.7145H22.2856C22.5223 16.7145 22.7141 16.5226 22.7141 16.2859ZM11.0707 14.7623C11.2021 14.9592 11.149 15.2254 10.9521 15.3568C10.7552 15.4882 10.489 15.4351 10.3576 15.2381L8.99986 13.2001L7.64216 15.2367C7.51074 15.4338 7.24456 15.487 7.04764 15.3555C6.85073 15.2241 6.79757 14.9579 6.92899 14.761L8.48549 12.4288L6.92983 10.0953C6.79841 9.89837 6.85156 9.63219 7.04848 9.50077C7.24561 9.36935 7.51158 9.4225 7.643 9.61942L8.99986 11.6574L10.3576 9.62088C10.489 9.42376 10.7552 9.37061 10.9521 9.50202C11.149 9.63344 11.2021 9.89962 11.0707 10.0965L9.51423 12.4288L11.0707 14.7623ZM15.857 15.4288H12.4284C12.1918 15.4288 11.9999 15.2369 11.9999 15.0002V9.85735C11.9999 9.62068 12.1918 9.42878 12.4284 9.42878C12.6651 9.42878 12.857 9.62068 12.857 9.85735V14.5716H15.857C16.0937 14.5716 16.2856 14.7635 16.2856 15.0002C16.2856 15.2369 16.0937 15.4288 15.857 15.4288ZM21.4284 14.1431C21.4284 14.8531 20.8527 15.4288 20.1427 15.4288H18.4284C17.7259 15.4263 17.1544 14.8623 17.1427 14.1598C17.1396 13.9227 17.3275 13.7271 17.5644 13.7206H17.5713C17.8038 13.7176 17.9953 13.9028 17.9999 14.1353C17.998 14.3741 18.1897 14.5693 18.4284 14.5716H20.1427C20.3794 14.5716 20.5713 14.3797 20.5713 14.1431V13.2859C20.5713 13.0492 20.3794 12.8574 20.1427 12.8574H18.4284C17.7184 12.8574 17.1427 12.2817 17.1427 11.5716V10.7145C17.1427 10.0045 17.7184 9.42878 18.4284 9.42878H20.1645C20.505 9.42899 20.831 9.56627 21.0689 9.80985C21.3068 10.0534 21.4364 10.3826 21.4284 10.7231C21.4238 10.9564 21.2332 11.1431 20.9999 11.1431H20.9946C20.76 11.1403 20.5713 10.9493 20.5713 10.7145C20.5765 10.6009 20.5347 10.4902 20.4556 10.4086C20.3792 10.3299 20.2741 10.2857 20.1645 10.2859H18.4284C18.1918 10.2859 17.9999 10.4778 17.9999 10.7145V11.5716C17.9999 11.8083 18.1918 12.0002 18.4284 12.0002H20.1427C20.8527 12.0002 21.4284 12.5759 21.4284 13.2859V14.1431Z" fill="white"/>
</svg>
