<svg width="277" height="1668" xmlns="http://www.w3.org/2000/svg" xmlns:xlink="http://www.w3.org/1999/xlink"><defs><symbol viewBox="0 0 33 32" fill="none" id="24hours_7days">
<g clip-path="url(#24hours_7days_clip0)">
<path d="M32.1539 15.3844C32.0711 15.3844 31.9891 15.4003 31.9126 15.4312C31.8361 15.4621 31.7666 15.5074 31.7081 15.5646C31.6495 15.6217 31.6031 15.6896 31.5714 15.7642C31.5397 15.8389 31.5234 15.9189 31.5234 15.9998C31.5236 19.3494 30.3573 22.5997 28.2158 25.2171C26.0743 27.8346 23.0849 29.6638 19.7381 30.4046C16.3913 31.1455 12.8859 30.7539 9.79715 29.2941C6.7084 27.8344 4.21973 25.3932 2.73952 22.3711C1.25931 19.349 0.87549 15.9256 1.65104 12.6626C2.42658 9.39959 4.31543 6.4908 7.00764 4.41355C9.69984 2.3363 13.0355 1.21396 16.4672 1.23072C19.8989 1.24748 23.2229 2.40233 25.8937 4.50578H23.235C23.0678 4.50578 22.9074 4.57061 22.7892 4.68602C22.671 4.80142 22.6045 4.95795 22.6045 5.12116C22.6045 5.28437 22.671 5.4409 22.7892 5.5563C22.9074 5.67171 23.0678 5.73655 23.235 5.73655H27.5375C27.7045 5.73592 27.8645 5.67088 27.9826 5.55561C28.1007 5.44034 28.1673 5.28418 28.1679 5.12116V0.921647C28.1679 0.758437 28.1015 0.601911 27.9833 0.486504C27.865 0.371097 27.7047 0.306262 27.5375 0.306262C27.3703 0.306262 27.2099 0.371097 27.0917 0.486504C26.9734 0.601911 26.907 0.758437 26.907 0.921647V3.72753C23.669 1.08423 19.5111 -0.237864 15.2993 0.0366222C11.0875 0.311108 7.14654 2.16101 4.29731 5.20102C1.44809 8.24103 -0.0897515 12.2368 0.00411889 16.3559C0.0979892 20.4751 1.81633 24.4001 4.80123 27.3135C7.09371 29.5511 10.0145 31.0749 13.1943 31.6923C16.374 32.3097 19.67 31.9928 22.6652 30.7818C25.6605 29.5708 28.2206 27.5201 30.0218 24.8889C31.823 22.2577 32.7844 19.1643 32.7844 15.9998C32.7844 15.9189 32.7681 15.8389 32.7364 15.7642C32.7048 15.6896 32.6583 15.6217 32.5998 15.5646C32.5412 15.5074 32.4717 15.4621 32.3952 15.4312C32.3187 15.4003 32.2367 15.3844 32.1539 15.3844Z" fill="#333333" />
<path d="M19.8748 11.5836L16.6622 20.1989C16.6336 20.2749 16.6207 20.3556 16.6242 20.4365C16.6276 20.5173 16.6474 20.5967 16.6824 20.6701C16.7173 20.7435 16.7668 20.8094 16.8279 20.8641C16.889 20.9188 16.9605 20.9612 17.0384 20.9889C17.1163 21.0165 17.1991 21.0289 17.2819 21.0253C17.3647 21.0218 17.446 21.0023 17.5211 20.968C17.5962 20.9336 17.6636 20.8852 17.7195 20.8255C17.7753 20.7657 17.8186 20.6957 17.8467 20.6196L21.0594 12.0042C21.1166 11.8509 21.109 11.6817 21.0383 11.5338C20.9677 11.386 20.8397 11.2716 20.6826 11.2158C20.5255 11.16 20.3522 11.1674 20.2007 11.2364C20.0492 11.3054 19.932 11.4302 19.8748 11.5836Z" fill="#333333" />
<path d="M11.0715 14.887C11.0723 14.5885 11.0124 14.2927 10.8954 14.0169C10.7784 13.7411 10.6064 13.4906 10.3896 13.2801C9.50977 12.4207 7.97669 12.4207 7.09687 13.2801C6.87992 13.4906 6.70792 13.741 6.59082 14.0168C6.47372 14.2927 6.41385 14.5885 6.41468 14.887C6.41468 15.0503 6.48111 15.2068 6.59934 15.3222C6.71758 15.4376 6.87794 15.5024 7.04515 15.5024C7.21236 15.5024 7.37272 15.4376 7.49096 15.3222C7.60919 15.2068 7.67562 15.0503 7.67562 14.887C7.67529 14.7502 7.70276 14.6146 7.75645 14.4881C7.81013 14.3616 7.88897 14.2468 7.98839 14.1503C8.19161 13.9605 8.46199 13.8546 8.74323 13.8546C9.02446 13.8546 9.29485 13.9605 9.49806 14.1503C9.69813 14.3456 9.81053 14.6105 9.81053 14.8867C9.81053 15.163 9.69813 15.4279 9.49806 15.6232L6.59939 18.4526C6.51121 18.5386 6.45116 18.6483 6.42682 18.7676C6.40249 18.887 6.41496 19.0107 6.46268 19.1232C6.51039 19.2356 6.5912 19.3317 6.69488 19.3993C6.79856 19.467 6.92046 19.503 7.04515 19.503H10.441C10.6082 19.503 10.7686 19.4382 10.8868 19.3228C11.005 19.2074 11.0715 19.0509 11.0715 18.8877C11.0715 18.7244 11.005 18.5679 10.8868 18.4525C10.7686 18.3371 10.6082 18.2723 10.441 18.2723H8.56714L10.3896 16.4934C10.6064 16.283 10.7783 16.0326 10.8954 15.7569C11.0124 15.4812 11.0723 15.1855 11.0715 14.887Z" fill="#333333" />
<path d="M14.6656 19.503C14.7484 19.503 14.8303 19.4871 14.9068 19.4562C14.9834 19.4252 15.0529 19.3799 15.1114 19.3228C15.17 19.2656 15.2164 19.1978 15.2481 19.1231C15.2797 19.0484 15.296 18.9684 15.296 18.8876V17.9699H15.6214C15.7886 17.9699 15.949 17.9051 16.0672 17.7896C16.1855 17.6742 16.2519 17.5177 16.2519 17.3545C16.2519 17.1913 16.1855 17.0348 16.0672 16.9194C15.949 16.804 15.7886 16.7391 15.6214 16.7391H15.296V13.2295C15.296 13.0971 15.2521 12.9682 15.1711 12.8619C15.09 12.7557 14.9759 12.6779 14.8459 12.64C14.7159 12.602 14.5768 12.606 14.4493 12.6514C14.3218 12.6968 14.2127 12.7811 14.1382 12.8918L11.367 17.0168C11.3046 17.1096 11.2691 17.2172 11.2642 17.3281C11.2594 17.439 11.2854 17.5492 11.3394 17.6469C11.3935 17.7445 11.4736 17.8261 11.5713 17.883C11.669 17.9399 11.7806 17.9699 11.8943 17.9699H14.0351V18.8876C14.0351 18.9684 14.0514 19.0484 14.083 19.1231C14.1147 19.1978 14.1612 19.2656 14.2197 19.3228C14.2782 19.3799 14.3478 19.4252 14.4243 19.4562C14.5008 19.4871 14.5828 19.503 14.6656 19.503ZM13.0617 16.7391L14.0351 15.2902V16.7391H13.0617Z" fill="#333333" />
<path d="M23.2448 18.8876C23.2448 19.0509 23.3112 19.2074 23.4294 19.3228C23.5477 19.4382 23.708 19.503 23.8753 19.503C24.0425 19.503 24.2028 19.4382 24.3211 19.3228C24.4393 19.2074 24.5057 19.0509 24.5057 18.8876V17.6208C24.5038 16.8858 24.6511 16.1577 24.9393 15.4786C25.2275 14.7995 25.6508 14.183 26.1847 13.6646C26.2729 13.5786 26.3329 13.4689 26.3573 13.3496C26.3816 13.2302 26.3691 13.1065 26.3214 12.994C26.2737 12.8816 26.1929 12.7855 26.0892 12.7179C25.9855 12.6502 25.8636 12.6142 25.739 12.6142H22.0119C21.8447 12.6142 21.6843 12.679 21.5661 12.7944C21.4478 12.9098 21.3814 13.0663 21.3814 13.2296C21.3814 13.3928 21.4478 13.5493 21.5661 13.6647C21.6843 13.7801 21.8447 13.8449 22.0119 13.8449H24.4097C23.6465 14.963 23.2411 16.2773 23.2448 17.6208V18.8876Z" fill="#333333" />
</g>
<defs>

</defs>
</symbol><clipPath id="24hours_7days_clip0">
<rect width="32.7844" height="32" fill="white" />
</clipPath><symbol viewBox="0 0 33 32" fill="none" id="24hours_7days_white">
<g clip-path="url(#24hours_7days_white_clip0)">
<path d="M32.1539 15.3844C32.0711 15.3844 31.9891 15.4003 31.9126 15.4312C31.8361 15.4621 31.7666 15.5074 31.7081 15.5646C31.6495 15.6217 31.6031 15.6896 31.5714 15.7642C31.5397 15.8389 31.5234 15.9189 31.5234 15.9998C31.5236 19.3494 30.3573 22.5997 28.2158 25.2171C26.0743 27.8346 23.0849 29.6638 19.7381 30.4047C16.3913 31.1455 12.8859 30.7539 9.79715 29.2941C6.7084 27.8344 4.21973 25.3932 2.73952 22.3711C1.25931 19.349 0.87549 15.9256 1.65104 12.6626C2.42658 9.3996 4.31543 6.49081 7.00764 4.41355C9.69984 2.3363 13.0355 1.21397 16.4672 1.23073C19.8989 1.24749 23.2229 2.40234 25.8937 4.50578H23.235C23.0678 4.50578 22.9074 4.57062 22.7892 4.68602C22.671 4.80143 22.6045 4.95795 22.6045 5.12116C22.6045 5.28437 22.671 5.4409 22.7892 5.55631C22.9074 5.67171 23.0678 5.73655 23.235 5.73655H27.5375C27.7045 5.73592 27.8645 5.67088 27.9826 5.55561C28.1007 5.44034 28.1673 5.28418 28.1679 5.12116V0.92165C28.1679 0.75844 28.1015 0.601915 27.9833 0.486508C27.865 0.371101 27.7047 0.306266 27.5375 0.306266C27.3703 0.306266 27.2099 0.371101 27.0917 0.486508C26.9734 0.601915 26.907 0.75844 26.907 0.92165V3.72753C23.669 1.08424 19.5111 -0.23786 15.2993 0.036626C11.0875 0.311112 7.14654 2.16102 4.29731 5.20103C1.44809 8.24103 -0.0897515 12.2368 0.00411889 16.3559C0.0979892 20.4751 1.81633 24.4001 4.80123 27.3135C7.09371 29.5511 10.0145 31.0749 13.1943 31.6923C16.374 32.3097 19.67 31.9928 22.6652 30.7818C25.6605 29.5708 28.2206 27.5201 30.0218 24.8889C31.823 22.2577 32.7844 19.1643 32.7844 15.9998C32.7844 15.9189 32.7681 15.8389 32.7364 15.7642C32.7048 15.6896 32.6583 15.6217 32.5998 15.5646C32.5412 15.5074 32.4717 15.4621 32.3952 15.4312C32.3187 15.4003 32.2367 15.3844 32.1539 15.3844Z" fill="white" />
<path d="M19.8748 11.5836L16.6622 20.1989C16.6336 20.2749 16.6207 20.3556 16.6242 20.4365C16.6276 20.5173 16.6474 20.5967 16.6824 20.6701C16.7173 20.7435 16.7668 20.8094 16.8279 20.8641C16.889 20.9188 16.9605 20.9612 17.0384 20.9889C17.1163 21.0166 17.1991 21.0289 17.2819 21.0254C17.3647 21.0218 17.446 21.0023 17.5211 20.968C17.5962 20.9337 17.6636 20.8852 17.7195 20.8255C17.7753 20.7657 17.8186 20.6957 17.8467 20.6196L21.0594 12.0043C21.1166 11.8509 21.109 11.6817 21.0383 11.5339C20.9677 11.386 20.8397 11.2716 20.6826 11.2158C20.5255 11.16 20.3522 11.1674 20.2007 11.2364C20.0492 11.3054 19.932 11.4302 19.8748 11.5836Z" fill="white" />
<path d="M11.0715 14.887C11.0723 14.5885 11.0124 14.2927 10.8954 14.0169C10.7784 13.7411 10.6064 13.4906 10.3896 13.2801C9.50977 12.4207 7.97669 12.4207 7.09687 13.2801C6.87992 13.4906 6.70792 13.741 6.59082 14.0168C6.47372 14.2927 6.41385 14.5885 6.41468 14.887C6.41468 15.0503 6.48111 15.2068 6.59934 15.3222C6.71758 15.4376 6.87794 15.5024 7.04515 15.5024C7.21236 15.5024 7.37272 15.4376 7.49096 15.3222C7.60919 15.2068 7.67562 15.0503 7.67562 14.887C7.67529 14.7502 7.70276 14.6146 7.75645 14.4881C7.81013 14.3616 7.88897 14.2468 7.98839 14.1503C8.19161 13.9605 8.46199 13.8546 8.74323 13.8546C9.02446 13.8546 9.29485 13.9605 9.49806 14.1503C9.69813 14.3456 9.81053 14.6105 9.81053 14.8867C9.81053 15.163 9.69813 15.4279 9.49806 15.6232L6.59939 18.4526C6.51121 18.5386 6.45116 18.6483 6.42682 18.7676C6.40249 18.887 6.41496 19.0107 6.46268 19.1232C6.51039 19.2356 6.5912 19.3317 6.69488 19.3993C6.79856 19.467 6.92046 19.503 7.04515 19.503H10.441C10.6082 19.503 10.7686 19.4382 10.8868 19.3228C11.005 19.2074 11.0715 19.0509 11.0715 18.8877C11.0715 18.7244 11.005 18.5679 10.8868 18.4525C10.7686 18.3371 10.6082 18.2723 10.441 18.2723H8.56714L10.3896 16.4934C10.6064 16.283 10.7783 16.0326 10.8954 15.7569C11.0124 15.4812 11.0723 15.1855 11.0715 14.887Z" fill="white" />
<path d="M14.6656 19.503C14.7484 19.503 14.8303 19.4871 14.9068 19.4562C14.9834 19.4252 15.0529 19.3799 15.1114 19.3228C15.17 19.2656 15.2164 19.1978 15.2481 19.1231C15.2797 19.0484 15.296 18.9684 15.296 18.8876V17.9699H15.6214C15.7886 17.9699 15.949 17.9051 16.0672 17.7896C16.1855 17.6742 16.2519 17.5177 16.2519 17.3545C16.2519 17.1913 16.1855 17.0348 16.0672 16.9194C15.949 16.804 15.7886 16.7391 15.6214 16.7391H15.296V13.2295C15.296 13.0971 15.2521 12.9682 15.1711 12.8619C15.09 12.7557 14.9759 12.6779 14.8459 12.64C14.7159 12.602 14.5768 12.6061 14.4493 12.6514C14.3218 12.6968 14.2127 12.7811 14.1382 12.8918L11.367 17.0168C11.3046 17.1096 11.2691 17.2172 11.2642 17.3281C11.2594 17.439 11.2854 17.5492 11.3394 17.6469C11.3935 17.7445 11.4736 17.8261 11.5713 17.883C11.669 17.9399 11.7806 17.9699 11.8943 17.9699H14.0351V18.8876C14.0351 18.9684 14.0514 19.0484 14.083 19.1231C14.1147 19.1978 14.1612 19.2656 14.2197 19.3228C14.2782 19.3799 14.3478 19.4252 14.4243 19.4562C14.5008 19.4871 14.5828 19.503 14.6656 19.503ZM13.0617 16.7391L14.0351 15.2902V16.7391H13.0617Z" fill="white" />
<path d="M23.2448 18.8877C23.2448 19.0509 23.3112 19.2074 23.4294 19.3228C23.5477 19.4382 23.708 19.503 23.8753 19.503C24.0425 19.503 24.2028 19.4382 24.3211 19.3228C24.4393 19.2074 24.5057 19.0509 24.5057 18.8877V17.6208C24.5038 16.8858 24.6511 16.1577 24.9393 15.4786C25.2275 14.7995 25.6508 14.183 26.1847 13.6646C26.2729 13.5786 26.3329 13.469 26.3573 13.3496C26.3816 13.2302 26.3691 13.1065 26.3214 12.994C26.2737 12.8816 26.1929 12.7855 26.0892 12.7179C25.9855 12.6503 25.8636 12.6142 25.739 12.6142H22.0119C21.8447 12.6142 21.6843 12.679 21.5661 12.7944C21.4478 12.9098 21.3814 13.0663 21.3814 13.2296C21.3814 13.3928 21.4478 13.5493 21.5661 13.6647C21.6843 13.7801 21.8447 13.8449 22.0119 13.8449H24.4097C23.6465 14.963 23.2411 16.2773 23.2448 17.6208V18.8877Z" fill="white" />
</g>
<defs>

</defs>
</symbol><clipPath id="24hours_7days_white_clip0">
<rect width="32.7844" height="32" fill="white" />
</clipPath><symbol viewBox="0 0 33 32" fill="none" id="adventure_line">
<path d="M27.713 11.8H19.312V10.6H24.537C24.6907 10.6 24.7931 10.55 24.8956 10.45L28.0715 7.6C28.174 7.5 28.2764 7.35 28.2764 7.2C28.2764 7.05 28.2252 6.9 28.0715 6.8L24.8956 3.95C24.7931 3.85 24.6394 3.8 24.537 3.8H19.312V0.55C19.312 0.25 19.0559 0 18.7485 0H14.2407C13.9333 0 13.6772 0.25 13.6772 0.55V3.75H9.22056C8.9132 3.75 8.65708 4 8.65708 4.3V10C8.65708 10.3 8.9132 10.55 9.22056 10.55H13.6772V11.75H8.24727C8.0936 11.75 7.99115 11.8 7.88869 11.9L4.71271 14.75C4.61026 14.85 4.50781 15 4.50781 15.15C4.50781 15.3 4.55904 15.45 4.71271 15.55L7.88869 18.4C7.99115 18.5 8.14482 18.55 8.24727 18.55H13.6259V31.4C13.6259 31.7 13.8821 31.95 14.1894 31.95H18.6973C19.0046 31.95 19.2608 31.7 19.2608 31.4V18.6H27.6617C27.9691 18.6 28.2252 18.35 28.2252 18.05V12.35C28.2764 12.05 28.0203 11.8 27.713 11.8ZM14.8041 1.1H18.185V3.75H14.8041V1.1ZM9.78404 4.85H14.2407H18.7485H24.2809L26.8421 7.15L24.2809 9.45H18.7485H14.2407H9.78404V4.85ZM14.8041 10.6H18.185V11.8H14.8041V10.6ZM18.185 30.9H14.8041V18.6H18.185V30.9ZM27.1495 17.5H18.7485H14.2407H8.5034L5.94213 15.2L8.5034 12.9H14.2407H18.7485H27.1495V17.5Z" fill="#333333" />
<path d="M15.8286 15.2C15.8286 15.5 16.0848 15.75 16.3921 15.75H25.459C25.7664 15.75 26.0225 15.5 26.0225 15.2C26.0225 14.9 25.7664 14.65 25.459 14.65H16.3921C16.0848 14.65 15.8286 14.9 15.8286 15.2Z" fill="#333333" />
<path d="M13.0625 14.65H11.9355C11.6281 14.65 11.372 14.9 11.372 15.2C11.372 15.5 11.6281 15.75 11.9355 15.75H13.0625C13.3698 15.75 13.6259 15.5 13.6259 15.2C13.6259 14.9 13.3698 14.65 13.0625 14.65Z" fill="#333333" />
<path d="M16.9556 7.14999C16.9556 6.84999 16.6995 6.59999 16.3921 6.59999H10.8086C10.5012 6.59999 10.2451 6.84999 10.2451 7.14999C10.2451 7.44999 10.5012 7.69999 10.8086 7.69999H16.3921C16.6995 7.69999 16.9556 7.44999 16.9556 7.14999Z" fill="#333333" />
<path d="M21.6171 7.69999H22.7441C23.0514 7.69999 23.3075 7.44999 23.3075 7.14999C23.3075 6.84999 23.0514 6.59999 22.7441 6.59999H21.6171C21.3097 6.59999 21.0536 6.84999 21.0536 7.14999C21.0536 7.44999 21.3097 7.69999 21.6171 7.69999Z" fill="#333333" />
</symbol><symbol viewBox="0 0 33 32" fill="none" id="adventure_line_white">
<path d="M27.713 11.8H19.312V10.6H24.537C24.6907 10.6 24.7931 10.55 24.8956 10.45L28.0715 7.6C28.174 7.5 28.2764 7.35 28.2764 7.2C28.2764 7.05 28.2252 6.9 28.0715 6.8L24.8956 3.95C24.7931 3.85 24.6394 3.8 24.537 3.8H19.312V0.55C19.312 0.25 19.0559 0 18.7485 0H14.2407C13.9333 0 13.6772 0.25 13.6772 0.55V3.75H9.22056C8.9132 3.75 8.65708 4 8.65708 4.3V10C8.65708 10.3 8.9132 10.55 9.22056 10.55H13.6772V11.75H8.24727C8.0936 11.75 7.99115 11.8 7.88869 11.9L4.71271 14.75C4.61026 14.85 4.50781 15 4.50781 15.15C4.50781 15.3 4.55904 15.45 4.71271 15.55L7.88869 18.4C7.99115 18.5 8.14482 18.55 8.24727 18.55H13.6259V31.4C13.6259 31.7 13.8821 31.95 14.1894 31.95H18.6973C19.0046 31.95 19.2608 31.7 19.2608 31.4V18.6H27.6617C27.9691 18.6 28.2252 18.35 28.2252 18.05V12.35C28.2764 12.05 28.0203 11.8 27.713 11.8ZM14.8041 1.1H18.185V3.75H14.8041V1.1ZM9.78404 4.85H14.2407H18.7485H24.2809L26.8421 7.15L24.2809 9.45H18.7485H14.2407H9.78404V4.85ZM14.8041 10.6H18.185V11.8H14.8041V10.6ZM18.185 30.9H14.8041V18.6H18.185V30.9ZM27.1495 17.5H18.7485H14.2407H8.5034L5.94213 15.2L8.5034 12.9H14.2407H18.7485H27.1495V17.5Z" fill="white" />
<path d="M15.8286 15.2C15.8286 15.5 16.0848 15.75 16.3921 15.75H25.459C25.7664 15.75 26.0225 15.5 26.0225 15.2C26.0225 14.9 25.7664 14.65 25.459 14.65H16.3921C16.0848 14.65 15.8286 14.9 15.8286 15.2Z" fill="white" />
<path d="M13.0625 14.65H11.9355C11.6281 14.65 11.372 14.9 11.372 15.2C11.372 15.5 11.6281 15.75 11.9355 15.75H13.0625C13.3698 15.75 13.6259 15.5 13.6259 15.2C13.6259 14.9 13.3698 14.65 13.0625 14.65Z" fill="white" />
<path d="M16.9556 7.14999C16.9556 6.84999 16.6995 6.59999 16.3921 6.59999H10.8086C10.5012 6.59999 10.2451 6.84999 10.2451 7.14999C10.2451 7.44999 10.5012 7.69999 10.8086 7.69999H16.3921C16.6995 7.69999 16.9556 7.44999 16.9556 7.14999Z" fill="white" />
<path d="M21.6171 7.69999H22.7441C23.0514 7.69999 23.3075 7.44999 23.3075 7.14999C23.3075 6.84999 23.0514 6.59999 22.7441 6.59999H21.6171C21.3097 6.59999 21.0536 6.84999 21.0536 7.14999C21.0536 7.44999 21.3097 7.69999 21.6171 7.69999Z" fill="white" />
</symbol><symbol viewBox="0 0 12 8" fill="none" id="arrow_down">
<path d="M11 1L6 6L1 1" stroke="white" stroke-width="2" />
</symbol><symbol viewBox="0 0 18 10" fill="none" id="arrow_down_black">
<path d="M1 1L9 9L17 1" stroke="#232323" stroke-width="1.3" />
</symbol><symbol viewBox="0 0 13 12" fill="none" id="arrow_right">
<path d="M0 6H12M12 6L7 1M12 6L7 11" stroke="white" />
</symbol><symbol viewBox="0 0 32 32" fill="none" id="avatar">
<path d="M16 31.9333C7.20001 31.9333 0.0666809 24.8 0.0666809 16C0.0666809 7.19999 7.20001 0.0666656 16 0.0666656C24.8 0.0666656 31.9333 7.19999 31.9333 16C31.9333 24.8 24.8 31.9333 16 31.9333ZM16 1.8C8.20001 1.8 1.80002 8.19999 1.80002 16C1.80002 23.8 8.20001 30.2 16 30.2C23.8 30.2 30.2 23.8 30.2 16C30.2 8.19999 23.8 1.8 16 1.8Z" fill="#000000" />
<path d="M6.66668 27.5333L5.06668 26.8C5.53335 25.6667 7.00001 25.0667 8.66668 24.3333C10.2667 23.6 12.2667 22.7333 12.2667 21.6667V20.2C11.6667 19.7333 10.7333 18.6667 10.6 17.1333C10.1333 16.6667 9.40001 15.8 9.40001 14.7333C9.40001 14.0667 9.66668 13.5333 9.86668 13.2C9.73335 12.4667 9.46667 11 9.46667 9.86666C9.46667 6.2 12 3.8 16 3.8C17.1333 3.8 18.5333 4.13332 19.2667 4.93332C21.0667 5.26666 22.5333 7.4 22.5333 9.86666C22.5333 11.4667 22.2667 12.8 22.0667 13.4C22.2667 13.7333 22.4667 14.2 22.4667 14.7333C22.4667 16 21.8667 16.8 21.2667 17.2C21.1333 18.7333 20.2667 19.7333 19.7333 20.2V21.6667C19.7333 22.6 21.4 23.2 22.9333 23.8C24.7333 24.4667 26.6 25.1333 27.2 26.6667L25.5333 27.2667C25.2667 26.4667 23.6667 25.9333 22.3333 25.4C20.2667 24.6667 17.9333 23.8 17.9333 21.6667V19.2667L18.3333 19C18.4 19 19.5333 18.2 19.5333 16.6667V16.0667L20.0667 15.8667C20.1333 15.8 20.6667 15.5333 20.6667 14.7333C20.6667 14.4667 20.4667 14.2 20.4 14.1333L20.0667 13.7333L20.2 13.2667C20.2 13.2667 20.6667 11.8 20.6667 9.79999C20.6667 8.13333 19.7333 6.59999 18.7333 6.59999H18.2L17.9333 6.13334C17.7333 5.8 16.9333 5.46667 15.8667 5.46667C12.8667 5.46667 11.0667 7.06666 11.0667 9.79999C11.0667 11.0667 11.5333 13.1333 11.5333 13.1333L11.6667 13.6L11.3333 13.9333C11.3333 13.9333 11.0667 14.2667 11.0667 14.6C11.0667 15.0667 11.6667 15.6667 11.9333 15.9333L12.2667 16.2V16.6667C12.2667 18.1333 13.5333 18.9333 13.5333 18.9333L13.9333 19.2V21.6C13.9333 23.8 11.4667 24.9333 9.26667 25.8667C8.33334 26.4 6.93334 27.0667 6.66668 27.5333Z" fill="#000000" />
</symbol><symbol viewBox="0 0 16 16" fill="none" id="balloons">
<g clip-path="url(#balloons_clip0)">
<path d="M4.21847 9.28128L3.80087 10.6783C3.75847 10.8202 3.78559 10.9737 3.87406 11.0925C3.96253 11.2113 4.10191 11.2812 4.25 11.2812H4.71875V12.0246C4.71875 12.5773 4.93397 13.0969 5.32481 13.4877C5.52925 13.6922 5.65625 14.0108 5.65625 14.3192V15.5312C5.65625 15.7901 5.86613 16 6.125 16C6.38387 16 6.59375 15.7901 6.59375 15.5312V14.3192C6.59375 13.7629 6.36719 13.2043 5.98769 12.8248C5.77394 12.611 5.65625 12.3269 5.65625 12.0246V11.2812H6.125C6.27309 11.2812 6.41247 11.2112 6.50094 11.0925C6.58941 10.9737 6.61653 10.8201 6.57412 10.6783L6.15653 9.28128C6.65628 9.15025 7.12203 8.92031 7.53594 8.61097C8.12775 9.42394 8.93728 9.98512 9.84313 10.22L9.42587 11.6158C9.38347 11.7577 9.41059 11.9112 9.49906 12.03C9.58753 12.1488 9.72691 12.2188 9.875 12.2188H10.3438V12.9621C10.3438 13.5183 10.5703 14.077 10.9498 14.4565C11.1636 14.6702 11.2812 14.9544 11.2812 15.2567V15.5312C11.2812 15.7901 11.4911 16 11.75 16C12.0089 16 12.2188 15.7901 12.2188 15.5312V15.2567C12.2188 14.7039 12.0035 14.1843 11.6127 13.7935C11.4082 13.5891 11.2812 13.2705 11.2812 12.9621V12.2188H11.75C11.8981 12.2188 12.0375 12.1487 12.1259 12.03C12.2144 11.9112 12.2415 11.7576 12.1991 11.6158L11.7815 10.2188C13.6422 9.73097 15.0312 7.87053 15.0312 5.65625C15.0312 3.05431 13.1387 0.9375 10.8125 0.9375C9.96737 0.9375 9.1475 1.21841 8.45478 1.73706C7.6805 0.677594 6.50347 0 5.1875 0C2.86128 0 0.96875 2.11681 0.96875 4.71875C0.96875 6.93303 2.35778 8.79347 4.21847 9.28128ZM4.87937 10.3438L5.15972 9.40584C5.169 9.40594 5.17822 9.40625 5.1875 9.40625C5.19678 9.40625 5.206 9.40594 5.21528 9.40584L5.49563 10.3438H4.87937ZM10.5044 11.2812L10.7847 10.3433C10.794 10.3433 10.8032 10.3438 10.8125 10.3438C10.8218 10.3438 10.831 10.3434 10.8403 10.3433L11.1206 11.2812H10.5044ZM10.8125 1.875C12.6218 1.875 14.0938 3.57125 14.0938 5.65625C14.0938 7.724 12.6218 9.40625 10.8125 9.40625C9.79372 9.40625 8.84828 8.87347 8.22762 7.96528C8.95709 7.12228 9.40625 5.97775 9.40625 4.71875C9.40625 3.93784 9.23563 3.20078 8.93412 2.55137C9.48266 2.11322 10.1388 1.875 10.8125 1.875ZM5.1875 0.9375C6.99678 0.9375 8.46875 2.63375 8.46875 4.71875C8.46875 6.7865 6.99678 8.46875 5.1875 8.46875C3.37822 8.46875 1.90625 6.7865 1.90625 4.71875C1.90625 2.63375 3.37822 0.9375 5.1875 0.9375Z" fill="#EA8600" />
</g>
<defs>

</defs>
</symbol><clipPath id="balloons_clip0">
<rect width="16" height="16" fill="white" />
</clipPath><symbol viewBox="0 0 62 62" fill="none" id="calculator">
<g filter="url(#calculator_filter0_d)">
<path d="M31 43C39.8366 43 47 35.8366 47 27C47 18.1634 39.8366 11 31 11C22.1634 11 15 18.1634 15 27C15 35.8366 22.1634 43 31 43Z" fill="#FF1F3D" />
<path d="M47 26.9999C47 26.2363 46.9453 25.4857 46.8419 24.7506L38.9236 16.8376C38.4892 16.3492 37.8573 16.04 37.1562 16.04H24.8438C23.5418 16.04 22.4766 17.1053 22.4766 18.4072V35.5926C22.4766 36.2543 22.7521 36.8545 23.1936 37.285L28.7688 42.8443C29.4981 42.946 30.2427 42.9999 31 42.9999C39.8366 42.9999 47 35.8365 47 26.9999Z" fill="#D70032" />
<path d="M37.1562 37.9598H24.8438C23.5418 37.9598 22.4766 36.8945 22.4766 35.5926V18.4072C22.4766 17.1053 23.5418 16.04 24.8438 16.04H37.1562C38.4582 16.04 39.5234 17.1053 39.5234 18.4072V35.5926C39.5234 36.8945 38.4582 37.9598 37.1562 37.9598Z" fill="#9CFDFF" />
<path d="M39.5238 18.4074V35.5924C39.5238 36.8942 38.4581 37.9599 37.1562 37.9599H31V16.0399H37.1562C38.4581 16.0399 39.5238 17.1055 39.5238 18.4074Z" fill="#00E8F2" />
<path d="M37.5264 18.4363H24.472V22.5006H37.5264V18.4363Z" fill="#7985EB" />
<path d="M29.3675 29.3258H26.2138C25.5666 29.3258 25.0419 28.8011 25.0419 28.154V25.2508C25.0419 24.6037 25.5666 24.079 26.2138 24.079H29.3675C30.0147 24.079 30.5394 24.6037 30.5394 25.2508V28.154C30.5394 28.8012 30.0147 29.3258 29.3675 29.3258Z" fill="#00ACEA" />
<path d="M29.2567 26.338H26.324V27.0656H29.2567V26.338Z" fill="white" />
<path d="M35.7861 35.5635H32.6324C31.9853 35.5635 31.4606 35.0388 31.4606 34.3916V31.4884C31.4606 30.8412 31.9853 30.3165 32.6324 30.3165H35.7861C36.4333 30.3165 36.958 30.8412 36.958 31.4884V34.3916C36.958 35.0388 36.4334 35.5635 35.7861 35.5635Z" fill="#E67500" />
<path d="M35.676 32.5765H32.7434V33.3041H35.676V32.5765Z" fill="#FFF5CB" />
<path d="M34.209 32.2256C34.4833 32.2256 34.7057 32.0032 34.7057 31.7289C34.7057 31.4546 34.4833 31.2322 34.209 31.2322C33.9347 31.2322 33.7123 31.4546 33.7123 31.7289C33.7123 32.0032 33.9347 32.2256 34.209 32.2256Z" fill="#FFF5CB" />
<path d="M34.209 34.6483C34.4833 34.6483 34.7057 34.4259 34.7057 34.1516C34.7057 33.8773 34.4833 33.6549 34.209 33.6549C33.9347 33.6549 33.7123 33.8773 33.7123 34.1516C33.7123 34.4259 33.9347 34.6483 34.209 34.6483Z" fill="#FFF5CB" />
<path d="M35.7861 29.3258H32.6324C31.9853 29.3258 31.4606 28.8011 31.4606 28.154V25.2508C31.4606 24.6037 31.9853 24.079 32.6324 24.079H35.7861C36.4333 24.079 36.958 24.6037 36.958 25.2508V28.154C36.958 28.8012 36.4334 29.3258 35.7861 29.3258Z" fill="#0070B4" />
<path d="M35.677 26.3385H34.5745V25.2359H33.8469V26.3385H32.7444V27.0661H33.8469V28.1686H34.5745V27.0661H35.677V26.3385Z" fill="#FFF5CB" />
<path d="M29.3675 35.5635H26.2138C25.5666 35.5635 25.0419 35.0388 25.0419 34.3916V31.4884C25.0419 30.8412 25.5666 30.3165 26.2138 30.3165H29.3675C30.0147 30.3165 30.5394 30.8412 30.5394 31.4884V34.3916C30.5394 35.0388 30.0147 35.5635 29.3675 35.5635Z" fill="#00ACEA" />
<path d="M29.0843 33.7196L28.3047 32.94L29.0843 32.1604L28.5698 31.6459L27.7902 32.4255L27.0107 31.6459L26.4961 32.1604L27.2757 32.94L26.4961 33.7196L27.0107 34.2341L27.7902 33.4545L28.5698 34.2341L29.0843 33.7196Z" fill="white" />
<path d="M37.5275 18.4363H31V22.5013H37.5275V18.4363Z" fill="#1C2EDE" />
</g>
<defs>

</defs>
</symbol><filter id="calculator_filter0_d" x="0" y="0" width="62" height="62" filterUnits="userSpaceOnUse" color-interpolation-filters="sRGB">
<feFlood flood-opacity="0" result="BackgroundImageFix"></feFlood>
<feColorMatrix in="SourceAlpha" type="matrix" values="0 0 0 0 0 0 0 0 0 0 0 0 0 0 0 0 0 0 127 0"></feColorMatrix>
<feOffset dy="4"></feOffset>
<feGaussianBlur stdDeviation="7.5"></feGaussianBlur>
<feColorMatrix type="matrix" values="0 0 0 0 0 0 0 0 0 0 0 0 0 0 0 0 0 0 0.15 0"></feColorMatrix>
<feBlend mode="normal" in2="BackgroundImageFix" result="effect1_dropShadow"></feBlend>
<feBlend mode="normal" in="SourceGraphic" in2="effect1_dropShadow" result="shape"></feBlend>
</filter><symbol viewBox="0 0 277 104" fill="none" id="chatbot">
<rect y="0" width="277" height="104" fill="#263238" />
<path d="M277 39.007C269.371 32.7501 245.673 23 211.039 23C185.96 23 153.805 40.1761 142.014 44.4195C122.259 51.5293 91.7781 50.5641 81.115 49.1246C71.0997 47.7726 50.6388 39.9405 44.2117 36.9297C25.8719 28.3384 14.8934 23 0 23V90H277V39.007Z" fill="url(#chatbot_paint0_linear)" />
<path d="M0 65.5622C7.62936 61.0427 31.3269 54 65.961 54C91.0401 54 123.195 66.4067 134.986 69.4717C154.741 74.6072 185.222 73.9101 195.885 72.8703C205.9 71.8937 226.361 66.2365 232.788 64.0617C251.128 57.856 262.107 54 277 54V109.5H0L0 65.5622Z" fill="url(#chatbot_paint1_linear)" />
<path d="M256.455 52.9063C254.922 46.4454 251.601 40.5468 246.871 35.8864C242.141 31.226 236.194 27.9923 229.711 26.5558C223.228 25.1192 216.472 25.538 210.216 27.7641C203.96 29.9902 198.458 33.9335 194.34 39.1423C190.222 44.3511 187.654 50.6147 186.931 57.2153C186.208 63.816 187.36 70.4868 190.253 76.4633C193.146 82.4399 197.665 87.4805 203.291 91.0077C208.917 94.5348 215.422 96.4058 222.063 96.4063V107.281C224.395 106.9 226.675 106.252 228.859 105.351" stroke="#15232B" stroke-width="2" stroke-linejoin="round" />
<path d="M224.781 78.843C224.781 74.5413 226.057 70.3361 228.447 66.7594C230.837 63.1826 234.234 60.3949 238.208 58.7486C242.182 57.1024 246.555 56.6717 250.774 57.5109C254.994 58.3502 258.869 60.4217 261.911 63.4635C264.953 66.5052 267.024 70.3807 267.863 74.5998C268.703 78.8189 268.272 83.1921 266.626 87.1664C264.979 91.1407 262.192 94.5376 258.615 96.9275C255.038 99.3174 250.833 100.593 246.531 100.593V107.281C246.531 107.281 235.656 105.813 234.134 96.7052C231.249 94.7039 228.891 92.0339 227.263 88.9233C225.634 85.8128 224.783 82.3542 224.781 78.843V78.843Z" stroke="#15232B" stroke-width="2" stroke-linejoin="round" />
<path d="M205.75 44.75H238.375" stroke="#15232B" stroke-width="2" stroke-linejoin="round" />
<path d="M205.75 58.3438H224.781" stroke="#15232B" stroke-width="2" stroke-linejoin="round" />
<path d="M205.75 71.9375H219.344" stroke="#15232B" stroke-width="2" stroke-linejoin="round" />
<path d="M235.656 74.6562H257.406" stroke="#15232B" stroke-width="2" stroke-linejoin="round" />
<path d="M235.656 85.5312H257.406" stroke="#15232B" stroke-width="2" stroke-linejoin="round" />
<defs>


</defs>
</symbol><linearGradient id="chatbot_paint0_linear" x1="138.5" y1="23" x2="138.5" y2="87.6897" gradientUnits="userSpaceOnUse">
<stop stop-color="#2E3F47" />
<stop offset="1" stop-color="#2E3F47" stop-opacity="0" />
</linearGradient><linearGradient id="chatbot_paint1_linear" x1="147.252" y1="54" x2="147.252" y2="130" gradientUnits="userSpaceOnUse">
<stop stop-color="#2E3F47" />
<stop offset="1" stop-color="#2E3F47" stop-opacity="0" />
</linearGradient><symbol viewBox="0 0 21 20" fill="none" id="check">
<g clip-path="url(#check_clip0)">
<path d="M10.2451 19.9935C15.9033 19.9935 20.4902 15.5193 20.4902 10C20.4902 4.48082 15.9033 0.00660324 10.2451 0.00660324C4.58688 0.00660324 0 4.48082 0 10C0 15.5193 4.58688 19.9935 10.2451 19.9935Z" fill="#32BEA6" />
<path d="M9.42387 15.3157L4.57986 11.6323L5.95719 9.90695L8.93179 12.1688L13.8411 5.25414L15.6833 6.49976L9.42387 15.3157Z" fill="white" />
</g>
<defs>

</defs>
</symbol><clipPath id="check_clip0">
<rect width="20.4902" height="20" fill="white" />
</clipPath><symbol viewBox="0 0 14 11" fill="none" id="checked">
<path d="M1.5 4.18182L6.34 9.5L12.5 0.5" stroke="white" stroke-width="1.5" />
</symbol><symbol viewBox="0 0 20 20" fill="none" id="checked_red">
<path d="M6.66563 18.0688L0 11.4157L1.83437 9.5813L6.66563 14.4032L18.1656 2.92505L20 4.75942L6.66563 18.0688Z" fill="#D70032" />
</symbol><symbol viewBox="0 0 18 18" fill="none" id="close">
<path d="M1 17L17 1" stroke="#D70032" stroke-width="2" />
<path d="M17 17L1 0.999999" stroke="#D70032" stroke-width="2" />
</symbol><symbol viewBox="0 0 28 28" fill="none" id="close_gray">
<path d="M1 27L27 1" stroke="#C4C4C4" stroke-width="2" />
<path d="M27 27L1 1" stroke="#C4C4C4" stroke-width="2" />
</symbol><symbol viewBox="0 0 14 16" fill="none" id="coins">
<path d="M13.9992 8.7874C13.9992 7.42607 11.6125 6.69466 9.3763 6.67367V5.80227C10.4472 5.45232 11.2066 4.87839 11.2066 4.10849V2.09974C11.2066 0.727909 8.79188 0 6.52066 0C4.24944 0 1.83475 0.741907 1.83475 2.09974V3.93351C0.672893 4.32546 0.000976562 4.93088 0.000976562 5.6273V7.63604C0.000976562 8.99737 2.37018 9.73578 4.6204 9.73578V10.7857C4.62315 10.9797 4.6749 11.1699 4.77088 11.3386C4.67434 11.507 4.62254 11.6974 4.6204 11.8915V13.9003C4.6204 15.2721 7.0351 16 9.30631 16C11.5775 16 13.9992 15.2791 13.9992 13.9073V11.8985C13.9969 11.7044 13.9451 11.5141 13.8487 11.3456C13.943 11.18 13.9947 10.9936 13.9992 10.8031V8.7874ZM13.2818 8.7734C13.2818 9.34733 11.7805 10.2012 9.30981 10.2012C8.24927 10.2293 7.19455 10.0362 6.2127 9.6343C7.92399 9.37883 9.36231 8.69991 9.36231 7.63255V7.37358C11.791 7.37358 13.2818 8.19947 13.2818 8.7734ZM11.77 10.6002V11.888C11.5351 11.9556 11.2968 12.0105 11.0561 12.0525L11.0701 12.049V10.7507C11.3081 10.7087 11.5425 10.6597 11.77 10.6002ZM10.3702 10.8486V12.154C10.1497 12.175 9.90124 12.203 9.65977 12.203L9.67027 12.196V10.8941C9.90124 10.8941 10.1357 10.8696 10.3702 10.8486ZM8.97036 10.8941V12.203C8.71839 12.203 8.48742 12.175 8.26694 12.154L8.27044 12.1505V10.8486C8.49791 10.8696 8.72888 10.8871 8.97036 10.8941ZM7.57053 10.7577V12.056C7.33444 12.0122 7.10084 11.9562 6.87062 11.888V11.8845V10.6072C7.09109 10.6667 7.32206 10.7157 7.57053 10.7577ZM6.42967 8.89589V7.59405C6.67464 7.55206 6.90561 7.50306 7.12958 7.44357V8.72791C6.89936 8.79606 6.66576 8.85214 6.42967 8.89589ZM8.68689 6.77865V7.63954C8.68689 7.90201 8.38593 8.20997 7.84 8.46894V7.2196C8.13602 7.10643 8.41694 6.95717 8.67639 6.77515L8.68689 6.77865ZM8.27044 5.37183V4.06649C8.50491 4.0245 8.74988 3.9755 8.95986 3.91601H8.97036V5.20385C8.74013 5.272 8.50653 5.32808 8.27044 5.37183ZM10.4997 4.10849C10.4997 4.37095 10.2022 4.67892 9.65277 4.93788V3.69204C9.95246 3.57966 10.2369 3.43036 10.4997 3.24759V4.10849ZM6.52066 0.685914C8.98785 0.685914 10.5067 1.50831 10.5067 2.08574C10.5067 2.66317 8.99135 3.48556 6.52066 3.48556C4.04997 3.48556 2.53466 2.66317 2.53466 2.08574C2.53466 1.50831 4.05347 0.685914 6.52066 0.685914ZM7.57053 4.15748V5.46282C7.35006 5.48731 7.11909 5.50131 6.87062 5.50831V4.20647C7.10159 4.19948 7.35006 4.18198 7.56703 4.15398L7.57053 4.15748ZM6.1707 4.20647V5.50831C5.92923 5.50831 5.69826 5.48381 5.47079 5.46282V4.15398C5.70408 4.17966 5.93742 4.19716 6.1707 4.20647ZM4.77088 4.06584V5.36483C4.53483 5.32104 4.3012 5.26496 4.07097 5.19685V3.91601C4.30426 3.9752 4.54783 4.02397 4.77088 4.06584ZM2.53116 3.24409C2.79389 3.42686 3.07836 3.57616 3.37805 3.68854V4.93438C2.83212 4.67192 2.53116 4.36745 2.53116 4.10499V3.24409ZM0.700889 7.63255V6.77515C0.963619 6.95792 1.24809 7.10722 1.54778 7.2196L1.55128 8.46544C1.00535 8.20297 0.700889 7.89501 0.700889 7.63255ZM2.95111 8.89589C2.71502 8.85214 2.48142 8.79606 2.2512 8.72791V7.44357C2.47517 7.50306 2.70614 7.55206 2.95111 7.59405V8.89589ZM4.35093 9.04287C4.10946 9.04287 3.87849 9.01837 3.65102 8.99737V7.68504C3.88199 7.70954 4.11296 7.72353 4.35093 7.73053V9.04287ZM4.70089 7.04462C2.2337 7.04462 0.714887 6.22222 0.714887 5.64479C0.714887 5.29484 1.20133 4.91689 1.97473 4.64392C2.49616 5.69379 4.56791 6.23972 6.52416 6.23972C7.17482 6.23959 7.82403 6.17747 8.46292 6.05424C7.96248 6.53718 6.61865 7.04112 4.69039 7.04112L4.70089 7.04462ZM5.02985 9.03937V7.73403C5.26432 7.73403 5.49529 7.70954 5.72976 7.68854V8.99388C5.50929 9.01837 5.27832 9.03237 5.02985 9.03937ZM6.1707 10.3797H6.16021V11.6255C5.61427 11.3631 5.31331 11.0586 5.31331 10.7962V9.93176C5.57915 10.1165 5.86721 10.267 6.1707 10.3797ZM6.16021 14.7367C5.61427 14.4742 5.31331 14.1697 5.31331 13.9073V13.0464C5.57604 13.2291 5.86051 13.3784 6.16021 13.4908V14.7367ZM7.56003 15.1671C7.32394 15.1234 7.09035 15.0673 6.86012 14.9991V13.7148C7.08409 13.7743 7.31506 13.8233 7.56003 13.8653V15.1671ZM8.95986 15.3141C8.71839 15.3141 8.48742 15.2896 8.25994 15.2686V13.9528C8.49091 13.9773 8.72189 13.9913 8.95986 13.9983V15.3141ZM5.33081 11.944C6.2127 12.5739 7.7805 12.9064 9.30981 12.9064C10.8391 12.9064 12.4069 12.5564 13.2888 11.944C13.2153 12.5284 11.7175 13.3123 9.30981 13.3123C6.90211 13.3123 5.4078 12.5319 5.33081 11.944ZM10.3702 15.2616C10.1497 15.2826 9.91874 15.3001 9.67027 15.3071V14.0052C9.90124 14.0052 10.1357 13.9808 10.3702 13.9598V15.2616ZM11.77 14.9956C11.5398 15.0639 11.3062 15.1199 11.0701 15.1636V13.8653C11.3081 13.8233 11.5425 13.7743 11.77 13.7148V14.9956ZM13.2993 13.9073C13.2993 14.1697 12.9984 14.4777 12.4524 14.7367V13.4908C12.7521 13.3784 13.0366 13.2291 13.2993 13.0464V13.9073ZM13.2993 10.8031C13.2993 11.0656 12.9984 11.3736 12.4524 11.6325V10.3797C12.7523 10.2662 13.0368 10.1157 13.2993 9.93176V10.8031Z" fill="#519A26" />
</symbol><symbol viewBox="0 0 33 32" fill="none" id="data_analysis">
<path d="M28.7039 4.56795L27.3174 4.33328V4.16261C27.3174 3.73827 27.1087 3.3313 26.7373 3.03124C26.3658 2.73118 25.862 2.56261 25.3367 2.56261H17.9288L10.7124 1.20795C10.4574 1.15903 10.193 1.15147 9.93433 1.18571C9.67571 1.21995 9.42807 1.29531 9.20576 1.40742C8.98345 1.51954 8.7909 1.66617 8.63925 1.83883C8.48761 2.01149 8.37989 2.20675 8.32233 2.41328L8.28272 2.55728H6.85C6.32468 2.55728 5.82088 2.72585 5.44942 3.02591C5.07796 3.32597 4.86928 3.73293 4.86928 4.15728V14.4986L1.99064 24.5999C1.93106 24.8055 1.92245 25.0186 1.96531 25.2269C2.00817 25.4352 2.10165 25.6346 2.24036 25.8136C2.37907 25.9926 2.56027 26.1476 2.77351 26.2698C2.98674 26.3919 3.2278 26.4788 3.48278 26.5253L4.86928 26.7866V26.9306C4.86928 27.355 5.07796 27.7619 5.44942 28.062C5.82088 28.362 6.32468 28.5306 6.85 28.5306H14.3239L14.3965 28.5573L21.4743 29.8799C21.7293 29.9289 21.9938 29.9364 22.2524 29.9022C22.511 29.8679 22.7586 29.7926 22.9809 29.6805C23.2033 29.5684 23.3958 29.4217 23.5475 29.2491C23.6991 29.0764 23.8068 28.8811 23.8644 28.6746L23.904 28.5306H25.3367C25.862 28.5306 26.3658 28.362 26.7373 28.062C27.1087 27.7619 27.3174 27.355 27.3174 26.9306V16.5679L30.1961 6.49328C30.2556 6.28768 30.2643 6.07458 30.2214 5.86628C30.1785 5.65798 30.0851 5.45859 29.9463 5.27961C29.8076 5.10063 29.6264 4.9456 29.4132 4.82346C29.2 4.70131 28.9589 4.61447 28.7039 4.56795ZM4.86928 25.6666L3.77989 25.4586C3.69403 25.4435 3.61276 25.4148 3.54085 25.374C3.46894 25.3332 3.40783 25.2812 3.36109 25.2211C3.31436 25.161 3.28295 25.094 3.2687 25.024C3.25445 24.9539 3.25765 24.8823 3.2781 24.8133L4.86928 19.2666V25.6666ZM10.4153 2.24795L12.0593 2.55728H9.66262C9.72358 2.44281 9.83224 2.3492 9.96973 2.2927C10.1072 2.23619 10.2649 2.22036 10.4153 2.24795ZM21.7714 28.8186L20.134 28.5093H22.5241C22.4631 28.6237 22.3545 28.7174 22.217 28.7739C22.0795 28.8304 21.9218 28.8462 21.7714 28.8186ZM25.9969 26.9039C25.9969 27.0454 25.9274 27.1811 25.8036 27.2811C25.6797 27.3811 25.5118 27.4373 25.3367 27.4373H6.85C6.67489 27.4373 6.50696 27.3811 6.38314 27.2811C6.25932 27.1811 6.18976 27.0454 6.18976 26.9039V4.16261C6.18976 4.02116 6.25932 3.88551 6.38314 3.78549C6.50696 3.68547 6.67489 3.62928 6.85 3.62928H25.3367C25.5118 3.62928 25.6797 3.68547 25.8036 3.78549C25.9274 3.88551 25.9969 4.02116 25.9969 4.16261V26.9039ZM28.9086 6.25328L27.3174 11.8266V5.39995L28.4068 5.60261C28.4934 5.61765 28.5753 5.64659 28.6477 5.68772C28.7202 5.72885 28.7816 5.78133 28.8284 5.84203C28.8753 5.90274 28.9065 5.97043 28.9202 6.04108C28.934 6.11173 28.9301 6.18389 28.9086 6.25328Z" fill="#333333" />
<path d="M22.6957 24.5093H10.1512V20.1733C10.1512 20.0319 10.0816 19.8962 9.95779 19.7962C9.83397 19.6962 9.66603 19.64 9.49093 19.64C9.31582 19.64 9.14789 19.6962 9.02407 19.7962C8.90025 19.8962 8.83069 20.0319 8.83069 20.1733V25.0427C8.83069 25.1841 8.90025 25.3198 9.02407 25.4198C9.14789 25.5198 9.31582 25.576 9.49093 25.576H22.6957C22.8708 25.576 23.0388 25.5198 23.1626 25.4198C23.2864 25.3198 23.356 25.1841 23.356 25.0427C23.356 24.9012 23.2864 24.7656 23.1626 24.6655C23.0388 24.5655 22.8708 24.5093 22.6957 24.5093Z" fill="#333333" />
<path d="M11.6896 10.8506C12.4484 10.8506 13.1762 10.6074 13.7134 10.1745C14.2506 9.74156 14.5532 9.15418 14.555 8.54122C14.551 8.11214 14.3977 7.69262 14.1126 7.33055L15.3143 6.36522C15.4386 6.26479 15.5084 6.12858 15.5084 5.98655C15.5084 5.84452 15.4386 5.70831 15.3143 5.60788C15.1899 5.50746 15.0213 5.45103 14.8455 5.45103C14.6697 5.45103 14.5011 5.50746 14.3767 5.60788L11.683 7.78388L10.1842 6.57322C10.0605 6.47388 9.89317 6.41813 9.71874 6.41813C9.54432 6.41813 9.37698 6.47388 9.25327 6.57322C9.1303 6.67314 9.06128 6.80832 9.06128 6.94922C9.06128 7.09012 9.1303 7.22529 9.25327 7.32522C8.97364 7.69038 8.82719 8.11185 8.83072 8.54122C8.83072 9.15369 9.13192 9.74108 9.66805 10.1742C10.2042 10.6072 10.9313 10.8506 11.6896 10.8506ZM10.2436 8.12522L11.2274 8.91988C11.3504 9.01841 11.5163 9.07396 11.6896 9.07455C11.8559 9.06987 12.0139 9.01463 12.1319 8.91988L13.1157 8.12522C13.173 8.25917 13.2042 8.39952 13.2081 8.54122C13.1825 8.85741 13.0089 9.1539 12.7226 9.37052C12.4363 9.58714 12.0587 9.70768 11.6664 9.70768C11.2742 9.70768 10.8966 9.58714 10.6103 9.37052C10.324 9.1539 10.1504 8.85741 10.1248 8.54122C10.1339 8.39799 10.1741 8.25717 10.2436 8.12522Z" fill="#333333" />
<path d="M11.6895 16.6962C12.2565 16.6973 12.8112 16.5624 13.2833 16.3087C13.7554 16.055 14.1237 15.6939 14.3415 15.271C14.5594 14.8482 14.6171 14.3826 14.5073 13.9332C14.3975 13.4839 14.1251 13.071 13.7246 12.7467C13.3242 12.4225 12.8136 12.2015 12.2576 12.1117C11.7016 12.022 11.1251 12.0675 10.6011 12.2426C10.0771 12.4176 9.62922 12.7143 9.31406 13.095C8.99891 13.4758 8.83069 13.9235 8.83069 14.3815C8.83242 14.9941 9.13397 15.5812 9.66954 16.0148C10.2051 16.4485 10.9312 16.6934 11.6895 16.6962ZM11.6895 13.1389C11.9956 13.1378 12.2953 13.2103 12.5503 13.347C12.8054 13.4837 13.0045 13.6786 13.1222 13.9068C13.24 14.1351 13.2711 14.3864 13.2117 14.629C13.1523 14.8716 13.005 15.0945 12.7886 15.2693C12.5721 15.4442 12.2962 15.5632 11.9959 15.6111C11.6956 15.6591 11.3844 15.634 11.1018 15.5388C10.8193 15.4437 10.578 15.2829 10.4088 15.0769C10.2395 14.8708 10.1499 14.6288 10.1512 14.3815C10.1529 14.0524 10.3155 13.7371 10.6037 13.5044C10.8918 13.2717 11.2821 13.1403 11.6895 13.1389Z" fill="#333333" />
<path d="M22.6957 17.8696H20.1076C19.9325 17.8696 19.7646 17.9258 19.6407 18.0258C19.5169 18.1258 19.4474 18.2615 19.4474 18.4029C19.4474 18.5444 19.5169 18.6801 19.6407 18.7801C19.7646 18.8801 19.9325 18.9363 20.1076 18.9363H21.1046L17.4138 21.9336L14.8191 19.8003C14.6954 19.7009 14.528 19.6452 14.3536 19.6452C14.1792 19.6452 14.0118 19.7009 13.8881 19.8003L11.5245 21.7149C11.4554 21.7628 11.3992 21.8216 11.3596 21.8878C11.32 21.9539 11.2977 22.026 11.2942 22.0995C11.2907 22.1729 11.306 22.2461 11.3392 22.3146C11.3724 22.383 11.4227 22.4452 11.4871 22.4972C11.5514 22.5491 11.6284 22.5898 11.7131 22.6166C11.7978 22.6434 11.8885 22.6558 11.9794 22.653C12.0704 22.6501 12.1596 22.6321 12.2415 22.6001C12.3234 22.5681 12.3962 22.5228 12.4554 22.4669L14.3569 20.9309L16.9451 23.0269C17.0064 23.0769 17.0795 23.1166 17.1599 23.1437C17.2404 23.1708 17.3267 23.1847 17.4138 23.1847C17.501 23.1847 17.5873 23.1708 17.6677 23.1437C17.7482 23.1166 17.8212 23.0769 17.8826 23.0269L22.0355 19.6936V20.4936C22.0355 20.6351 22.1051 20.7707 22.2289 20.8707C22.3527 20.9708 22.5206 21.0269 22.6957 21.0269C22.8708 21.0269 23.0388 20.9708 23.1626 20.8707C23.2864 20.7707 23.356 20.6351 23.356 20.4936V18.4029C23.356 18.2615 23.2864 18.1258 23.1626 18.0258C23.0388 17.9258 22.8708 17.8696 22.6957 17.8696Z" fill="#333333" />
<path d="M16.9715 13.8481H19.8039C19.979 13.8481 20.147 13.7919 20.2708 13.6919C20.3946 13.5919 20.4642 13.4562 20.4642 13.3148C20.4642 13.1733 20.3946 13.0376 20.2708 12.9376C20.147 12.8376 19.979 12.7814 19.8039 12.7814H16.9715C16.7964 12.7814 16.6284 12.8376 16.5046 12.9376C16.3808 13.0376 16.3112 13.1733 16.3112 13.3148C16.3112 13.4562 16.3808 13.5919 16.5046 13.6919C16.6284 13.7919 16.7964 13.8481 16.9715 13.8481Z" fill="#333333" />
<path d="M16.9715 15.9864H22.4053C22.5804 15.9864 22.7483 15.9302 22.8721 15.8302C22.9959 15.7302 23.0655 15.5946 23.0655 15.4531C23.0655 15.3117 22.9959 15.176 22.8721 15.076C22.7483 14.976 22.5804 14.9198 22.4053 14.9198H16.9715C16.7964 14.9198 16.6284 14.976 16.5046 15.076C16.3808 15.176 16.3112 15.3117 16.3112 15.4531C16.3112 15.5946 16.3808 15.7302 16.5046 15.8302C16.6284 15.9302 16.7964 15.9864 16.9715 15.9864Z" fill="#333333" />
<path d="M16.9715 8.00783H19.8039C19.979 8.00783 20.147 7.95164 20.2708 7.85162C20.3946 7.7516 20.4642 7.61595 20.4642 7.4745C20.4642 7.33305 20.3946 7.19739 20.2708 7.09737C20.147 6.99735 19.979 6.94116 19.8039 6.94116H16.9715C16.7964 6.94116 16.6284 6.99735 16.5046 7.09737C16.3808 7.19739 16.3112 7.33305 16.3112 7.4745C16.3112 7.61595 16.3808 7.7516 16.5046 7.85162C16.6284 7.95164 16.7964 8.00783 16.9715 8.00783Z" fill="#333333" />
<path d="M16.9715 10.1416H22.4053C22.5804 10.1416 22.7483 10.0854 22.8721 9.98535C22.9959 9.88533 23.0655 9.74967 23.0655 9.60822C23.0655 9.46677 22.9959 9.33112 22.8721 9.2311C22.7483 9.13108 22.5804 9.07489 22.4053 9.07489H16.9715C16.7964 9.07489 16.6284 9.13108 16.5046 9.2311C16.3808 9.33112 16.3112 9.46677 16.3112 9.60822C16.3112 9.74967 16.3808 9.88533 16.5046 9.98535C16.6284 10.0854 16.7964 10.1416 16.9715 10.1416Z" fill="#333333" />
</symbol><symbol viewBox="0 0 33 32" fill="none" id="data_analysis_white">
<path d="M28.7039 4.56794L27.3174 4.33328V4.16261C27.3174 3.73826 27.1087 3.3313 26.7373 3.03124C26.3658 2.73118 25.862 2.56261 25.3367 2.56261H17.9288L10.7124 1.20794C10.4574 1.15902 10.193 1.15146 9.93433 1.18571C9.67571 1.21995 9.42807 1.29531 9.20576 1.40742C8.98345 1.51953 8.7909 1.66617 8.63925 1.83883C8.48761 2.01149 8.37989 2.20674 8.32233 2.41328L8.28272 2.55728H6.85C6.32468 2.55728 5.82088 2.72585 5.44942 3.0259C5.07796 3.32596 4.86928 3.73293 4.86928 4.15728V14.4986L1.99064 24.5999C1.93106 24.8055 1.92245 25.0186 1.96531 25.2269C2.00817 25.4352 2.10165 25.6346 2.24036 25.8136C2.37907 25.9926 2.56027 26.1476 2.77351 26.2698C2.98674 26.3919 3.2278 26.4787 3.48278 26.5253L4.86928 26.7866V26.9306C4.86928 27.355 5.07796 27.7619 5.44942 28.062C5.82088 28.362 6.32468 28.5306 6.85 28.5306H14.3239L14.3965 28.5573L21.4743 29.8799C21.7293 29.9289 21.9938 29.9364 22.2524 29.9022C22.511 29.8679 22.7586 29.7926 22.9809 29.6805C23.2033 29.5684 23.3958 29.4217 23.5475 29.2491C23.6991 29.0764 23.8068 28.8811 23.8644 28.6746L23.904 28.5306H25.3367C25.862 28.5306 26.3658 28.362 26.7373 28.062C27.1087 27.7619 27.3174 27.355 27.3174 26.9306V16.5679L30.1961 6.49328C30.2556 6.28767 30.2643 6.07458 30.2214 5.86628C30.1785 5.65797 30.0851 5.45858 29.9463 5.27961C29.8076 5.10063 29.6264 4.9456 29.4132 4.82345C29.2 4.70131 28.9589 4.61447 28.7039 4.56794ZM4.86928 25.6666L3.77989 25.4586C3.69403 25.4435 3.61276 25.4148 3.54085 25.374C3.46894 25.3332 3.40783 25.2812 3.36109 25.2211C3.31436 25.161 3.28295 25.094 3.2687 25.024C3.25445 24.9539 3.25765 24.8823 3.2781 24.8133L4.86928 19.2666V25.6666ZM10.4153 2.24794L12.0593 2.55728H9.66262C9.72358 2.44281 9.83224 2.3492 9.96973 2.29269C10.1072 2.23619 10.2649 2.22035 10.4153 2.24794ZM21.7714 28.8186L20.134 28.5093H22.5241C22.4631 28.6237 22.3545 28.7174 22.217 28.7739C22.0795 28.8304 21.9218 28.8462 21.7714 28.8186ZM25.9969 26.9039C25.9969 27.0454 25.9274 27.181 25.8036 27.2811C25.6797 27.3811 25.5118 27.4373 25.3367 27.4373H6.85C6.67489 27.4373 6.50696 27.3811 6.38314 27.2811C6.25932 27.181 6.18976 27.0454 6.18976 26.9039V4.16261C6.18976 4.02116 6.25932 3.8855 6.38314 3.78549C6.50696 3.68547 6.67489 3.62928 6.85 3.62928H25.3367C25.5118 3.62928 25.6797 3.68547 25.8036 3.78549C25.9274 3.8855 25.9969 4.02116 25.9969 4.16261V26.9039ZM28.9086 6.25328L27.3174 11.8266V5.39994L28.4068 5.60261C28.4934 5.61764 28.5753 5.64658 28.6477 5.68772C28.7202 5.72885 28.7816 5.78132 28.8284 5.84203C28.8753 5.90273 28.9065 5.97042 28.9202 6.04107C28.934 6.11172 28.9301 6.18389 28.9086 6.25328Z" fill="white" />
<path d="M22.6957 24.5093H10.1512V20.1733C10.1512 20.0319 10.0816 19.8962 9.95779 19.7962C9.83397 19.6962 9.66603 19.64 9.49093 19.64C9.31582 19.64 9.14789 19.6962 9.02407 19.7962C8.90025 19.8962 8.83069 20.0319 8.83069 20.1733V25.0427C8.83069 25.1841 8.90025 25.3198 9.02407 25.4198C9.14789 25.5198 9.31582 25.576 9.49093 25.576H22.6957C22.8708 25.576 23.0388 25.5198 23.1626 25.4198C23.2864 25.3198 23.356 25.1841 23.356 25.0427C23.356 24.9012 23.2864 24.7656 23.1626 24.6655C23.0388 24.5655 22.8708 24.5093 22.6957 24.5093Z" fill="white" />
<path d="M11.6896 10.8505C12.4484 10.8506 13.1762 10.6074 13.7134 10.1745C14.2506 9.74155 14.5532 9.15418 14.555 8.54122C14.551 8.11214 14.3977 7.69261 14.1126 7.33055L15.3143 6.36522C15.4386 6.26479 15.5084 6.12858 15.5084 5.98655C15.5084 5.84452 15.4386 5.70831 15.3143 5.60788C15.1899 5.50745 15.0213 5.45103 14.8455 5.45103C14.6697 5.45103 14.5011 5.50745 14.3767 5.60788L11.683 7.78388L10.1842 6.57322C10.0605 6.47388 9.89317 6.41813 9.71874 6.41813C9.54432 6.41813 9.37698 6.47388 9.25327 6.57322C9.1303 6.67314 9.06128 6.80832 9.06128 6.94922C9.06128 7.09011 9.1303 7.22529 9.25327 7.32522C8.97364 7.69038 8.82719 8.11185 8.83072 8.54122C8.83072 9.15369 9.13192 9.74108 9.66805 10.1742C10.2042 10.6072 10.9313 10.8505 11.6896 10.8505ZM10.2436 8.12522L11.2274 8.91988C11.3504 9.01841 11.5163 9.07396 11.6896 9.07455C11.8559 9.06987 12.0139 9.01463 12.1319 8.91988L13.1157 8.12522C13.173 8.25917 13.2042 8.39951 13.2081 8.54122C13.1825 8.85741 13.0089 9.1539 12.7226 9.37052C12.4363 9.58714 12.0587 9.70767 11.6664 9.70767C11.2742 9.70767 10.8966 9.58714 10.6103 9.37052C10.324 9.1539 10.1504 8.85741 10.1248 8.54122C10.1339 8.39799 10.1741 8.25717 10.2436 8.12522Z" fill="white" />
<path d="M11.6895 16.6962C12.2565 16.6973 12.8112 16.5624 13.2833 16.3087C13.7554 16.055 14.1237 15.6939 14.3415 15.271C14.5594 14.8482 14.6171 14.3826 14.5073 13.9332C14.3975 13.4839 14.1251 13.071 13.7246 12.7467C13.3242 12.4225 12.8136 12.2015 12.2576 12.1117C11.7016 12.022 11.1251 12.0675 10.6011 12.2426C10.0771 12.4176 9.62922 12.7143 9.31406 13.095C8.99891 13.4758 8.83069 13.9235 8.83069 14.3815C8.83242 14.9941 9.13397 15.5812 9.66954 16.0148C10.2051 16.4485 10.9312 16.6934 11.6895 16.6962ZM11.6895 13.1389C11.9956 13.1378 12.2953 13.2103 12.5503 13.347C12.8054 13.4837 13.0045 13.6786 13.1222 13.9068C13.24 14.1351 13.2711 14.3864 13.2117 14.629C13.1523 14.8716 13.005 15.0945 12.7886 15.2693C12.5721 15.4442 12.2962 15.5632 11.9959 15.6111C11.6956 15.6591 11.3844 15.634 11.1018 15.5388C10.8193 15.4437 10.578 15.2829 10.4088 15.0769C10.2395 14.8708 10.1499 14.6288 10.1512 14.3815C10.1529 14.0524 10.3155 13.7371 10.6037 13.5044C10.8918 13.2717 11.2821 13.1403 11.6895 13.1389Z" fill="white" />
<path d="M22.6957 17.8696H20.1076C19.9325 17.8696 19.7646 17.9258 19.6407 18.0258C19.5169 18.1258 19.4474 18.2615 19.4474 18.4029C19.4474 18.5444 19.5169 18.68 19.6407 18.7801C19.7646 18.8801 19.9325 18.9363 20.1076 18.9363H21.1046L17.4138 21.9336L14.8191 19.8003C14.6954 19.7009 14.528 19.6452 14.3536 19.6452C14.1792 19.6452 14.0118 19.7009 13.8881 19.8003L11.5245 21.7149C11.4554 21.7628 11.3992 21.8216 11.3596 21.8878C11.32 21.9539 11.2977 22.026 11.2942 22.0994C11.2907 22.1729 11.306 22.2461 11.3392 22.3146C11.3724 22.383 11.4227 22.4452 11.4871 22.4972C11.5514 22.5491 11.6284 22.5898 11.7131 22.6166C11.7978 22.6434 11.8885 22.6558 11.9794 22.653C12.0704 22.6501 12.1596 22.6321 12.2415 22.6001C12.3234 22.5681 12.3962 22.5228 12.4554 22.4669L14.3569 20.9309L16.9451 23.0269C17.0064 23.0769 17.0795 23.1166 17.1599 23.1437C17.2404 23.1708 17.3267 23.1847 17.4138 23.1847C17.501 23.1847 17.5873 23.1708 17.6677 23.1437C17.7482 23.1166 17.8212 23.0769 17.8826 23.0269L22.0355 19.6936V20.4936C22.0355 20.6351 22.1051 20.7707 22.2289 20.8707C22.3527 20.9707 22.5206 21.0269 22.6957 21.0269C22.8708 21.0269 23.0388 20.9707 23.1626 20.8707C23.2864 20.7707 23.356 20.6351 23.356 20.4936V18.4029C23.356 18.2615 23.2864 18.1258 23.1626 18.0258C23.0388 17.9258 22.8708 17.8696 22.6957 17.8696Z" fill="white" />
<path d="M16.9715 13.8481H19.8039C19.979 13.8481 20.147 13.7919 20.2708 13.6919C20.3946 13.5918 20.4642 13.4562 20.4642 13.3147C20.4642 13.1733 20.3946 13.0376 20.2708 12.9376C20.147 12.8376 19.979 12.7814 19.8039 12.7814H16.9715C16.7964 12.7814 16.6284 12.8376 16.5046 12.9376C16.3808 13.0376 16.3112 13.1733 16.3112 13.3147C16.3112 13.4562 16.3808 13.5918 16.5046 13.6919C16.6284 13.7919 16.7964 13.8481 16.9715 13.8481Z" fill="white" />
<path d="M16.9715 15.9864H22.4053C22.5804 15.9864 22.7483 15.9302 22.8721 15.8302C22.9959 15.7302 23.0655 15.5946 23.0655 15.4531C23.0655 15.3117 22.9959 15.176 22.8721 15.076C22.7483 14.976 22.5804 14.9198 22.4053 14.9198H16.9715C16.7964 14.9198 16.6284 14.976 16.5046 15.076C16.3808 15.176 16.3112 15.3117 16.3112 15.4531C16.3112 15.5946 16.3808 15.7302 16.5046 15.8302C16.6284 15.9302 16.7964 15.9864 16.9715 15.9864Z" fill="white" />
<path d="M16.9715 8.00783H19.8039C19.979 8.00783 20.147 7.95164 20.2708 7.85162C20.3946 7.7516 20.4642 7.61594 20.4642 7.47449C20.4642 7.33304 20.3946 7.19739 20.2708 7.09737C20.147 6.99735 19.979 6.94116 19.8039 6.94116H16.9715C16.7964 6.94116 16.6284 6.99735 16.5046 7.09737C16.3808 7.19739 16.3112 7.33304 16.3112 7.47449C16.3112 7.61594 16.3808 7.7516 16.5046 7.85162C16.6284 7.95164 16.7964 8.00783 16.9715 8.00783Z" fill="white" />
<path d="M16.9715 10.1416H22.4053C22.5804 10.1416 22.7483 10.0854 22.8721 9.98535C22.9959 9.88533 23.0655 9.74967 23.0655 9.60822C23.0655 9.46677 22.9959 9.33112 22.8721 9.2311C22.7483 9.13108 22.5804 9.07489 22.4053 9.07489H16.9715C16.7964 9.07489 16.6284 9.13108 16.5046 9.2311C16.3808 9.33112 16.3112 9.46677 16.3112 9.60822C16.3112 9.74967 16.3808 9.88533 16.5046 9.98535C16.6284 10.0854 16.7964 10.1416 16.9715 10.1416Z" fill="white" />
</symbol><symbol viewBox="0 0 25 24" fill="none" id="doc_blue_light">
<path d="M9.22058 10.2857H7.90335V14.5714H9.22058C9.94801 14.5714 10.5378 13.9957 10.5378 13.2857V11.5714C10.5378 10.8614 9.94801 10.2857 9.22058 10.2857Z" fill="#0A5997" />
<path d="M6.14705 3.85715V0.550365L2.00134 4.28572H5.70797C5.95045 4.28572 6.14705 4.09382 6.14705 3.85715Z" fill="#0A5997" />
<path d="M13.6113 10.2857H15.3677C15.6101 10.2857 15.8067 10.4776 15.8067 10.7143V14.1429C15.8067 14.3795 15.6101 14.5714 15.3677 14.5714H13.6113C13.3689 14.5714 13.1723 14.3795 13.1723 14.1429V10.7143C13.1723 10.4776 13.3689 10.2857 13.6113 10.2857Z" fill="#0A5997" />
<path d="M1.31723 23.5714C1.31723 23.8081 1.51383 24 1.75631 24H20.1975C20.44 24 20.6366 23.8081 20.6366 23.5714V17.5714H6.14706C5.41963 17.5714 4.82983 16.9957 4.82983 16.2857V8.57143C4.82983 7.8614 5.41963 7.28571 6.14706 7.28571H20.6366V0.428571C20.6366 0.191895 20.44 0 20.1975 0H7.02521V3.85714C7.02521 4.56717 6.43542 5.14286 5.70799 5.14286H1.31723V23.5714Z" fill="#0A5997" />
<path d="M23.271 16.2857V8.57143C23.271 8.33475 23.0744 8.14286 22.8319 8.14286H6.14705C5.90458 8.14286 5.70798 8.33475 5.70798 8.57143V16.2857C5.70798 16.5224 5.90458 16.7143 6.14705 16.7143H22.8319C23.0744 16.7143 23.271 16.5224 23.271 16.2857ZM11.416 13.2857C11.4145 14.4687 10.4325 15.4271 9.22058 15.4286H7.46428C7.2218 15.4286 7.0252 15.2367 7.0252 15V9.85714C7.0252 9.62047 7.2218 9.42857 7.46428 9.42857H9.22058C10.4325 9.43004 11.4145 10.3885 11.416 11.5714V13.2857ZM16.6849 14.1429C16.6849 14.8529 16.0951 15.4286 15.3676 15.4286H13.6113C12.8839 15.4286 12.2941 14.8529 12.2941 14.1429V10.7143C12.2941 10.0043 12.8839 9.42857 13.6113 9.42857H15.3676C16.0951 9.42857 16.6849 10.0043 16.6849 10.7143V14.1429ZM18.8802 14.5714H20.6366C20.879 14.5714 21.0756 14.3795 21.0756 14.1429C21.0756 13.9062 21.2722 13.7143 21.5147 13.7143C21.7572 13.7143 21.9538 13.9062 21.9538 14.1429C21.9538 14.8529 21.364 15.4286 20.6366 15.4286H18.8802C18.1528 15.4286 17.563 14.8529 17.563 14.1429V10.7143C17.563 10.0043 18.1528 9.42857 18.8802 9.42857H20.6366C21.364 9.42857 21.9538 10.0043 21.9538 10.7143C21.9538 10.951 21.7572 11.1429 21.5147 11.1429C21.2722 11.1429 21.0756 10.951 21.0756 10.7143C21.0756 10.4776 20.879 10.2857 20.6366 10.2857H18.8802C18.6378 10.2857 18.4412 10.4776 18.4412 10.7143V14.1429C18.4412 14.3795 18.6378 14.5714 18.8802 14.5714Z" fill="#0A5997" />
</symbol><symbol viewBox="0 0 25 24" fill="none" id="doc_white">
<path d="M9.22058 10.2857H7.90335V14.5714H9.22058C9.94801 14.5714 10.5378 13.9957 10.5378 13.2857V11.5714C10.5378 10.8614 9.94801 10.2857 9.22058 10.2857Z" fill="#fff" />
<path d="M6.14705 3.85715V0.550365L2.00134 4.28572H5.70797C5.95045 4.28572 6.14705 4.09382 6.14705 3.85715Z" fill="#fff" />
<path d="M13.6113 10.2857H15.3677C15.6101 10.2857 15.8067 10.4776 15.8067 10.7143V14.1429C15.8067 14.3795 15.6101 14.5714 15.3677 14.5714H13.6113C13.3689 14.5714 13.1723 14.3795 13.1723 14.1429V10.7143C13.1723 10.4776 13.3689 10.2857 13.6113 10.2857Z" fill="#fff" />
<path d="M1.31723 23.5714C1.31723 23.8081 1.51383 24 1.75631 24H20.1975C20.44 24 20.6366 23.8081 20.6366 23.5714V17.5714H6.14706C5.41963 17.5714 4.82983 16.9957 4.82983 16.2857V8.57143C4.82983 7.8614 5.41963 7.28571 6.14706 7.28571H20.6366V0.428571C20.6366 0.191895 20.44 0 20.1975 0H7.02521V3.85714C7.02521 4.56717 6.43542 5.14286 5.70799 5.14286H1.31723V23.5714Z" fill="#fff" />
<path d="M23.271 16.2857V8.57143C23.271 8.33475 23.0744 8.14286 22.8319 8.14286H6.14705C5.90458 8.14286 5.70798 8.33475 5.70798 8.57143V16.2857C5.70798 16.5224 5.90458 16.7143 6.14705 16.7143H22.8319C23.0744 16.7143 23.271 16.5224 23.271 16.2857ZM11.416 13.2857C11.4145 14.4687 10.4325 15.4271 9.22058 15.4286H7.46428C7.2218 15.4286 7.0252 15.2367 7.0252 15V9.85714C7.0252 9.62047 7.2218 9.42857 7.46428 9.42857H9.22058C10.4325 9.43004 11.4145 10.3885 11.416 11.5714V13.2857ZM16.6849 14.1429C16.6849 14.8529 16.0951 15.4286 15.3676 15.4286H13.6113C12.8839 15.4286 12.2941 14.8529 12.2941 14.1429V10.7143C12.2941 10.0043 12.8839 9.42857 13.6113 9.42857H15.3676C16.0951 9.42857 16.6849 10.0043 16.6849 10.7143V14.1429ZM18.8802 14.5714H20.6366C20.879 14.5714 21.0756 14.3795 21.0756 14.1429C21.0756 13.9062 21.2722 13.7143 21.5147 13.7143C21.7572 13.7143 21.9538 13.9062 21.9538 14.1429C21.9538 14.8529 21.364 15.4286 20.6366 15.4286H18.8802C18.1528 15.4286 17.563 14.8529 17.563 14.1429V10.7143C17.563 10.0043 18.1528 9.42857 18.8802 9.42857H20.6366C21.364 9.42857 21.9538 10.0043 21.9538 10.7143C21.9538 10.951 21.7572 11.1429 21.5147 11.1429C21.2722 11.1429 21.0756 10.951 21.0756 10.7143C21.0756 10.4776 20.879 10.2857 20.6366 10.2857H18.8802C18.6378 10.2857 18.4412 10.4776 18.4412 10.7143V14.1429C18.4412 14.3795 18.6378 14.5714 18.8802 14.5714Z" fill="#fff" />
</symbol><symbol viewBox="0 0 20 20" fill="none" id="edit_blue">
<rect x="12.791" y="4.25732" width="5" height="11" transform="rotate(45 12.791 4.25732)" fill="#0A5997" />
<path d="M4.01367 13.0352L7.54921 16.5707L1.5388 19.0456L4.01367 13.0352Z" fill="#0A5997" />
<path d="M15.3271 1.72127C15.7176 1.33074 16.3508 1.33074 16.7413 1.72127L18.8626 3.84259C19.2531 4.23311 19.2531 4.86628 18.8626 5.2568L17.4484 6.67101L13.9129 3.13548L15.3271 1.72127Z" fill="#0A5997" />
</symbol><symbol viewBox="0 0 32 32" fill="none" id="help">
<circle cx="16" cy="16" r="15.35" stroke="black" stroke-width="1.3" />
<path d="M18.2857 5.71428H13.7143C12.805 5.71428 11.9329 6.0755 11.2899 6.71848C10.6469 7.36147 10.2857 8.23354 10.2857 9.14285V11.4286H12.5714V9.14285C12.5714 8.83975 12.6918 8.54906 12.9062 8.33473C13.1205 8.1204 13.4112 7.99999 13.7143 7.99999H18.2857C18.5888 7.99999 18.8795 8.1204 19.0938 8.33473C19.3082 8.54906 19.4286 8.83975 19.4286 9.14285V10.48C19.4294 10.6304 19.4006 10.7795 19.3437 10.9187C19.2869 11.058 19.2031 11.1846 19.0971 11.2914L15.8628 14.5257C15.2197 15.1681 14.8579 16.0396 14.8571 16.9486V20.5714H17.1428V16.9486C17.142 16.7982 17.1708 16.6491 17.2277 16.5098C17.2846 16.3706 17.3684 16.2439 17.4743 16.1371L20.7086 12.9028C21.3517 12.2605 21.7135 11.389 21.7143 10.48V9.14285C21.7143 8.23354 21.3531 7.36147 20.7101 6.71848C20.0671 6.0755 19.195 5.71428 18.2857 5.71428Z" fill="black" />
<path d="M16 27.4286C17.2624 27.4286 18.2858 26.4052 18.2858 25.1429C18.2858 23.8805 17.2624 22.8571 16 22.8571C14.7377 22.8571 13.7143 23.8805 13.7143 25.1429C13.7143 26.4052 14.7377 27.4286 16 27.4286Z" fill="black" />
</symbol><symbol viewBox="0 0 20 20" fill="none" id="hide_password">
<path d="M0.799988 5.5C0.799988 5.5 4.03749 11.8158 10.05 11.8158C16.525 11.8158 19.3 5.5 19.3 5.5" stroke="#D70032" stroke-width="1.5" />
<path d="M10 11.8158V15.5" stroke="#D70032" />
<path d="M14 10.7632L16 13.921" stroke="#D70032" />
<path d="M17.6 8.6579L19.6 10.7632" stroke="#D70032" />
<path d="M2.40002 8.6579L0.400024 10.7632" stroke="#D70032" />
<path d="M6 10.7632L4 13.921" stroke="#D70032" />
</symbol><symbol viewBox="0 0 66 64" fill="none" id="law_contract">
<path d="M11.8576 44.9124C11.8576 48.1089 14.522 50.7102 17.7975 50.7102C21.073 50.7102 23.7374 48.1089 23.7374 44.9124C23.7374 41.7159 21.073 39.1146 17.7975 39.1146C14.522 39.1146 11.8576 41.7153 11.8576 44.9124ZM21.785 44.9124C21.785 47.0582 19.996 48.8045 17.7975 48.8045C15.5991 48.8045 13.8101 47.0582 13.8101 44.9124C13.8101 42.7666 15.5991 41.0203 17.7975 41.0203C19.996 41.0203 21.785 42.7666 21.785 44.9124Z" fill="#D70032" />
<path d="M58.715 23.2611C58.3128 22.9111 57.6964 22.9448 57.3365 23.3374L43.1575 38.839L35.858 31.7142C35.4767 31.342 34.8591 31.342 34.4777 31.7142C34.0963 32.0865 34.0963 32.6893 34.4777 33.0615L42.508 40.8991C42.6915 41.0782 42.9394 41.1779 43.1985 41.1779C43.2076 41.1779 43.2167 41.1779 43.2258 41.1773C43.4939 41.1697 43.7477 41.0553 43.9267 40.8597L58.7937 24.6059C59.1523 24.214 59.1172 23.6111 58.715 23.2611Z" fill="#D70032" />
<path d="M43.5349 43.5607C42.9954 43.5607 42.5587 43.9875 42.5587 44.5135V53.9957H7.99187V9.52918H42.5587V29.4927C42.5587 30.0187 42.9954 30.4456 43.5349 30.4456C44.0745 30.4456 44.5111 30.0187 44.5111 29.4927V8.57633C44.5111 8.05036 44.0745 7.62348 43.5349 7.62348H7.01567C6.47615 7.62348 6.03946 8.05036 6.03946 8.57633V54.9485C6.03946 55.4745 6.47615 55.9014 7.01567 55.9014H43.5349C44.0745 55.9014 44.5111 55.4745 44.5111 54.9485V44.5135C44.5111 43.9875 44.0745 43.5607 43.5349 43.5607Z" fill="black" />
<path d="M32.1237 20.4712C32.6632 20.4712 33.0999 20.0443 33.0999 19.5183C33.0999 18.9923 32.6632 18.5654 32.1237 18.5654H12.511C11.9715 18.5654 11.5348 18.9923 11.5348 19.5183C11.5348 20.0443 11.9715 20.4712 12.511 20.4712H32.1237Z" fill="black" />
<path d="M33.3401 27.9949C33.3401 27.4689 32.9034 27.042 32.3639 27.042H12.7564C12.2169 27.042 11.7802 27.4689 11.7802 27.9949C11.7802 28.5209 12.2169 28.9478 12.7564 28.9478H32.3639C32.9034 28.9478 33.3401 28.5209 33.3401 27.9949Z" fill="black" />
</symbol><symbol viewBox="0 0 66 64" fill="none" id="lovetalk">
<path d="M51.4346 11.0125H13.361C10.682 11.0125 8.50269 13.1613 8.50269 15.803V43.255C8.50269 45.8936 10.6826 48.0399 13.361 48.0399H18.3135V57.7724C18.3135 58.1535 18.545 58.4982 18.9028 58.6502C19.029 58.7038 19.1618 58.73 19.2945 58.73C19.5378 58.73 19.7779 58.6412 19.963 58.474L31.4573 48.0399H51.4346C54.0894 48.0399 56.2484 45.8936 56.2484 43.255V15.803C56.2484 13.1613 54.0887 11.0125 51.4346 11.0125ZM54.2863 43.255C54.2863 44.8376 53.0069 46.1247 51.4346 46.1247L31.0707 46.1253C30.8228 46.1253 30.5841 46.2172 30.4029 46.3813L20.2756 55.5743V47.0823C20.2756 46.5537 19.8367 46.1247 19.2945 46.1247H13.361C11.7638 46.1247 10.4648 44.837 10.4648 43.255V15.803C10.4648 14.2179 11.7638 12.9277 13.361 12.9277H51.4346C53.0069 12.9277 54.2863 14.2179 54.2863 15.803V43.255Z" fill="black" />
<path d="M36.6236 21.4664C36.621 21.4664 36.6191 21.4664 36.6164 21.4664C34.8041 21.4664 33.1532 22.3116 32.1146 23.6631C31.0701 22.3257 29.4245 21.4881 27.6265 21.4855C27.6239 21.4855 27.6219 21.4855 27.6193 21.4855C26.1137 21.4855 24.6996 22.0569 23.6368 23.0943C22.574 24.1317 21.9899 25.5107 21.9919 26.9771C21.9932 28.3822 22.5118 29.689 23.4524 30.6562C25.3798 32.6397 31.2114 38.1964 31.4586 38.432C31.6496 38.6133 31.8962 38.7046 32.144 38.7046C32.3926 38.7046 32.6405 38.6126 32.8314 38.43C33.0767 38.1945 38.869 32.6404 40.7939 30.6696C41.7455 29.6929 42.2688 28.3784 42.2674 26.9681C42.2642 23.9389 39.7323 21.4708 36.6236 21.4664ZM39.3733 29.3488C37.8591 30.8994 33.7733 34.8378 32.1427 36.405C30.5037 34.839 26.3917 30.8969 24.8762 29.3379C24.283 28.7269 23.9553 27.8881 23.9547 26.9745C23.9534 26.0201 24.3334 25.1232 25.0247 24.4484C25.7173 23.7723 26.6382 23.4007 27.62 23.4007C27.6213 23.4007 27.6232 23.4007 27.6245 23.4007C29.2839 23.4027 30.745 24.4956 31.1774 26.0591C31.2931 26.4766 31.6816 26.7664 32.1244 26.7664C32.1257 26.7664 32.127 26.7664 32.129 26.7664C32.5738 26.7645 32.9616 26.4708 33.0741 26.0501C33.494 24.4784 34.9506 23.3816 36.6171 23.3816C36.6184 23.3816 36.6197 23.3816 36.6217 23.3816C38.6512 23.3841 40.304 24.9942 40.3066 26.9701C40.3066 27.8862 39.9757 28.7308 39.3733 29.3488Z" fill="#D70032" />
</symbol><symbol viewBox="0 0 66 64" fill="none" id="magic">
<path d="M47.72 22.4005C48.178 21.7539 48.3557 20.8954 48.2048 20.0396C48.05 19.1563 47.5743 18.4018 46.868 17.9158C45.4011 16.9024 43.2508 17.1996 42.2721 18.5485L15.3029 55.7851C14.9906 56.2169 15.0958 56.8132 15.5374 57.1186L19.429 59.8061C19.5956 59.9216 19.7936 59.9815 19.9948 59.9815C20.0497 59.9815 20.1053 59.9771 20.1602 59.9681C20.4163 59.9254 20.645 59.7845 20.7946 59.5778L47.6952 22.4356C47.7037 22.4254 47.7115 22.4133 47.72 22.4005ZM19.7609 57.6914L17.4695 56.1091L36.5085 29.8208L38.8013 31.4031L19.7609 57.6914ZM46.1029 21.3189C46.0937 21.3317 46.0852 21.3444 46.0767 21.3572L39.9323 29.8406L37.6396 28.2583L43.7977 19.7551L43.8689 19.6582C44.1904 19.2149 45.096 19.0351 45.737 19.479C46.1133 19.7379 46.2342 20.1442 46.2721 20.3629C46.3361 20.7213 46.2708 21.088 46.1029 21.3189Z" fill="black" />
<path d="M27.7931 12.4414C29.3658 12.1767 30.9516 12.5275 32.2564 13.4267C33.5612 14.3266 34.4282 15.6685 34.6981 17.2035C34.7758 17.6461 35.1561 17.9561 35.5945 17.9867C35.735 18.0619 35.8879 18.1155 36.0552 18.1155C36.1107 18.1155 36.1662 18.1111 36.2224 18.1015C36.7556 18.0116 37.1137 17.5173 37.0228 16.9969C36.4648 13.8253 38.655 10.8011 41.9069 10.2552C41.9226 10.2526 41.937 10.2463 41.952 10.2431C41.9964 10.2361 42.0408 10.2335 42.0853 10.2265C42.6184 10.1372 42.9765 9.64231 42.8857 9.1219C42.7935 8.60213 42.2891 8.25328 41.754 8.34065C40.1813 8.60468 38.5955 8.25455 37.2907 7.35404C35.9859 6.45353 35.1189 5.11169 34.849 3.57598C34.7719 3.13657 34.3995 2.82343 33.963 2.78771C33.7755 2.68695 33.5553 2.64167 33.326 2.67866C32.7928 2.76794 32.4341 3.26284 32.5256 3.78325C32.7961 5.3196 32.4367 6.8668 31.5148 8.14039C30.5929 9.41399 29.2168 10.2603 27.6428 10.523C27.6186 10.5269 27.5964 10.5364 27.5729 10.5422C27.5357 10.5479 27.4984 10.5492 27.4618 10.5556C26.9287 10.6455 26.5706 11.1404 26.6621 11.6608C26.7523 12.1812 27.2606 12.5307 27.7931 12.4414ZM33.1136 9.24498C33.6148 8.55302 33.9833 7.79856 34.2276 7.01093C34.7477 7.73988 35.392 8.3872 36.1571 8.9159C36.753 9.32662 37.3946 9.64613 38.0624 9.88083C36.7595 10.8674 35.8017 12.2335 35.3221 13.7762C34.8007 13.0447 34.1545 12.3942 33.3867 11.8649C32.7935 11.4554 32.1545 11.1391 31.4893 10.9044C32.1041 10.4389 32.6517 9.88274 33.1136 9.24498Z" fill="#D70032" />
<path d="M57.5046 42.9248C57.4131 42.405 56.9087 42.0574 56.3729 42.1435C53.515 42.6257 50.774 40.7373 50.282 37.9369C50.2069 37.5039 49.8443 37.1952 49.4163 37.1518C49.2327 37.0581 49.019 37.0173 48.7982 37.0536C48.265 37.1435 47.907 37.6378 47.9978 38.1582C48.2363 39.5141 47.9194 40.8795 47.1059 42.0026C46.2924 43.1257 45.0791 43.8725 43.6894 44.1046C43.6698 44.1078 43.6521 44.1155 43.6325 44.1199C43.5979 44.125 43.5639 44.1263 43.5293 44.1321C42.9955 44.2213 42.6374 44.7156 42.7282 45.236C42.8197 45.7571 43.3326 46.1091 43.8592 46.0179C46.7302 45.5358 49.4607 47.4229 49.9521 50.2201C50.0279 50.6544 50.3964 50.9586 50.825 50.9994C50.9615 51.0689 51.1092 51.1187 51.2693 51.1187C51.3242 51.1187 51.3804 51.1142 51.4366 51.1053C51.9697 51.0154 52.3278 50.5211 52.237 50.0007C51.745 47.2035 53.6764 44.537 56.5434 44.0549C56.5565 44.053 56.5676 44.0479 56.58 44.0447C56.6218 44.0383 56.663 44.0364 56.7048 44.0294C57.238 43.9407 57.5954 43.4458 57.5046 42.9248ZM50.5708 46.9082C49.7515 45.8279 48.6322 44.9981 47.3529 44.5141C47.8599 44.1116 48.3173 43.6429 48.7047 43.1078C49.1216 42.5326 49.4431 41.9108 49.6652 41.2609C50.4839 42.3387 51.6012 43.1684 52.8779 43.6518C51.8116 44.5013 51.0073 45.6321 50.5708 46.9082Z" fill="#D70032" />
<path d="M17.5454 28.5861C17.5585 28.5842 17.5696 28.5785 17.5826 28.5759C17.6153 28.5708 17.6486 28.5689 17.6813 28.5638C18.2151 28.4745 18.5732 27.9796 18.4817 27.4592C18.3896 26.9382 17.8799 26.5887 17.35 26.678C16.2256 26.8668 15.0906 26.6155 14.1582 25.972C13.2259 25.3278 12.6058 24.3687 12.413 23.2705C12.3392 22.8502 11.9949 22.546 11.5845 22.4892C11.4042 22.4012 11.1958 22.3642 10.9815 22.4006C10.4483 22.4905 10.0903 22.9854 10.1824 23.5058C10.3764 24.6046 10.1197 25.7118 9.46104 26.6225C8.80177 27.5332 7.81843 28.1384 6.69199 28.3272C6.67696 28.3298 6.66389 28.3355 6.64952 28.3387C6.61816 28.3432 6.58745 28.3444 6.55674 28.3495C6.02357 28.4388 5.66487 28.9337 5.75634 29.4541C5.84781 29.9752 6.35549 30.3247 6.888 30.2354C9.21406 29.8444 11.4277 31.375 11.827 33.6435C11.9008 34.0632 12.249 34.3585 12.6587 34.4152C12.7914 34.4796 12.9331 34.5256 13.0873 34.5256C13.1422 34.5256 13.1984 34.5211 13.254 34.5122C13.7871 34.4229 14.1458 33.928 14.0543 33.4076C13.8609 32.3087 14.1177 31.2016 14.777 30.2909C15.4363 29.3795 16.4196 28.7743 17.5454 28.5861ZM13.1769 29.1863C12.8737 29.6046 12.6365 30.0536 12.4522 30.5192C11.8198 29.7609 11.0102 29.1614 10.0961 28.7711C10.4529 28.4624 10.7796 28.1161 11.0618 27.7264C11.3644 27.3087 11.6015 26.861 11.7851 26.3961C12.1406 26.8227 12.5542 27.2073 13.0266 27.5338C13.3814 27.7787 13.761 27.9694 14.1504 28.1352C13.7904 28.4452 13.4604 28.7934 13.1769 29.1863Z" fill="#D70032" />
</symbol><symbol viewBox="0 0 88 88" fill="none" id="paper_plane">
<g clip-path="url(#paper_plane_clip0)">
<path d="M87.4701 30.7329C87.3732 30.2923 87.0516 29.9351 86.6236 29.7924L57.3384 20.0307C56.6671 19.8072 55.9409 20.1699 55.717 20.8413C55.4932 21.5129 55.8562 22.2389 56.5278 22.4626L80.9901 30.6167L49.725 36.0541L8.83902 6.56636L51.0536 20.6379C51.725 20.8613 52.451 20.499 52.6749 19.8274C52.8988 19.1557 52.5358 18.4298 51.8642 18.2061L1.68711 1.48027C1.67002 1.47463 1.65788 1.47343 1.64319 1.46967C1.27952 1.36269 0.876367 1.41601 0.548414 1.64518C0.0447771 1.99655 -0.138767 2.6557 0.110573 3.21676L34.0851 79.6595C34.2541 80.0401 34.5975 80.3145 35.0057 80.396C35.0891 80.4126 35.1731 80.4208 35.2563 80.4208C35.5813 80.4208 35.898 80.2969 36.1385 80.069L50.3151 66.622L62.884 74.5602C62.8898 74.564 62.8963 74.5648 62.9023 74.5674C63.0997 74.6879 63.3278 74.7583 63.5676 74.7583C63.6156 74.7583 63.6638 74.7556 63.7125 74.7501C64.3035 74.6833 64.7709 74.2186 64.8411 73.628L67.6174 50.2751L87.0965 31.9418C87.4251 31.6327 87.567 31.1735 87.4701 30.7329ZM82.2286 33.0031L66.2917 48.0025L52.6315 38.1504L82.2286 33.0031ZM56.0549 57.6446L37.5181 75.2269L44.4694 46.3998L56.0549 57.6446ZM57.3618 59.938L61.1085 70.4069L52.234 64.8018L57.3618 59.938ZM62.939 67.914L59.1128 57.2231C59.1102 57.2159 59.1063 57.2094 59.1036 57.2023C59.0376 57.028 58.9352 56.8677 58.7987 56.7352L39.8305 38.325C39.3228 37.8322 38.5112 37.8443 38.0182 38.352C37.5251 38.8601 37.5373 39.6716 38.0452 40.1644L42.3327 44.3258L34.895 75.1698L5.14472 8.2316L34.3645 36.592C34.8723 37.085 35.6839 37.073 36.1769 36.565C36.6699 36.0569 36.6578 35.2455 36.1499 34.7526L14.7823 14.0136L65.0378 50.2592L62.939 67.914Z" fill="#D70032" />
<path d="M83.3867 66.2648C83.0588 66.2648 82.7307 66.1397 82.4805 65.8895L71.1555 54.5646C70.655 54.0638 70.655 53.2524 71.1555 52.7518C71.6561 52.2515 72.4677 52.2515 72.9681 52.7518L84.293 64.0768C84.7936 64.5775 84.7936 65.3889 84.293 65.8895C84.0428 66.1397 83.7147 66.2648 83.3867 66.2648Z" fill="#D70032" />
<path d="M63.5688 86.0833C63.2408 86.0833 62.9127 85.9582 62.6625 85.7081L51.3375 74.3831C50.837 73.8824 50.837 73.071 51.3375 72.5704C51.8381 72.07 52.6497 72.07 53.1501 72.5704L64.475 83.8953C64.9756 84.3961 64.9756 85.2075 64.475 85.7081C64.2247 85.9581 63.8967 86.0833 63.5688 86.0833Z" fill="#D70032" />
<path d="M83.3867 86.0833C83.0588 86.0833 82.7307 85.9582 82.4805 85.7081L71.1555 74.3831C70.655 73.8824 70.655 73.071 71.1555 72.5704C71.6561 72.07 72.4677 72.07 72.9681 72.5704L84.293 83.8953C84.7936 84.3961 84.7936 85.2075 84.293 85.7081C84.0428 85.9581 83.7147 86.0833 83.3867 86.0833Z" fill="#D70032" />
</g>
<defs>

</defs>
</symbol><clipPath id="paper_plane_clip0">
<rect width="87.5" height="87.5" fill="white" />
</clipPath><symbol viewBox="0 0 62 62" fill="none" id="play">
<g filter="url(#play_filter0_d)">
<path d="M31 43C39.8366 43 47 35.8366 47 27C47 18.1634 39.8366 11 31 11C22.1634 11 15 18.1634 15 27C15 35.8366 22.1634 43 31 43Z" fill="#FF1F3D" />
<path d="M47 27H15C15 35.8366 22.1634 43 31 43C39.8366 43 47 35.8366 47 27Z" fill="#D70032" />
<path d="M26.6249 36.0625C26.4791 36.0625 26.3329 36.0286 26.1982 35.9597C25.8847 35.7994 25.6875 35.4771 25.6875 35.125V18.875C25.6875 18.5229 25.8848 18.2005 26.1982 18.0403C26.5116 17.88 26.8884 17.9089 27.1739 18.115L38.4239 26.24C38.6679 26.4162 38.8125 26.699 38.8125 27C38.8125 27.301 38.6679 27.5837 38.4239 27.76L27.1739 35.885C27.0111 36.0026 26.8185 36.0625 26.6249 36.0625Z" fill="#F9F9F9" />
<path d="M25.6875 27V35.125C25.6875 35.4771 25.8848 35.7994 26.1982 35.9597C26.3328 36.0286 26.4791 36.0625 26.6249 36.0625C26.8184 36.0625 27.0111 36.0026 27.1739 35.885L38.4239 27.76C38.6679 27.5838 38.8125 27.301 38.8125 27H25.6875Z" fill="#E2DFF4" />
</g>
<defs>

</defs>
</symbol><filter id="play_filter0_d" x="0" y="0" width="62" height="62" filterUnits="userSpaceOnUse" color-interpolation-filters="sRGB">
<feFlood flood-opacity="0" result="BackgroundImageFix"></feFlood>
<feColorMatrix in="SourceAlpha" type="matrix" values="0 0 0 0 0 0 0 0 0 0 0 0 0 0 0 0 0 0 127 0"></feColorMatrix>
<feOffset dy="4"></feOffset>
<feGaussianBlur stdDeviation="7.5"></feGaussianBlur>
<feColorMatrix type="matrix" values="0 0 0 0 0 0 0 0 0 0 0 0 0 0 0 0 0 0 0.15 0"></feColorMatrix>
<feBlend mode="normal" in2="BackgroundImageFix" result="effect1_dropShadow"></feBlend>
<feBlend mode="normal" in="SourceGraphic" in2="effect1_dropShadow" result="shape"></feBlend>
</filter><symbol viewBox="0 0 9 14" fill="none" id="previous">
<path d="M8 13L2 7L8 1" stroke="#D70032" stroke-width="2" />
</symbol><symbol viewBox="0 0 20 20" fill="none" id="remove">
<path d="M3.75 4.75H15.75V18C15.75 18.6904 15.1904 19.25 14.5 19.25H5C4.30964 19.25 3.75 18.6904 3.75 18V4.75Z" stroke="#B3B3B3" stroke-width="1.5" />
<path d="M16.5 2L3 2" stroke="#B3B3B3" stroke-width="1.5" stroke-linecap="square" />
<path d="M7 0L6 2.5H14L13 0H7Z" fill="#B3B3B3" />
<path d="M12 7V17" stroke="#B3B3B3" stroke-width="1.5" />
<path d="M7.5 7V17" stroke="#B3B3B3" stroke-width="1.5" />
</symbol><symbol viewBox="0 0 87 87" fill="none" id="restart">
<path d="M70.6535 16.3465L68.2576 18.7424L67.0511 17.553L65.4199 19.1672L62.8371 6.1342L75.8871 8.71701L69.447 15.1401L70.6535 16.3465Z" fill="#D70032" />
<path d="M19.9486 69.447L21.5799 67.8327L24.1627 80.8657L11.1127 78.2829L17.5527 71.8598L16.3463 70.6534L18.7422 68.2575L19.9486 69.447Z" fill="#D70032" />
<path d="M85.3008 43.4999C85.3008 32.8967 81.3756 22.9053 74.2389 15.1739L82.7859 6.62682L58.5211 1.80104L63.3299 26.0659L69.4471 19.9487L67.0512 17.5528L65.4199 19.184L62.8371 6.13405L75.8871 8.71686L69.4641 15.1399L70.6705 16.3464C85.6406 31.3165 85.6406 55.6833 70.6705 70.6534C63.7887 77.5352 54.6639 81.5114 44.9443 81.8682L45.0633 85.2667C55.6324 84.8758 65.5729 80.5428 73.0664 73.0493C80.9508 65.1649 85.3008 54.6637 85.3008 43.4999Z" fill="#263238" />
<path d="M32.6592 80.339L31.7076 83.6015C34.4604 84.4001 37.2981 84.9269 40.1698 85.1647L40.4416 81.7833C37.7908 81.5624 35.174 81.0866 32.6592 80.339Z" fill="#263238" />
<path d="M17.5529 67.0511L19.9488 69.447L21.5801 67.8157L24.1629 80.8657L11.1129 78.2829L17.5359 71.8598L16.3295 70.6534C1.35938 55.6833 1.35938 31.3165 16.3295 16.3464C23.2113 9.46454 32.3361 5.48837 42.0557 5.13153L41.9367 1.73309C31.3676 2.12391 21.4271 6.45692 13.9506 13.9505C6.04922 21.8349 1.69922 32.336 1.69922 43.4999C1.69922 54.103 5.62441 64.0944 12.7611 71.8259L4.21406 80.3729L28.4789 85.1817L23.6701 60.9169L17.5529 67.0511Z" fill="#263238" />
<path d="M54.341 6.66085L55.2926 3.39835C52.5398 2.59972 49.7021 2.07296 46.8305 1.83507L46.5586 5.21651C49.2094 5.43741 51.8262 5.91319 54.341 6.66085Z" fill="#263238" />
</symbol><symbol viewBox="0 0 33 32" fill="none" id="rocket">
<g clip-path="url(#rocket_clip0)">
<path d="M3.39373 8.12499C2.97112 7.04999 2.63816 5.92499 2.39484 4.78749C2.30519 4.34999 2.21555 3.92499 2.13871 3.48749C2.08748 3.21249 2.04907 2.92499 1.99784 2.63749C1.97223 2.49999 1.95942 2.34999 1.93381 2.21249V2.12499C1.93381 2.09999 1.921 2.06249 1.921 2.03749C1.98503 2.03749 2.04907 2.04999 2.1131 2.06249L2.22835 2.07499C2.5229 2.11249 2.80464 2.14999 3.09919 2.19999C3.67547 2.28749 4.23896 2.38749 4.77682 2.49999C5.90378 2.73749 7.01794 3.04999 8.08087 3.43749C8.40103 3.54999 8.7468 3.39999 8.87486 3.08749C8.99012 2.77499 8.83644 2.43749 8.51628 2.31249C7.40213 1.89999 6.23675 1.57499 5.04576 1.32499C4.49508 1.21249 3.90599 1.09999 3.30409 1.01249C3.00954 0.962489 2.70219 0.924989 2.40764 0.887489L2.27958 0.874989C1.99784 0.837489 1.62645 0.787489 1.22946 0.962489C0.909298 1.11249 0.704396 1.43749 0.678783 1.83749C0.665977 2.01249 0.69159 2.17499 0.704396 2.29999L0.717202 2.37499C0.742815 2.52499 0.755621 2.67499 0.781234 2.82499C0.819653 3.11249 0.870879 3.41249 0.922104 3.69999C0.998943 4.14999 1.08859 4.59999 1.19104 5.04999C1.44717 6.24999 1.80574 7.42499 2.24116 8.57499C2.33081 8.81249 2.56132 8.96249 2.81745 8.96249C2.89429 8.96249 2.95832 8.94999 3.03516 8.92499C3.35532 8.78749 3.50899 8.43749 3.39373 8.12499Z" fill="#333333" />
<path d="M31.9264 28.4C31.5934 28.075 31.5165 27.4875 31.4269 26.9C31.2476 25.6875 30.7226 23.45 29.1346 22.0625C28.443 21.4625 27.6362 21.1 26.7398 20.9875C25.3823 20.8125 23.9608 21.2875 22.8594 22.2875C21.7581 23.2875 21.169 24.625 21.2458 25.975C21.3867 28.55 23.884 29.975 25.9842 30.425C26.5733 30.55 27.1752 30.675 27.521 31C27.6362 31.1125 27.8027 31.175 27.9692 31.175C28.0588 31.175 28.1357 31.1625 28.2253 31.125C28.6351 30.9375 28.6095 30.4875 28.5967 30.3C28.5455 29.575 28.0972 29.1125 27.7515 28.75C27.6234 28.6125 27.4954 28.475 27.3929 28.35C27.2776 28.1875 27.2264 28.0125 27.2648 27.875C27.3033 27.75 27.4057 27.65 27.585 27.5625C27.9692 27.3875 28.5071 27.425 28.84 27.6625C29.0449 27.8 29.2114 28.025 29.4035 28.25C29.6852 28.6 30.0054 28.9875 30.4792 29.225C30.7097 29.3375 30.9403 29.4125 31.2348 29.45C31.4269 29.4625 31.8623 29.4875 32.0544 29.0875C32.1569 28.8625 32.1056 28.5875 31.9264 28.4ZM29.5572 26.6875C28.8656 26.2 27.8411 26.1125 27.0599 26.475C26.5605 26.7125 26.2019 27.1 26.0738 27.5625C25.9458 28.0375 26.061 28.575 26.3812 29.025C26.458 29.1375 26.5477 29.2375 26.6373 29.3375C26.4965 29.3 26.3684 29.275 26.2403 29.25C24.5627 28.9 22.5777 27.8125 22.4625 25.9125C22.4112 24.925 22.8594 23.925 23.6919 23.1625C24.409 22.5125 25.3055 22.15 26.1763 22.15C26.3044 22.15 26.4452 22.1625 26.5733 22.175C27.2264 22.2625 27.8155 22.525 28.315 22.9625C29.2626 23.7875 29.9542 25.2875 30.2103 27.1C30.2231 27.1875 30.2359 27.275 30.2487 27.375C30.0566 27.125 29.8389 26.875 29.5572 26.6875Z" fill="#333333" />
<path d="M23.7046 18.4125L23.0899 16.7875C22.8338 16.125 22.552 15.4625 22.2447 14.825L27.3928 9.8C27.7898 9.4125 27.9051 8.825 27.6618 8.325C27.4184 7.825 26.9062 7.525 26.3427 7.5625L17.6216 8.1875C15.6622 6.1875 13.4083 4.55 10.8982 3.3375C10.8342 3.3 10.7702 3.275 10.6805 3.2375C10.45 3.125 10.1683 3.175 9.98897 3.35L3.25282 9.9125C3.07353 10.0875 3.0223 10.3625 3.13756 10.6L3.22721 10.775C4.48223 13.2375 6.14706 15.45 8.20888 17.3625L7.56857 25.8875C7.53015 26.4375 7.8375 26.95 8.34975 27.175C8.52904 27.2625 8.72114 27.3 8.91323 27.3C9.25901 27.3 9.60478 27.1625 9.86091 26.9125L15.0091 21.875C15.6622 22.175 16.3409 22.45 17.0069 22.6875L18.6717 23.2875C18.8894 23.3625 19.1455 23.3125 19.312 23.15L23.5509 19.0375C23.7302 18.875 23.7942 18.625 23.7046 18.4125ZM18.7485 22.025L17.4551 21.55C16.6867 21.275 15.9183 20.95 15.1756 20.6C14.945 20.4875 14.6633 20.5375 14.4712 20.7125L9.01569 26.05C9.00288 26.0625 8.95165 26.1125 8.87482 26.075C8.79798 26.0375 8.79798 25.9875 8.81078 25.9625L9.46391 17.15C9.47672 16.9625 9.39988 16.7875 9.27181 16.6625C7.27402 14.875 5.64761 12.775 4.43101 10.45L10.5396 4.4875C12.9344 5.675 15.0859 7.2625 16.93 9.2C17.0581 9.3375 17.2374 9.4 17.4295 9.3875L26.4452 8.7375C26.4708 8.7375 26.522 8.7375 26.5604 8.8C26.5988 8.875 26.5476 8.925 26.5348 8.9375L21.0793 14.2625C20.9 14.4375 20.8488 14.7125 20.964 14.95C21.3226 15.675 21.6556 16.425 21.9501 17.2L22.424 18.4625L18.7485 22.025Z" fill="#333333" />
<path d="M10.719 10.6125C10.1555 11.1625 9.83533 11.9 9.83533 12.6875C9.83533 13.475 10.1427 14.2125 10.719 14.7625C11.2824 15.3125 12.038 15.625 12.8448 15.625C13.6516 15.625 14.4072 15.325 14.9707 14.7625C16.1361 13.625 16.1361 11.7625 14.9707 10.6125C13.7925 9.47498 11.8972 9.47498 10.719 10.6125ZM14.0999 13.9125C13.7669 14.2375 13.3187 14.425 12.8448 14.425C12.371 14.425 11.9228 14.25 11.5898 13.9125C11.2568 13.5875 11.0647 13.15 11.0647 12.6875C11.0647 12.225 11.2568 11.7875 11.5898 11.4625C11.9356 11.125 12.3966 10.95 12.8448 10.95C13.3059 10.95 13.7541 11.125 14.0999 11.4625C14.7914 12.1375 14.7914 13.2375 14.0999 13.9125Z" fill="#333333" />
</g>
<defs>

</defs>
</symbol><clipPath id="rocket_clip0">
<rect width="32.7843" height="32" fill="white" />
</clipPath><symbol viewBox="0 0 33 32" fill="none" id="rocket_white">
<g clip-path="url(#rocket_white_clip0)">
<path d="M3.39373 8.12499C2.97112 7.04999 2.63816 5.92499 2.39484 4.78749C2.30519 4.34999 2.21555 3.92499 2.13871 3.48749C2.08748 3.21249 2.04907 2.92499 1.99784 2.63749C1.97223 2.49999 1.95942 2.34999 1.93381 2.21249V2.12499C1.93381 2.09999 1.921 2.06249 1.921 2.03749C1.98503 2.03749 2.04907 2.04999 2.1131 2.06249L2.22835 2.07499C2.5229 2.11249 2.80464 2.14999 3.09919 2.19999C3.67547 2.28749 4.23896 2.38749 4.77682 2.49999C5.90378 2.73749 7.01794 3.04999 8.08087 3.43749C8.40103 3.54999 8.7468 3.39999 8.87486 3.08749C8.99012 2.77499 8.83644 2.43749 8.51628 2.31249C7.40213 1.89999 6.23675 1.57499 5.04576 1.32499C4.49508 1.21249 3.90599 1.09999 3.30409 1.01249C3.00954 0.962492 2.70219 0.924992 2.40764 0.887492L2.27958 0.874992C1.99784 0.837492 1.62645 0.787492 1.22946 0.962492C0.909298 1.11249 0.704396 1.43749 0.678783 1.83749C0.665977 2.01249 0.69159 2.17499 0.704396 2.29999L0.717202 2.37499C0.742815 2.52499 0.755621 2.67499 0.781234 2.82499C0.819653 3.11249 0.870879 3.41249 0.922104 3.69999C0.998943 4.14999 1.08859 4.59999 1.19104 5.04999C1.44717 6.24999 1.80574 7.42499 2.24116 8.57499C2.33081 8.81249 2.56132 8.96249 2.81745 8.96249C2.89429 8.96249 2.95832 8.94999 3.03516 8.92499C3.35532 8.78749 3.50899 8.43749 3.39373 8.12499Z" fill="white" />
<path d="M31.9264 28.4C31.5934 28.075 31.5165 27.4875 31.4269 26.9C31.2476 25.6875 30.7226 23.45 29.1346 22.0625C28.443 21.4625 27.6362 21.1 26.7398 20.9875C25.3823 20.8125 23.9608 21.2875 22.8594 22.2875C21.7581 23.2875 21.169 24.625 21.2458 25.975C21.3867 28.55 23.884 29.975 25.9842 30.425C26.5733 30.55 27.1752 30.675 27.521 31C27.6362 31.1125 27.8027 31.175 27.9692 31.175C28.0588 31.175 28.1357 31.1625 28.2253 31.125C28.6351 30.9375 28.6095 30.4875 28.5967 30.3C28.5455 29.575 28.0972 29.1125 27.7515 28.75C27.6234 28.6125 27.4954 28.475 27.3929 28.35C27.2776 28.1875 27.2264 28.0125 27.2648 27.875C27.3033 27.75 27.4057 27.65 27.585 27.5625C27.9692 27.3875 28.5071 27.425 28.84 27.6625C29.0449 27.8 29.2114 28.025 29.4035 28.25C29.6852 28.6 30.0054 28.9875 30.4792 29.225C30.7097 29.3375 30.9403 29.4125 31.2348 29.45C31.4269 29.4625 31.8623 29.4875 32.0544 29.0875C32.1569 28.8625 32.1056 28.5875 31.9264 28.4ZM29.5572 26.6875C28.8656 26.2 27.8411 26.1125 27.0599 26.475C26.5605 26.7125 26.2019 27.1 26.0738 27.5625C25.9458 28.0375 26.061 28.575 26.3812 29.025C26.458 29.1375 26.5477 29.2375 26.6373 29.3375C26.4965 29.3 26.3684 29.275 26.2403 29.25C24.5627 28.9 22.5777 27.8125 22.4625 25.9125C22.4112 24.925 22.8594 23.925 23.6919 23.1625C24.409 22.5125 25.3055 22.15 26.1763 22.15C26.3044 22.15 26.4452 22.1625 26.5733 22.175C27.2264 22.2625 27.8155 22.525 28.315 22.9625C29.2626 23.7875 29.9542 25.2875 30.2103 27.1C30.2231 27.1875 30.2359 27.275 30.2487 27.375C30.0566 27.125 29.8389 26.875 29.5572 26.6875Z" fill="white" />
<path d="M23.7046 18.4125L23.0899 16.7875C22.8338 16.125 22.552 15.4625 22.2447 14.825L27.3928 9.8C27.7898 9.4125 27.9051 8.825 27.6618 8.325C27.4184 7.825 26.9062 7.525 26.3427 7.5625L17.6216 8.1875C15.6622 6.1875 13.4083 4.55 10.8982 3.3375C10.8342 3.3 10.7702 3.275 10.6805 3.2375C10.45 3.125 10.1683 3.175 9.98897 3.35L3.25282 9.9125C3.07353 10.0875 3.0223 10.3625 3.13756 10.6L3.22721 10.775C4.48223 13.2375 6.14706 15.45 8.20888 17.3625L7.56857 25.8875C7.53015 26.4375 7.8375 26.95 8.34975 27.175C8.52904 27.2625 8.72114 27.3 8.91323 27.3C9.25901 27.3 9.60478 27.1625 9.86091 26.9125L15.0091 21.875C15.6622 22.175 16.3409 22.45 17.0069 22.6875L18.6717 23.2875C18.8894 23.3625 19.1455 23.3125 19.312 23.15L23.5509 19.0375C23.7302 18.875 23.7942 18.625 23.7046 18.4125ZM18.7485 22.025L17.4551 21.55C16.6867 21.275 15.9183 20.95 15.1756 20.6C14.945 20.4875 14.6633 20.5375 14.4712 20.7125L9.01569 26.05C9.00288 26.0625 8.95165 26.1125 8.87482 26.075C8.79798 26.0375 8.79798 25.9875 8.81078 25.9625L9.46391 17.15C9.47672 16.9625 9.39988 16.7875 9.27181 16.6625C7.27402 14.875 5.64761 12.775 4.43101 10.45L10.5396 4.4875C12.9344 5.675 15.0859 7.2625 16.93 9.2C17.0581 9.3375 17.2374 9.4 17.4295 9.3875L26.4452 8.7375C26.4708 8.7375 26.522 8.7375 26.5604 8.8C26.5988 8.875 26.5476 8.925 26.5348 8.9375L21.0793 14.2625C20.9 14.4375 20.8488 14.7125 20.964 14.95C21.3226 15.675 21.6556 16.425 21.9501 17.2L22.424 18.4625L18.7485 22.025Z" fill="white" />
<path d="M10.719 10.6125C10.1555 11.1625 9.83533 11.9 9.83533 12.6875C9.83533 13.475 10.1427 14.2125 10.719 14.7625C11.2824 15.3125 12.038 15.625 12.8448 15.625C13.6516 15.625 14.4072 15.325 14.9707 14.7625C16.1361 13.625 16.1361 11.7625 14.9707 10.6125C13.7925 9.47498 11.8972 9.47498 10.719 10.6125ZM14.0999 13.9125C13.7669 14.2375 13.3187 14.425 12.8448 14.425C12.371 14.425 11.9228 14.25 11.5898 13.9125C11.2568 13.5875 11.0647 13.15 11.0647 12.6875C11.0647 12.225 11.2568 11.7875 11.5898 11.4625C11.9356 11.125 12.3966 10.95 12.8448 10.95C13.3059 10.95 13.7541 11.125 14.0999 11.4625C14.7914 12.1375 14.7914 13.2375 14.0999 13.9125Z" fill="white" />
</g>
<defs>

</defs>
</symbol><clipPath id="rocket_white_clip0">
<rect width="32.7843" height="32" fill="white" />
</clipPath><symbol viewBox="0 0 20 20" fill="none" id="show_password">
<circle cx="10" cy="10" r="3" stroke="#D70032" />
<path d="M18.8058 9.4903C18.9444 9.68982 19.0549 9.86303 19.1381 10C19.0549 10.137 18.9444 10.3102 18.8058 10.5097C18.4393 11.0375 17.8805 11.7435 17.1163 12.4489C15.5918 13.8561 13.2654 15.25 10 15.25C6.99446 15.25 4.66446 13.8649 3.06077 12.4394C2.26058 11.7282 1.65198 11.0157 1.24444 10.4822C1.0937 10.2849 0.97106 10.1128 0.876964 9.97534C0.958264 9.84247 1.06378 9.67803 1.19415 9.4903C1.56067 8.96251 2.11955 8.25648 2.88371 7.5511C4.40816 6.14392 6.73455 4.75 10 4.75C13.2654 4.75 15.5918 6.14392 17.1163 7.5511C17.8805 8.25648 18.4393 8.96251 18.8058 9.4903Z" stroke="#D70032" stroke-width="1.5" />
</symbol><symbol viewBox="0 0 24 24" fill="none" id="vk">
<path d="M22.7234 0H1.2766C0.571404 0 0 0.57166 0 1.2766V22.7234C0 23.4283 0.571404 24 1.2766 24H22.7234C23.4286 24 24 23.4283 24 22.7234V1.2766C24 0.57166 23.4286 0 22.7234 0ZM19.1155 13.5174C19.7696 14.1557 20.4613 14.7567 21.0488 15.4621C21.3087 15.7736 21.5538 16.0953 21.7404 16.4576C22.0062 16.9744 21.7662 17.542 21.3031 17.5723L18.4292 17.5716C17.6872 17.6326 17.0964 17.3339 16.598 16.8266C16.201 16.4219 15.8318 15.9899 15.4491 15.5719C15.2931 15.4001 15.1277 15.2385 14.9321 15.1108C14.5404 14.8565 14.2001 14.9341 13.9751 15.3429C13.7464 15.7591 13.6935 16.2207 13.6726 16.6846C13.6407 17.3625 13.4364 17.5394 12.7565 17.5708C11.3037 17.6392 9.92477 17.4186 8.64383 16.6866C7.51302 16.0407 6.63855 15.1282 5.87668 14.0962C4.39174 12.0835 3.25455 9.87421 2.23328 7.60162C2.00323 7.0897 2.17149 6.81574 2.73549 6.80528C3.67404 6.78664 4.61234 6.78919 5.54962 6.80426C5.93157 6.81013 6.18409 7.02868 6.33038 7.38868C6.83719 8.63591 7.45915 9.82264 8.23787 10.9231C8.44545 11.2159 8.65736 11.5083 8.95864 11.7153C9.29157 11.9441 9.54536 11.8688 9.70238 11.4973C9.80272 11.2603 9.84613 11.0086 9.86757 10.7553C9.94213 9.88826 9.95106 9.02119 9.82238 8.15745C9.74196 7.61719 9.43762 7.26817 8.89889 7.16604C8.62468 7.11396 8.66477 7.01234 8.79804 6.85583C9.02936 6.58468 9.2474 6.41719 9.68043 6.41719L12.9283 6.41668C13.4405 6.51677 13.5544 6.74655 13.6241 7.26204L13.6271 10.8705C13.6218 11.0701 13.727 11.6614 14.0854 11.7922C14.3722 11.8869 14.5624 11.6569 14.734 11.4746C15.5122 10.6486 16.0667 9.67302 16.5638 8.66374C16.7826 8.21872 16.9723 7.75762 17.1562 7.29626C17.2923 6.95489 17.5052 6.78689 17.8902 6.79302L21.0169 6.79634C21.1088 6.79634 21.203 6.79736 21.2941 6.81243C21.8206 6.90306 21.9648 7.12979 21.8022 7.644C21.5459 8.45157 21.0467 9.1246 20.5586 9.79915C20.0369 10.5204 19.4801 11.218 18.9623 11.9428C18.4879 12.6077 18.5262 12.9416 19.1155 13.5174Z" fill="white" />
</symbol><symbol viewBox="0 0 24 24" fill="none" id="xls_green_light">
<path d="M6.00002 3.85716V0.550385L1.95349 4.28574H5.57145C5.80812 4.28574 6.00002 4.09384 6.00002 3.85716Z" fill="#519A26" />
<path d="M1.28568 23.5714C1.28568 23.8081 1.47757 24 1.71425 24H19.7142C19.9509 24 20.1428 23.8081 20.1428 23.5714V17.5714H5.99996C5.28993 17.5714 4.71425 16.9957 4.71425 16.2857V8.57143C4.71425 7.8614 5.28993 7.28571 5.99996 7.28571H20.1428V0.428571C20.1428 0.191895 19.9509 0 19.7142 0H6.8571V3.85714C6.8571 4.56717 6.28142 5.14286 5.57139 5.14286H1.28568V23.5714Z" fill="#519A26" />
<path d="M22.7142 16.2857V8.57141C22.7142 8.33474 22.5223 8.14284 22.2857 8.14284H5.99995C5.76328 8.14284 5.57138 8.33474 5.57138 8.57141V16.2857C5.57138 16.5224 5.76328 16.7143 5.99995 16.7143H22.2857C22.5223 16.7143 22.7142 16.5224 22.7142 16.2857ZM11.0708 14.7621C11.2022 14.959 11.1491 15.2252 10.9522 15.3566C10.7553 15.488 10.4891 15.4348 10.3577 15.2379L8.99995 13.1999L7.64225 15.2365C7.51083 15.4336 7.24465 15.4867 7.04773 15.3553C6.85082 15.2239 6.79766 14.9577 6.92908 14.7608L8.48558 12.4286L6.92992 10.0951C6.7985 9.89814 6.85165 9.63196 7.04857 9.50054C7.2457 9.36913 7.51167 9.42228 7.64309 9.61919L8.99995 11.6572L10.3577 9.62066C10.4891 9.42353 10.7553 9.37038 10.9522 9.5018C11.1491 9.63322 11.2022 9.8994 11.0708 10.0963L9.51432 12.4286L11.0708 14.7621ZM15.8571 15.4286H12.4285C12.1918 15.4286 12 15.2367 12 15V9.85713C12 9.62045 12.1918 9.42856 12.4285 9.42856C12.6652 9.42856 12.8571 9.62045 12.8571 9.85713V14.5714H15.8571C16.0938 14.5714 16.2857 14.7633 16.2857 15C16.2857 15.2367 16.0938 15.4286 15.8571 15.4286ZM21.4285 14.1428C21.4285 14.8529 20.8528 15.4286 20.1428 15.4286H18.4285C17.726 15.426 17.1545 14.8621 17.1428 14.1596C17.1397 13.9225 17.3276 13.7268 17.5645 13.7203H17.5714C17.8039 13.7174 17.9953 13.9026 18 14.1351C17.9981 14.3739 18.1898 14.5691 18.4285 14.5714H20.1428C20.3795 14.5714 20.5714 14.3795 20.5714 14.1428V13.2857C20.5714 13.049 20.3795 12.8571 20.1428 12.8571H18.4285C17.7185 12.8571 17.1428 12.2814 17.1428 11.5714V10.7143C17.1428 10.0042 17.7185 9.42856 18.4285 9.42856H20.1646C20.505 9.42877 20.8311 9.56604 21.069 9.80962C21.3069 10.0532 21.4365 10.3824 21.4285 10.7229C21.4239 10.9562 21.2333 11.1428 21 11.1428H20.9947C20.7601 11.1401 20.5714 10.9491 20.5714 10.7143C20.5766 10.6006 20.5348 10.4899 20.4557 10.4083C20.3793 10.3296 20.2742 10.2855 20.1646 10.2857H18.4285C18.1918 10.2857 18 10.4776 18 10.7143V11.5714C18 11.8081 18.1918 12 18.4285 12H20.1428C20.8528 12 21.4285 12.5757 21.4285 13.2857V14.1428Z" fill="#519A26" />
</symbol><symbol viewBox="0 0 24 24" fill="none" id="xls_white">
<path d="M5.99965 3.85707V0.550293L1.95312 4.28564H5.57108C5.80776 4.28564 5.99965 4.09375 5.99965 3.85707Z" fill="white" />
<path d="M1.28613 23.5714C1.28613 23.8081 1.47803 24 1.7147 24H19.7147C19.9514 24 20.1433 23.8081 20.1433 23.5714V17.5714H6.00042C5.29039 17.5714 4.7147 16.9957 4.7147 16.2857V8.57143C4.7147 7.8614 5.29039 7.28571 6.00042 7.28571H20.1433V0.428571C20.1433 0.191895 19.9514 0 19.7147 0H6.85756V3.85714C6.85756 4.56717 6.28188 5.14286 5.57185 5.14286H1.28613V23.5714Z" fill="white" />
<path d="M22.7141 16.2859V8.57164C22.7141 8.33496 22.5223 8.14307 22.2856 8.14307H5.99986C5.76318 8.14307 5.57129 8.33496 5.57129 8.57164V16.2859C5.57129 16.5226 5.76318 16.7145 5.99986 16.7145H22.2856C22.5223 16.7145 22.7141 16.5226 22.7141 16.2859ZM11.0707 14.7623C11.2021 14.9592 11.149 15.2254 10.9521 15.3568C10.7552 15.4882 10.489 15.4351 10.3576 15.2381L8.99986 13.2001L7.64216 15.2367C7.51074 15.4338 7.24456 15.487 7.04764 15.3555C6.85073 15.2241 6.79757 14.9579 6.92899 14.761L8.48549 12.4288L6.92983 10.0953C6.79841 9.89837 6.85156 9.63219 7.04848 9.50077C7.24561 9.36935 7.51158 9.4225 7.643 9.61942L8.99986 11.6574L10.3576 9.62088C10.489 9.42376 10.7552 9.37061 10.9521 9.50202C11.149 9.63344 11.2021 9.89962 11.0707 10.0965L9.51423 12.4288L11.0707 14.7623ZM15.857 15.4288H12.4284C12.1918 15.4288 11.9999 15.2369 11.9999 15.0002V9.85735C11.9999 9.62068 12.1918 9.42878 12.4284 9.42878C12.6651 9.42878 12.857 9.62068 12.857 9.85735V14.5716H15.857C16.0937 14.5716 16.2856 14.7635 16.2856 15.0002C16.2856 15.2369 16.0937 15.4288 15.857 15.4288ZM21.4284 14.1431C21.4284 14.8531 20.8527 15.4288 20.1427 15.4288H18.4284C17.7259 15.4263 17.1544 14.8623 17.1427 14.1598C17.1396 13.9227 17.3275 13.7271 17.5644 13.7206H17.5713C17.8038 13.7176 17.9953 13.9028 17.9999 14.1353C17.998 14.3741 18.1897 14.5693 18.4284 14.5716H20.1427C20.3794 14.5716 20.5713 14.3797 20.5713 14.1431V13.2859C20.5713 13.0492 20.3794 12.8574 20.1427 12.8574H18.4284C17.7184 12.8574 17.1427 12.2817 17.1427 11.5716V10.7145C17.1427 10.0045 17.7184 9.42878 18.4284 9.42878H20.1645C20.505 9.42899 20.831 9.56627 21.0689 9.80985C21.3068 10.0534 21.4364 10.3826 21.4284 10.7231C21.4238 10.9564 21.2332 11.1431 20.9999 11.1431H20.9946C20.76 11.1403 20.5713 10.9493 20.5713 10.7145C20.5765 10.6009 20.5347 10.4902 20.4556 10.4086C20.3792 10.3299 20.2741 10.2857 20.1645 10.2859H18.4284C18.1918 10.2859 17.9999 10.4778 17.9999 10.7145V11.5716C17.9999 11.8083 18.1918 12.0002 18.4284 12.0002H20.1427C20.8527 12.0002 21.4284 12.5759 21.4284 13.2859V14.1431Z" fill="white" />
</symbol></defs><use width="33" height="32" xlink:href="#24hours_7days" transform="translate(0, 0)" /><use width="33" height="32" xlink:href="#24hours_7days_white" transform="translate(0, 42)" /><use width="33" height="32" xlink:href="#adventure_line" transform="translate(0, 84)" /><use width="33" height="32" xlink:href="#adventure_line_white" transform="translate(0, 126)" /><use width="12" height="8" xlink:href="#arrow_down" transform="translate(0, 168)" /><use width="18" height="10" xlink:href="#arrow_down_black" transform="translate(0, 186)" /><use width="13" height="12" xlink:href="#arrow_right" transform="translate(0, 206)" /><use width="32" height="32" xlink:href="#avatar" transform="translate(0, 228.00000000000003)" /><use width="16" height="16" xlink:href="#balloons" transform="translate(0, 270)" /><use width="62" height="62" xlink:href="#calculator" transform="translate(0, 296)" /><use width="277" height="104" xlink:href="#chatbot" transform="translate(0, 368)" /><use width="21" height="20" xlink:href="#check" transform="translate(0, 481.99999999999994)" /><use width="14" height="11" xlink:href="#checked" transform="translate(0, 511.99999999999994)" /><use width="20" height="20" xlink:href="#checked_red" transform="translate(0, 533)" /><use width="18" height="18" xlink:href="#close" transform="translate(0, 563)" /><use width="28" height="28" xlink:href="#close_gray" transform="translate(0, 591)" /><use width="14" height="16" xlink:href="#coins" transform="translate(0, 629)" /><use width="33" height="32" xlink:href="#data_analysis" transform="translate(0, 655)" /><use width="33" height="32" xlink:href="#data_analysis_white" transform="translate(0, 697)" /><use width="25" height="24" xlink:href="#doc_blue_light" transform="translate(0, 739)" /><use width="25" height="24" xlink:href="#doc_white" transform="translate(0, 773)" /><use width="20" height="20" xlink:href="#edit_blue" transform="translate(0, 807)" /><use width="32" height="32" xlink:href="#help" transform="translate(0, 837)" /><use width="20" height="20" xlink:href="#hide_password" transform="translate(0, 879.0000000000001)" /><use width="66" height="64" xlink:href="#law_contract" transform="translate(0, 909.0000000000001)" /><use width="66" height="64" xlink:href="#lovetalk" transform="translate(0, 983)" /><use width="66" height="64" xlink:href="#magic" transform="translate(0, 1057)" /><use width="88" height="88" xlink:href="#paper_plane" transform="translate(0, 1131)" /><use width="62" height="62" xlink:href="#play" transform="translate(0, 1229)" /><use width="9" height="14" xlink:href="#previous" transform="translate(0, 1301)" /><use width="20" height="20" xlink:href="#remove" transform="translate(0, 1325)" /><use width="87" height="87" xlink:href="#restart" transform="translate(0, 1355)" /><use width="33" height="32" xlink:href="#rocket" transform="translate(0, 1452)" /><use width="33" height="32" xlink:href="#rocket_white" transform="translate(0, 1494)" /><use width="20" height="20" xlink:href="#show_password" transform="translate(0, 1536)" /><use width="24" height="24" xlink:href="#vk" transform="translate(0, 1566)" /><use width="24" height="24" xlink:href="#xls_green_light" transform="translate(0, 1600)" /><use width="24" height="24" xlink:href="#xls_white" transform="translate(0, 1634)" /></svg>