<svg id="Слой_1" data-name="Слой 1" xmlns="http://www.w3.org/2000/svg" xmlns:xlink="http://www.w3.org/1999/xlink" viewBox="0 0 140 80"><defs><style>.cls-1{fill:#fff;}.cls-2{fill:url(#Безымянный_градиент_5);}.cls-3{fill:url(#Безымянный_градиент_5-2);}.cls-4{fill:#12100b;}.cls-5{fill:#969696;}</style><linearGradient id="Безымянный_градиент_5" x1="14" y1="38" x2="52" y2="38" gradientUnits="userSpaceOnUse"><stop offset="0" stop-color="#fe8900"/><stop offset="0.28" stop-color="#fe8e0f"/><stop offset="0.63" stop-color="#ff921a"/><stop offset="1" stop-color="#ff931e"/></linearGradient><linearGradient id="Безымянный_градиент_5-2" x1="22.65" y1="27.65" x2="43.1" y2="48.09" xlink:href="#Безымянный_градиент_5"/></defs><title>ElecsnetWallet</title><path class="cls-1" d="M48,47.06c-.12,0-.22-.06-.21-.2s.07-.1.11-.11.16.08.18.18Z"/><path class="cls-1" d="M51,37.75A18,18,0,1,0,33,56,18,18,0,0,0,51,37.75Z"/><path class="cls-2" d="M33,57h0A19,19,0,0,1,19.72,24.38,18.73,18.73,0,0,1,32.86,19h.27A19,19,0,0,1,52,37.74h0a19.18,19.18,0,0,1-5.49,13.64A18.83,18.83,0,0,1,33,57Zm-.12-36A17,17,0,0,0,20.93,50,16.86,16.86,0,0,0,33,55h0a16.84,16.84,0,0,0,12.09-5A17.17,17.17,0,0,0,50,37.77h0A17,17,0,0,0,33.11,21Z"/><path class="cls-1" d="M34.28,31.7a2.32,2.32,0,0,1-1.44-2,1.66,1.66,0,0,1,.47-1.59.19.19,0,0,1,.15-.06,2.91,2.91,0,0,1,1.15-.6,2.38,2.38,0,0,1,1.85.4,2.33,2.33,0,0,1,.74,2.59A2.28,2.28,0,0,1,35,31.83,3.81,3.81,0,0,1,34.28,31.7Z"/><path class="cls-3" d="M27.39,38.85c0-.52,0-1,0-1.56s0-.65.65-.65H46.5a3.61,3.61,0,0,0,.47,0c.12,0,.26,0,.29-.17h0a1.41,1.41,0,0,0,0-.39c-.14-.69-.29-1.37-.43-2.06a15.37,15.37,0,0,0-.72-1.91h0a10.88,10.88,0,0,0-1.25-2.3,11.15,11.15,0,0,0-1.56-1.9h0a10.84,10.84,0,0,0-2.42-2.05h0A10.9,10.9,0,0,0,38,24.35a5.66,5.66,0,0,0-1.37-.47,15.57,15.57,0,0,0-3.65-.48,20.32,20.32,0,0,0-2.53.2,18.07,18.07,0,0,0-2.54.7,14.22,14.22,0,0,0-6.48,4.81,9.93,9.93,0,0,0-1.06,1.57,13.68,13.68,0,0,0-1.49,3.66,15.62,15.62,0,0,0-.41,3.9,13.66,13.66,0,0,0,.5,3.44A11.55,11.55,0,0,0,20,44.41h0a12.92,12.92,0,0,0,2.72,3.74l0,0a14.21,14.21,0,0,0,11.7,4.05,14,14,0,0,0,8-3.57,15,15,0,0,0,2.6-3.1l.07-.07a14.78,14.78,0,0,0,2.07-5.83c0-.27-.08-.29-.29-.29H27.28a.1.1,0,0,0,.06,0A1.18,1.18,0,0,0,27.39,38.85ZM21,31.49h0ZM36.58,28a2.2,2.2,0,0,1,.58,2,.41.41,0,0,0,0,.29.75.75,0,0,0-.23.31,2.16,2.16,0,0,1-1.75,1.07c-.31,0-.6-.11-.91-.09h0c-.07-.14-.22-.18-.33-.26a2.39,2.39,0,0,1-1-1.78l-.05-.08a2.29,2.29,0,0,1,.58-1.49h.06a.69.69,0,0,0,.29-.17,2.16,2.16,0,0,1,1.78-.39c.32.07.58.3.91.34A.41.41,0,0,0,36.58,28Zm-13,17.52h0Z"/><circle class="cls-1" cx="35.07" cy="29.66" r="2.3"/><path class="cls-4" d="M85.56,33.61a3.8,3.8,0,0,0-1.23-2.75,3.9,3.9,0,0,0-5.1.22,4.86,4.86,0,0,0-1.43,3.47,4.74,4.74,0,0,0,.82,3.07,3.57,3.57,0,0,0,2.07,1.45,6.32,6.32,0,0,0,3.6-.07c1-.3.89-.11.6-1.16,0-.21,0-.32-.29-.21a5.71,5.71,0,0,1-2.26.36,2.74,2.74,0,0,1-2.85-2.08l-.07-.41h0v-.14h0v-.07c0-.27.13-.28.33-.28h5.43c.13,0,.28.07.38-.07h0A6.67,6.67,0,0,0,85.56,33.61Zm-5.11-1.8c.1-.09.25-.16.24-.32a2.3,2.3,0,0,1,2.6.23h0l.19.16h0A3.64,3.64,0,0,1,84,33.75h0c-.11-.15-.29-.09-.43-.09H79.86c-.34,0-.37,0-.28-.36A2.9,2.9,0,0,1,80.45,31.81Z"/><path class="cls-4" d="M69.42,35.14a5.38,5.38,0,0,0,.27-1.38h0a6.7,6.7,0,0,0,0-1.93,2.94,2.94,0,0,0-.35-1.4,4.72,4.72,0,0,0-2-2.87,6.6,6.6,0,0,0-6.41-.37c-.15.06-.18.14-.12.29a7.41,7.41,0,0,1,.25.79c.06.24.17.26.35.12h0a5.36,5.36,0,0,1,4.32-.07A4.47,4.47,0,0,1,67.37,30,6.22,6.22,0,0,1,68,31.75c0,.27,0,.38-.32.38-1.45,0-2.9,0-4.35,0-.33,0-.78-.15-1,.07s0,.64-.06,1,.1.3.31.25h5.12c.14,0,.32-.06.32.19h0c0,.26-.08.52-.13.78a4.21,4.21,0,0,1-4.29,3.54,6.44,6.44,0,0,1-2.45-.47c-.21-.08-.27-.05-.32.16s-.15.58-.24.86,0,.24.17.26h0a8.12,8.12,0,0,0,4.09.46,5.52,5.52,0,0,0,4.56-4.07Z"/><path class="cls-4" d="M123.9,30.51c0-.2,0-.28-.24-.28-.63,0-1.26,0-1.89,0h-4.88a2.85,2.85,0,0,0,0,1.24h0c.07.13.19,0,.28,0l2.15,0c.14,0,.31,0,.33.19a.3.3,0,0,0,0,.07c0,2.37,0,4.74,0,7.1,0,.25.11.27.3.22h0c.36,0,.71,0,1.07,0,.19,0,.26-.06.26-.25,0-1,0-2,0-3h0v-.9h0q0-1,0-2h0q0-.55,0-1.11h0c0-.25.08-.34.34-.33.69,0,1.38,0,2.07,0,.2,0,.3-.05.28-.27S123.9,30.75,123.9,30.51Z"/><path class="cls-4" d="M92,35.89a3.09,3.09,0,0,0-2.28-1.65h0c-.23-.08,0-.16,0-.2l1.43-1.53c.65-.61,1.26-1.27,1.87-1.93a.87.87,0,0,0,.33-.36h-.56a3.55,3.55,0,0,0-1.36.05c-.39.18-.64.66-1,1l-.23.26c-.74.83-1.43,1.7-2.2,2.5h0c-.24,0-.31-.09-.3-.32,0-1.06,0-2.12,0-3.18,0-.11.06-.23-.07-.31h0c-.42,0-.85,0-1.27,0-.26,0-.32.07-.32.32q0,4.12,0,8.23c0,.28.07.38.35.29h1.24c.14-.09.07-.23.07-.35,0-1.17,0-2.34,0-3.51h0a4.13,4.13,0,0,1,1.59.21l.73.49h0a6.66,6.66,0,0,1,1.12,2c.13.32.29.63.43.94,0,.11.1.2.25.2h1.57c-.31-.62-.55-1.21-.78-1.81A5.34,5.34,0,0,0,92,35.89Zm-.83-.74h0v0l0,0Zm-.62-.42h0Z"/><path class="cls-4" d="M76.62,30.23q-2.78,0-5.55,0c-.25,0-.34,0-.33.32,0,.83,0,1.66,0,2.48a20.86,20.86,0,0,1-.09,2.79c-.11.75-.25,1.56-1,1.86-.63.24-.72.55-.56,1.1a.66.66,0,0,1,0,.17c0,.22.11.31.33.26a2.46,2.46,0,0,0,1.27-.37A3.32,3.32,0,0,0,72.17,36h0a3.17,3.17,0,0,0,.08-1h0a2.37,2.37,0,0,0,.06-.37c0-1.05,0-2.1,0-3.16h0s.06,0,.09,0h2.69c.21,0,.19.13.19.27q0,3.5,0,7c0,.1-.06.23.07.31h.28c.36,0,.71,0,1.07,0,.2,0,.25-.07.25-.26,0-1,0-1.91,0-2.86h0q0-.48,0-1h0q0-1,0-2.08h0V31.68h0q0-.55,0-1.11C77,30.3,76.91,30.22,76.62,30.23Z"/><path class="cls-4" d="M116.08,31a3.87,3.87,0,0,0-5.18,0,5.35,5.35,0,0,0-.72,6.64A3.55,3.55,0,0,0,112,39,6.52,6.52,0,0,0,116,39c.74-.2.73-.22.57-1,0-.09,0-.17-.07-.26s-.07-.22-.26-.15a5.86,5.86,0,0,1-2.33.37,2.74,2.74,0,0,1-2.66-1.66l-.21-.89h0c0-.15-.08-.28-.07-.42h0l.45,0h5.42c.12,0,.31.08.34-.12a3,3,0,0,0,0-1.39A4.19,4.19,0,0,0,116.08,31Zm-6.53,4.59h0Zm6.05-1.88a.75.75,0,0,0-.48-.08h-3.55c-.47,0-.5-.05-.38-.5a3.78,3.78,0,0,0,.3-.84l0,0a2.81,2.81,0,0,1,.61-.65,2.22,2.22,0,0,1,3,.41A3.09,3.09,0,0,1,115.61,33.73Zm-1.73,1.19h0l0,0Z"/><path class="cls-4" d="M99.83,30.4a5.43,5.43,0,0,0-4.45.17C93,31.79,92.52,35,93.52,37a3.51,3.51,0,0,0,1.65,1.73,5.5,5.5,0,0,0,4.27.24c.57-.16.56-.18.43-.77l-.13-.53c-.07-.28-.23-.06-.31,0a3.47,3.47,0,0,1-4.06-.78,5.51,5.51,0,0,1-.55-1h0l-.14-.9h0a4.69,4.69,0,0,1,.36-2,4.34,4.34,0,0,1,1-1.17h0a3.82,3.82,0,0,1,2.76-.32c.28.06.61.36.8.2s.23-.56.3-.85h0C100.08,30.61,100.06,30.49,99.83,30.4Z"/><path class="cls-4" d="M108.5,35.9h0c0-1.73,0-3.41,0-5.11h0c0-.09,0-.21,0-.28h0c0-.21,0-.29-.25-.28a9.32,9.32,0,0,1-1.07,0c-.25,0-.33,0-.33.32,0,1,0,2,0,2.93,0,.24-.07.31-.31.31-1.12,0-2.23,0-3.35,0-.12,0-.25,0-.37,0s-.13-.18-.14-.3c0-.38,0-.77,0-1.15h0q0-.9,0-1.8c.06-.26,0-.37-.31-.35a8.07,8.07,0,0,1-1,0c-.22,0-.29.05-.29.28q0,4.15,0,8.3c0,.27.1.32.33.26s.71,0,1.07,0c.2,0,.25-.07.25-.26,0-1,0-2,0-2.93h0l0-.83h3.79c.12,0,.29-.07.35.13h0v.08c0,1.18,0,2.37,0,3.55,0,.3.14.28.34.24h1.24c.1,0,.07-.14.07-.21C108.5,37.87,108.5,36.86,108.5,35.9Z"/><path class="cls-5" d="M65.06,48a3,3,0,0,1-.25,1.28,1.91,1.91,0,0,1-.72.85,2.12,2.12,0,0,1-2.16,0,1.94,1.94,0,0,1-.73-.84,3,3,0,0,1-.26-1.26v-.28a3,3,0,0,1,.26-1.29,1.94,1.94,0,0,1,.73-.85,2,2,0,0,1,1.08-.3,2,2,0,0,1,1.08.29,1.92,1.92,0,0,1,.73.84,3,3,0,0,1,.26,1.28Zm-.86-.26a2.17,2.17,0,0,0-.31-1.27,1.1,1.1,0,0,0-1.76,0,2.13,2.13,0,0,0-.32,1.24V48a2.16,2.16,0,0,0,.32,1.27,1,1,0,0,0,.89.45,1,1,0,0,0,.88-.44A2.21,2.21,0,0,0,64.2,48Z"/><path class="cls-5" d="M69.87,50.39H69V48.18H66.79v2.21h-.87v-5h.87v2.07H69V45.42h.86Z"/><path class="cls-5" d="M74.87,45.42v5H74V46.11H72.48L72.39,48a5.59,5.59,0,0,1-.22,1.4,1.43,1.43,0,0,1-.49.73,1.46,1.46,0,0,1-.86.23H70.6v-.7h.14a.67.67,0,0,0,.46-.21,1.21,1.21,0,0,0,.25-.55,6.64,6.64,0,0,0,.12-1.08l.1-2.43Z"/><path class="cls-5" d="M78.75,49.23H76.82l-.4,1.16h-.9l1.88-5h.78l1.88,5h-.9Zm-1.68-.7h1.44l-.72-2.06Z"/><path class="cls-5" d="M83.67,45.42h.87v5h-.87V46.85l-2.18,3.54h-.87v-5h.87V49Zm0-1.27a.89.89,0,0,1-.3.7,1.35,1.35,0,0,1-1.61,0,.89.89,0,0,1-.3-.7h.62a.46.46,0,0,0,.13.34.49.49,0,0,0,.35.12.48.48,0,0,0,.35-.12.46.46,0,0,0,.13-.34Z"/><path class="cls-5" d="M89.53,50.39h-.86V48.18H86.44v2.21h-.87v-5h.87v2.07h2.22V45.42h.86Z"/></svg>