<svg data-name="Layer 1" xmlns="http://www.w3.org/2000/svg" viewBox="0 0 140 80"><defs><style>.cls-1{fill:#ff8c00;}</style></defs><title>Qiwi logo</title><path class="cls-1" d="M86.33,29.33v17a.47.47,0,0,1-.46.46H82.4a.47.47,0,0,1-.46-.46v-17a.47.47,0,0,1,.46-.47h3.47A.47.47,0,0,1,86.33,29.33Zm27-.47h-3.88a.47.47,0,0,0-.44.33l-3.07,10-3.37-10a.45.45,0,0,0-.43-.32H99.42a.45.45,0,0,0-.43.32l-3.37,10-3.07-10a.47.47,0,0,0-.44-.33H88.23a.48.48,0,0,0-.37.19.45.45,0,0,0-.06.42l5.69,17a.45.45,0,0,0,.43.31H97a.46.46,0,0,0,.44-.31l3.34-9.91,3.33,9.91a.46.46,0,0,0,.44.31h3.08a.45.45,0,0,0,.43-.31l5.69-17a.45.45,0,0,0-.06-.42A.48.48,0,0,0,113.32,28.86Zm5.83,0h-3.47a.47.47,0,0,0-.46.47v17a.47.47,0,0,0,.46.46h3.47a.47.47,0,0,0,.46-.46v-17A.47.47,0,0,0,119.15,28.86ZM79.94,46.16a.35.35,0,0,1-.27.58H75.43a.55.55,0,0,1-.45-.21l-.72-.86a9.4,9.4,0,1,1,2.8-2.81Zm-8.41-3.78-1.86-2.24a.36.36,0,0,1,.28-.59h3.89a5.63,5.63,0,0,0,.28-1.75A5,5,0,1,0,69.18,43,4.83,4.83,0,0,0,71.53,42.38ZM49.18,46.07c.1.71-.12,1-.35,1s-.55-.28-.91-.85a1.72,1.72,0,0,1-.31-1.52.5.5,0,0,1,.67-.19C48.88,44.74,49.11,45.65,49.18,46.07Zm-3.31,1.54c.71.61.93,1.33.55,1.84a1.15,1.15,0,0,1-1,.43,1.78,1.78,0,0,1-1.1-.39,1.55,1.55,0,0,1-.42-2,1,1,0,0,1,.76-.32A1.84,1.84,0,0,1,45.87,47.61Zm-1.2,5.86c3.09,0,6.44,1.06,10.15,4.35.37.33.87-.08.54-.49-3.64-4.61-7-5.48-10.38-6.23a11.14,11.14,0,0,1-7.71-5.76c-.29-.51-.42-.42-.45.23a14.47,14.47,0,0,0,.2,2.89h-.5A10.66,10.66,0,1,1,47.18,37.8,10.19,10.19,0,0,1,47.11,39,15.53,15.53,0,0,0,43.73,39c-.41,0-.35.22,0,.28A7.43,7.43,0,0,1,50.18,46a.1.1,0,0,0,.18,0,16.13,16.13,0,1,0-13.84,7.85C38.88,53.93,41.23,53.47,44.67,53.47Z"/></svg>