<svg id="Слой_1" data-name="Слой 1" xmlns="http://www.w3.org/2000/svg" viewBox="-20 -20 140 80">
  <path d="M34.029 26.6956V32.3188H36.2029C37.8841 32.3188 39.0435 31.0724 39.0435 29.4782C39.0435 27.942 37.8841 26.6667 36.2029 26.6667H34.029V26.6956ZM31.1884 24.058H36.4348C39.5942 24.058 41.942 26.4927 41.942 29.5072C41.942 32.5507 39.5942 34.9855 36.4058 34.9855H34.029V39.3333H31.1884V24.058Z" fill="#010101"/>
  <path d="M52.6087 33.1594C52.6087 31.1014 51.0435 29.3913 48.9565 29.3913C46.8696 29.3913 45.2464 31.0435 45.2464 33.1594C45.2464 35.3043 46.8696 36.9565 48.9565 36.9565C51.0435 36.9855 52.6087 35.2754 52.6087 33.1594ZM42.4638 33.2174C42.4638 29.1594 45.4493 26.8406 48.5217 26.8406C50.1449 26.8406 51.5652 27.5072 52.4638 28.5507V27.0725H55.3043V39.3333H52.4638V37.7391C51.5652 38.8696 50.087 39.5942 48.4928 39.5942C45.5362 39.5652 42.4638 37.2174 42.4638 33.2174Z" fill="#010101"/>
  <path d="M61.2464 38.7247L56.2319 27.0725H59.2464L62.6377 35.3334L65.8551 27.0725H68.8406L61.5362 44.9855H58.6667L61.2464 38.7247Z" fill="#010101"/>
  <path d="M82.5797 0.492737L82.7826 11.7101H82.6956L79.4203 0.492737H74.1159V14.6377H77.6232L77.4203 3.01448H77.5072L81.0435 14.6377H86.1159V0.492737H82.5797Z" fill="#010101"/>
  <path d="M15.3043 0.492737L12.6667 14.7826H16.5217L18.4638 1.79708H18.5507L20.4638 14.7826H24.2899L21.6812 0.492737H15.3043Z" fill="#010101"/>
  <path d="M36.8986 0.492737L35.1304 11.4203H35.0725L33.3043 0.492737H27.4783L27.1594 14.7826H30.7246L30.8116 1.94201H30.8986L33.2754 14.7826H36.9275L39.3044 1.94201H39.3913L39.4783 14.7826H43.0435L42.7246 0.492737H36.8986Z" fill="#010101"/>
  <path d="M6.63768 10.7536C6.78261 11.1014 6.72464 11.5362 6.66667 11.7971C6.55072 12.2609 6.23188 12.7536 5.27536 12.7536C4.37681 12.7536 3.82609 12.2319 3.82609 11.4493V10.058H0V11.1594C0 14.3478 2.52174 15.3043 5.18841 15.3043C7.76812 15.3043 9.91304 14.4348 10.2319 12.029C10.4058 10.7826 10.2899 10 10.2029 9.68116C9.5942 6.69565 4.17391 5.7971 3.76812 4.11594C3.71014 3.82609 3.71014 3.53623 3.73913 3.36232C3.82609 2.89855 4.14493 2.4058 5.04348 2.4058C5.88406 2.4058 6.37681 2.92754 6.37681 3.71015V4.6087H9.94203V3.5942C9.94203 0.492754 7.15942 0 5.13043 0C2.57971 0 0.521739 0.84058 0.144928 3.15942C0.0289855 3.7971 0.0289855 4.37681 0.173913 5.07246C0.84058 8.05797 5.91304 8.89855 6.63768 10.7536Z" fill="#010101"/>
  <path d="M53.1014 10.7246C53.2464 11.0725 53.1884 11.5072 53.1304 11.7681C53.0145 12.2319 52.6956 12.7246 51.7391 12.7246C50.8406 12.7246 50.3188 12.2029 50.3188 11.4493V10.0869H46.5217V11.1884C46.5217 14.3478 49.0145 15.3043 51.6522 15.3043C54.2029 15.3043 56.3188 14.4348 56.6667 12.058C56.8406 10.8406 56.7246 10.029 56.6377 9.73912C56.029 6.7826 50.6667 5.88405 50.2609 4.23188C50.2029 3.94202 50.2029 3.65217 50.2319 3.47826C50.3188 3.01449 50.6377 2.52173 51.5362 2.52173C52.3768 2.52173 52.8406 3.04347 52.8406 3.7971V4.66666H56.3768V3.68115C56.3768 0.60869 53.5942 0.115936 51.5942 0.115936C49.0725 0.115936 47.0145 0.956516 46.6377 3.24637C46.5217 3.88405 46.5217 4.43478 46.6667 5.15941C47.3623 8.05796 52.3768 8.89854 53.1014 10.7246Z" fill="#010101"/>
  <path d="M65.1015 12.6377C66.087 12.6377 66.4058 11.942 66.4638 11.5942C66.4928 11.4493 66.4928 11.2464 66.4928 11.0435V0.492737H70.116V10.7536C70.116 11.0145 70.087 11.5652 70.087 11.6811C69.8261 14.3478 67.7391 15.2174 65.1015 15.2174C62.4638 15.2174 60.3768 14.3478 60.116 11.6811C60.116 11.5362 60.087 11.0145 60.087 10.7536V0.492737H63.7102V11.0724C63.7102 11.2464 63.7102 11.4782 63.7391 11.6232C63.7971 11.942 64.116 12.6377 65.1015 12.6377Z" fill="#010101"/>
  <path d="M94.9275 12.4928C95.971 12.4928 96.3188 11.8261 96.3768 11.4493C96.4058 11.2754 96.4058 11.1015 96.4058 10.8986V8.81161H94.9275V6.72466H100V10.5507C100 10.8116 100 11.0145 99.942 11.4783C99.7101 14.087 97.4493 15.0145 94.9275 15.0145C92.4058 15.0145 90.1449 14.087 89.913 11.4783C89.8841 11.0145 89.8551 10.8116 89.8551 10.5507V4.55074C89.8551 4.28987 89.8841 3.85509 89.913 3.62321C90.2319 0.95654 92.4058 0.0869751 94.9275 0.0869751C97.4493 0.0869751 99.6812 0.927555 99.942 3.62321C100 4.08698 99.971 4.55074 99.971 4.55074V5.01451H96.3768V4.20292C96.3768 4.20292 96.3768 3.85509 96.3188 3.65219C96.2609 3.33335 95.971 2.60871 94.8985 2.60871C93.8551 2.60871 93.5652 3.30437 93.4783 3.65219C93.4493 3.82611 93.4203 4.08698 93.4203 4.31886V10.8406C93.4203 11.0145 93.4203 11.2174 93.4493 11.3913C93.5362 11.8261 93.8841 12.4928 94.9275 12.4928Z" fill="#010101"/>
</svg>
