<svg id="Слой_1" data-name="Слой 1" xmlns="http://www.w3.org/2000/svg" viewBox="0 0 140 80"><defs><style>.cls-1{fill:#f49900;}.cls-1,.cls-2{fill-rule:evenodd;}.cls-2{fill:#7e7e7e;}.cls-3{fill:#8baedb;}.cls-4{fill:#e6a461;}.cls-5{fill:#9dcc88;}.cls-6{fill:#fadb6e;}.cls-7{fill:#a185b3;}</style></defs><title>StoreSvyaznoy</title><polygon class="cls-1" points="114.16 35.48 114.16 29.01 117.9 32.05 114.16 35.48 114.16 35.48"/><path class="cls-2" d="M113.09,33.07V38l5.29-4.93h5.08v9.2h-5.29V37.21l-5.23,5.07H107.8v-9.2ZM98.44,40.22a3.89,3.89,0,0,0,2-.41,2.6,2.6,0,0,0,1-.89,2.1,2.1,0,0,0,.29-.78c0-.24,0-.4,0-.47a2.29,2.29,0,0,0-.83-1.82,4.52,4.52,0,0,0-4.88,0,2.31,2.31,0,0,0-.82,1.82,4.69,4.69,0,0,0,0,.47,2.12,2.12,0,0,0,.29.78,2.61,2.61,0,0,0,1,.89,3.88,3.88,0,0,0,2,.41Zm0,2.4q-4.35,0-6.55-1.44a3.9,3.9,0,0,1,0-7q2.16-1.45,6.58-1.45T105,34.18a3.89,3.89,0,0,1,0,7q-2.16,1.45-6.58,1.45v0Zm-24.9-9.55h5.29v3.24H83.7V33.07H89v9.2H83.7V38.6H78.83v3.68H73.54v-9.2Zm-13.68.57a12.78,12.78,0,0,1,1.42-.39c.5-.11,1-.2,1.54-.28s1.12-.15,1.68-.19,1.06-.06,1.53-.06a11.05,11.05,0,0,1,4.43.71q1.56.7,1.56,1.89a1.79,1.79,0,0,1-.58,1.28,3.52,3.52,0,0,1-1.6.87v0a4.86,4.86,0,0,1,1.91.59,2.78,2.78,0,0,1,.94.88,1.51,1.51,0,0,1,.17.41,1.81,1.81,0,0,1,0,.39,2.9,2.9,0,0,1-.12.51,2,2,0,0,1-.67.9,5.65,5.65,0,0,1-2,1,14.09,14.09,0,0,1-4,.44q-.88,0-2.72-.16a16.67,16.67,0,0,1-4-.92l1.36-2.17.71.25.68.21a10.5,10.5,0,0,0,1.48.31,12.48,12.48,0,0,0,1.69.1,4.52,4.52,0,0,0,1.32-.14,1.5,1.5,0,0,0,.62-.33.55.55,0,0,0,.18-.25.72.72,0,0,0,0-.17.58.58,0,0,0-.45-.56,3.73,3.73,0,0,0-1-.2l-.39,0H62.94v-2h3l.45,0a2.1,2.1,0,0,0,.67-.22.54.54,0,0,0,.3-.5.59.59,0,0,0-.39-.56,2.9,2.9,0,0,0-.88-.24l-.45,0h-.39l-.61,0L64,35a11.68,11.68,0,0,0-1.42.28,8.86,8.86,0,0,0-1.27.43l-1.42-2.06Zm-6.55,1.56H51.14a2.64,2.64,0,0,0-.47.07,1.93,1.93,0,0,0-.73.31.8.8,0,0,0-.33.7.83.83,0,0,0,.51.81,3.38,3.38,0,0,0,1.39.24h1.78V35.21Zm-5.08,3.87a5,5,0,0,1-2.66-.94,2.47,2.47,0,0,1-1-2A2.43,2.43,0,0,1,46,33.85a9,9,0,0,1,4.1-.78H58.6v9.2H53.31V39.34h-.42l-3,2.93H44.41l3.81-3.2Zm-11-2.4h.27l.3,0a1.68,1.68,0,0,0,.67-.21.6.6,0,0,0,.3-.57.56.56,0,0,0-.29-.53,2,2,0,0,0-.65-.22l-.33,0H35.05v1.6Zm.15,3.6a2.89,2.89,0,0,0,1-.14,1.34,1.34,0,0,0,.5-.31.81.81,0,0,0,.12-.25.74.74,0,0,0,0-.17.76.76,0,0,0-.44-.66,2.5,2.5,0,0,0-1.25-.26H35.05v1.79ZM30,33.07h9.56l.83,0a7.22,7.22,0,0,1,1.16.16,4.41,4.41,0,0,1,1.53.61,1.48,1.48,0,0,1,.68,1.33,2.38,2.38,0,0,1-.06.48,2,2,0,0,1-.24.59,2.59,2.59,0,0,1-.76.7,4,4,0,0,1-1.45.5v0l.59.1a4.55,4.55,0,0,1,.65.17,3.75,3.75,0,0,1,1.32.73,1.77,1.77,0,0,1,.59,1.42,1.59,1.59,0,0,1-.74,1.43A5.22,5.22,0,0,1,42,42a7.49,7.49,0,0,1-1.39.2l-.88,0H30v-9.2Zm-1.18,8.84-.44.12q-.35.1-.92.22L26,42.49a13.18,13.18,0,0,1-1.8.12,8.78,8.78,0,0,1-5.58-1.5,4.35,4.35,0,0,1-1.86-3.44,4.27,4.27,0,0,1,1.92-3.48,9,9,0,0,1,5.52-1.46c.36,0,.71,0,1,0l1,.1q.6.09,1.24.24c.42.1.87.21,1.33.35v2.9a6.64,6.64,0,0,0-1.33-.6A7,7,0,0,0,26,35.44l-.35,0h-.32a3.48,3.48,0,0,0-2.35.68,2.08,2.08,0,0,0-.77,1.61,1.91,1.91,0,0,0,.86,1.59,4.09,4.09,0,0,0,2.47.64A6.81,6.81,0,0,0,27,39.73,6.92,6.92,0,0,0,28.79,39v2.92Z"/><rect class="cls-3" x="16.72" y="46.22" width="21.95" height="6.78"/><rect class="cls-4" x="38.67" y="46.22" width="20.85" height="6.78"/><rect class="cls-5" x="59.52" y="46.22" width="21.15" height="6.78"/><rect class="cls-6" x="80.67" y="46.22" width="22" height="6.78"/><rect class="cls-7" x="102.67" y="46.22" width="21" height="6.78"/></svg>